<?xml version="1.0" encoding="UTF-8" standalone="no"?>
<!-- Licensee: MBIE (#23593) - http://vllg.com -->
<!DOCTYPE svg PUBLIC "-//W3C//DTD SVG 1.1//EN" "http://www.w3.org/Graphics/SVG/1.1/DTD/svg11.dtd">
<svg version="1.1" xmlns="http://www.w3.org/2000/svg"><defs><font horiz-adv-x="0" id="font"><font-face ascent="832" bbox="-180 -235 1218 957" cap-height="678" descent="-168" font-family="Gustan Thin" font-stretch="normal" font-style="normal" font-weight="600" units-per-em="1000" x-height="510"/><missing-glyph d="M800 115V665L525 390ZM160 665V115L435 390ZM480 435 759 714H201ZM201 66H759L480 345ZM90 780H870V0H90Z" horiz-adv-x="960"/><glyph d="M290 645H289L132 209H451ZM22 0 267 678H312L565 0H529L462 179H123L58 0Z" glyph-name="A" horiz-adv-x="587" unicode="A"/><glyph d="M155 209H502V642H501ZM502 179H132L-10 0H-53L489 678H876V648H536V360H832V331H536V29H883V0H502Z" glyph-name="AE" horiz-adv-x="922" unicode="Æ"/><glyph d="M622 737H589L697 846H744ZM155 209H502V642H501ZM502 179H132L-10 0H-53L489 678H876V648H536V360H832V331H536V29H883V0H502Z" glyph-name="AEacute" horiz-adv-x="922" unicode="Ǽ"/><glyph d="M688 787H386V815H688ZM155 209H502V642H501ZM502 179H132L-10 0H-53L489 678H876V648H536V360H832V331H536V29H883V0H502Z" glyph-name="AEmacron" horiz-adv-x="922" unicode="Ǣ"/><glyph d="M311 737H278L386 846H433ZM290 645H289L132 209H451ZM22 0 267 678H312L565 0H529L462 179H123L58 0Z" glyph-name="Aacute" horiz-adv-x="587" unicode="Á"/><glyph d="M290 767Q336 767 369 785.5Q402 804 413 846H446Q435 790 392.5 765.5Q350 741 290 741Q230 741 187.5 765.5Q145 790 134 846H167Q178 804 211 785.5Q244 767 290 767ZM290 645H289L132 209H451ZM22 0 267 678H312L565 0H529L462 179H123L58 0Z" glyph-name="Abreve" horiz-adv-x="587" unicode="Ă"/><glyph d="M288 756 370 846H405L300 733H274L169 846H204ZM290 645H289L132 209H451ZM22 0 267 678H312L565 0H529L462 179H123L58 0Z" glyph-name="Acaron" horiz-adv-x="587" unicode="Ǎ"/><glyph d="M289 827 207 737H172L277 850H303L408 737H373ZM290 645H289L132 209H451ZM22 0 267 678H312L565 0H529L462 179H123L58 0Z" glyph-name="Acircumflex" horiz-adv-x="587" unicode="Â"/><glyph d="M376 775H341V839H376ZM241 775H206V839H241ZM290 645H289L132 209H451ZM22 0 267 678H312L565 0H529L462 179H123L58 0Z" glyph-name="Adieresis" horiz-adv-x="587" unicode="Ä"/><glyph d="M376 775H341V839H376ZM241 775H206V839H241ZM441 924H139V952H441ZM290 645H289L132 209H451ZM22 0 267 678H312L565 0H529L462 179H123L58 0Z" glyph-name="Adieresismacron" horiz-adv-x="587" unicode="Ǟ"/><glyph d="M307 772H272V846H307ZM290 645H289L132 209H451ZM22 0 267 678H312L565 0H529L462 179H123L58 0Z" glyph-name="Adotabove" horiz-adv-x="587" unicode="Ȧ"/><glyph d="M116 846H161L268 737H237ZM202 846H247L354 737H324ZM290 645H289L132 209H451ZM22 0 267 678H312L565 0H529L462 179H123L58 0Z" glyph-name="Adoublegrave" horiz-adv-x="587" unicode="Ȁ"/><glyph d="M149 846H196L303 737H271ZM290 645H289L132 209H451ZM22 0 267 678H312L565 0H529L462 179H123L58 0Z" glyph-name="Agrave" horiz-adv-x="587" unicode="À"/><glyph d="M289 823Q243 823 210 804.5Q177 786 166 744H133Q144 800 186.5 824.5Q229 849 289 849Q349 849 391.5 824.5Q434 800 445 744H412Q401 786 368 804.5Q335 823 289 823ZM290 645H289L132 209H451ZM22 0 267 678H312L565 0H529L462 179H123L58 0Z" glyph-name="Ainvertedbreve" horiz-adv-x="587" unicode="Ȃ"/><glyph d="M441 787H139V815H441ZM290 645H289L132 209H451ZM22 0 267 678H312L565 0H529L462 179H123L58 0Z" glyph-name="Amacron" horiz-adv-x="587" unicode="Ā"/><glyph d="M289 646 57 0H22L267 678H312L565 0H529Z" glyph-name="Anocross" horiz-adv-x="587" unicode=""/><glyph d="M290 645H289L132 209H451ZM22 0 267 678H312L565 0H564Q529 -20 514.5 -44Q500 -68 500 -87Q500 -97 503 -106.5Q506 -116 513.5 -123.5Q521 -131 534 -135.5Q547 -140 567 -140Q580 -140 593 -138.5Q606 -137 621 -132V-157Q609 -162 592 -164Q575 -166 561 -166Q509 -166 489.5 -143.5Q470 -121 470 -89Q470 -65 486 -39.5Q502 -14 528 3L462 179H123L58 0Z" glyph-name="Aogonek" horiz-adv-x="587" unicode="Ą"/><glyph d="M369 812Q369 779 349 762Q329 745 291 745Q253 745 233 762Q213 779 213 812Q213 847 233 864Q253 881 291 881Q329 881 349 864Q369 847 369 812ZM343 812Q343 859 291 859Q239 859 239 812Q239 767 291 767Q343 767 343 812ZM290 645H289L132 209H451ZM22 0 267 678H312L565 0H529L462 179H123L58 0Z" glyph-name="Aring" horiz-adv-x="587" unicode="Å"/><glyph d="M340 801Q340 848 287 848Q263 848 249.5 836Q236 824 236 801Q236 778 249.5 767Q263 756 287 756Q340 756 340 801ZM367 801Q367 768 346 751Q325 734 287 734Q250 734 229.5 751Q209 768 209 801Q209 818 216 831.5Q223 845 235 856L336 957H372L284 870Q320 870 343.5 852.5Q367 835 367 801ZM290 645H289L132 209H451ZM22 0 267 678H312L565 0H529L462 179H123L58 0Z" glyph-name="Aringacute" horiz-adv-x="587" unicode="Ǻ"/><glyph d="M362 781Q342 781 324.5 786Q307 791 289.5 797Q272 803 255 808Q238 813 219 813Q199 813 178.5 803.5Q158 794 139 781V811Q154 822 176.5 831.5Q199 841 219 841Q238 841 256 836Q274 831 291 825Q308 819 325.5 814Q343 809 362 809Q382 809 402.5 818.5Q423 828 441 841V811Q427 800 404 790.5Q381 781 362 781ZM290 645H289L132 209H451ZM22 0 267 678H312L565 0H529L462 179H123L58 0Z" glyph-name="Atilde" horiz-adv-x="587" unicode="Ã"/><glyph d="M471 505Q471 543 461.5 570Q452 597 436 613Q412 637 379 643Q346 649 308 649H132V361H308Q346 361 379 367Q412 373 436 397Q452 413 461.5 440Q471 467 471 505ZM491 186Q491 229 480 251.5Q469 274 450 293Q423 320 385 325.5Q347 331 305 331H132V29H305Q347 29 385 36Q423 43 450 70Q469 89 480 116Q491 143 491 186ZM416 349Q462 335 494 293.5Q526 252 526 188Q526 141 513.5 107Q501 73 479 51Q445 17 397.5 8.5Q350 0 296 0H98V678H304Q355 678 396 669Q437 660 465 632Q484 613 495 581Q506 549 506 506Q506 447 483 408.5Q460 370 416 350Z" glyph-name="B" horiz-adv-x="580" unicode="B"/><glyph d="M64 336Q64 439 81 506.5Q98 574 131 613.5Q164 653 212 669Q260 685 321 685Q353 685 392.5 680.5Q432 676 471 665V635Q431 647 391 651.5Q351 656 323 656Q269 656 227 641.5Q185 627 156.5 591Q128 555 113 493Q98 431 98 336Q98 244 113 184Q128 124 156.5 88Q185 52 227 37.5Q269 23 323 23Q361 23 404 29Q447 35 482 49V19Q446 5 402 -1Q358 -7 321 -7Q259 -7 211 9Q163 25 130.5 64.5Q98 104 81 170Q64 236 64 336Z" glyph-name="C" horiz-adv-x="516" unicode="C"/><glyph d="M307 737H274L382 846H429ZM64 336Q64 439 81 506.5Q98 574 131 613.5Q164 653 212 669Q260 685 321 685Q353 685 392.5 680.5Q432 676 471 665V635Q431 647 391 651.5Q351 656 323 656Q269 656 227 641.5Q185 627 156.5 591Q128 555 113 493Q98 431 98 336Q98 244 113 184Q128 124 156.5 88Q185 52 227 37.5Q269 23 323 23Q361 23 404 29Q447 35 482 49V19Q446 5 402 -1Q358 -7 321 -7Q259 -7 211 9Q163 25 130.5 64.5Q98 104 81 170Q64 236 64 336Z" glyph-name="Cacute" horiz-adv-x="516" unicode="Ć"/><glyph d="M307 756 389 846H424L319 733H293L188 846H223ZM64 336Q64 439 81 506.5Q98 574 131 613.5Q164 653 212 669Q260 685 321 685Q353 685 392.5 680.5Q432 676 471 665V635Q431 647 391 651.5Q351 656 323 656Q269 656 227 641.5Q185 627 156.5 591Q128 555 113 493Q98 431 98 336Q98 244 113 184Q128 124 156.5 88Q185 52 227 37.5Q269 23 323 23Q361 23 404 29Q447 35 482 49V19Q446 5 402 -1Q358 -7 321 -7Q259 -7 211 9Q163 25 130.5 64.5Q98 104 81 170Q64 236 64 336Z" glyph-name="Ccaron" horiz-adv-x="516" unicode="Č"/><glyph d="M290 -6Q235 -3 193 16Q151 35 122.5 75Q94 115 79 179Q64 243 64 336Q64 439 81 506.5Q98 574 131 613.5Q164 653 212 669Q260 685 321 685Q353 685 392.5 680.5Q432 676 471 665V635Q431 647 391 651.5Q351 656 323 656Q269 656 227 641.5Q185 627 156.5 591Q128 555 113 493Q98 431 98 336Q98 244 113 184Q128 124 156.5 88Q185 52 227 37.5Q269 23 323 23Q361 23 404 29Q447 35 482 49V19Q446 5 402 -1Q358 -7 321 -7H320L304 -44Q333 -49 353 -62.5Q373 -76 373 -100Q373 -134 347 -150Q321 -166 273 -166Q263 -166 245 -164Q227 -162 207 -157V-132Q221 -136 240.5 -138Q260 -140 274 -140Q306 -140 324.5 -131Q343 -122 343 -99Q343 -89 336.5 -82Q330 -75 319.5 -71Q309 -67 297 -65Q285 -63 274 -62L271 -48Z" glyph-name="Ccedilla" horiz-adv-x="516" unicode="Ç"/><glyph d="M309 827 227 737H192L297 850H323L428 737H393ZM64 336Q64 439 81 506.5Q98 574 131 613.5Q164 653 212 669Q260 685 321 685Q353 685 392.5 680.5Q432 676 471 665V635Q431 647 391 651.5Q351 656 323 656Q269 656 227 641.5Q185 627 156.5 591Q128 555 113 493Q98 431 98 336Q98 244 113 184Q128 124 156.5 88Q185 52 227 37.5Q269 23 323 23Q361 23 404 29Q447 35 482 49V19Q446 5 402 -1Q358 -7 321 -7Q259 -7 211 9Q163 25 130.5 64.5Q98 104 81 170Q64 236 64 336Z" glyph-name="Ccircumflex" horiz-adv-x="516" unicode="Ĉ"/><glyph d="M318 772H283V846H318ZM64 336Q64 439 81 506.5Q98 574 131 613.5Q164 653 212 669Q260 685 321 685Q353 685 392.5 680.5Q432 676 471 665V635Q431 647 391 651.5Q351 656 323 656Q269 656 227 641.5Q185 627 156.5 591Q128 555 113 493Q98 431 98 336Q98 244 113 184Q128 124 156.5 88Q185 52 227 37.5Q269 23 323 23Q361 23 404 29Q447 35 482 49V19Q446 5 402 -1Q358 -7 321 -7Q259 -7 211 9Q163 25 130.5 64.5Q98 104 81 170Q64 236 64 336Z" glyph-name="Cdotaccent" horiz-adv-x="516" unicode="Ċ"/><glyph d="M67 357H383V330H67Z" glyph-name="Crossbar" horiz-adv-x="448" unicode=""/><glyph d="M522 333H120V363H522Z" glyph-name="Crossbar.cap" horiz-adv-x="638" unicode=""/><glyph d="M96 327H415V300H96Z" glyph-name="Crossbar.small" horiz-adv-x="448" unicode=""/><glyph d="M572 339Q572 239 552 172Q532 105 491 64Q456 29 413 14.5Q370 0 309 0H98V678H309Q370 678 413 664Q456 650 491 615Q531 575 551.5 507Q572 439 572 339ZM537 339Q537 432 518 496Q499 560 465 594Q433 626 396.5 637.5Q360 649 308 649H132V29H308Q360 29 396.5 40.5Q433 52 465 84Q500 119 518.5 182.5Q537 246 537 339Z" glyph-name="D" horiz-adv-x="636" unicode="D"/><glyph d="M572 339Q572 239 552 172Q532 105 491 64Q456 29 413 14.5Q370 0 309 0H98V678H309Q370 678 413 664Q456 650 491 615Q531 575 551.5 507Q572 439 572 339ZM537 339Q537 432 518 496Q499 560 465 594Q433 626 396.5 637.5Q360 649 308 649H132V29H308Q360 29 396.5 40.5Q433 52 465 84Q500 119 518.5 182.5Q537 246 537 339ZM306 755 388 845H423L318 732H292L187 845H222Z" glyph-name="Dcaron" horiz-adv-x="636" unicode="Ď"/><glyph d="M291 -46Q379 -51 379 -104Q379 -137 353 -151.5Q327 -166 280 -166Q270 -166 251.5 -164Q233 -162 214 -157V-132Q228 -136 247.5 -138Q267 -140 281 -140Q312 -140 330.5 -133Q349 -126 349 -103Q349 -93 343 -86.5Q337 -80 327 -76Q317 -72 304.5 -70.5Q292 -69 279 -68ZM572 339Q572 239 552 172Q532 105 491 64Q456 29 413 14.5Q370 0 309 0H98V678H309Q370 678 413 664Q456 650 491 615Q531 575 551.5 507Q572 439 572 339ZM537 339Q537 432 518 496Q499 560 465 594Q433 626 396.5 637.5Q360 649 308 649H132V29H308Q360 29 396.5 40.5Q433 52 465 84Q500 119 518.5 182.5Q537 246 537 339Z" glyph-name="Dcedilla" horiz-adv-x="636" unicode="Ḑ"/><glyph d="M563 339Q563 432 544 496Q525 560 491 594Q459 626 422.5 637.5Q386 649 334 649H158V361H366V331H158V29H334Q386 29 422.5 40.5Q459 52 491 84Q526 119 544.5 182.5Q563 246 563 339ZM598 339Q598 239 578 172Q558 105 517 64Q482 29 439 14.5Q396 0 335 0H124V331H24V361H124V678H335Q396 678 439 664Q482 650 517 615Q557 575 577.5 507Q598 439 598 339Z" glyph-name="Dcroat" horiz-adv-x="663" unicode="Đ"/><glyph d="M324 -167H290V-103H324ZM572 339Q572 239 552 172Q532 105 491 64Q456 29 413 14.5Q370 0 309 0H98V678H309Q370 678 413 664Q456 650 491 615Q531 575 551.5 507Q572 439 572 339ZM537 339Q537 432 518 496Q499 560 465 594Q433 626 396.5 637.5Q360 649 308 649H132V29H308Q360 29 396.5 40.5Q433 52 465 84Q500 119 518.5 182.5Q537 246 537 339Z" glyph-name="Ddotbelow" horiz-adv-x="636" unicode="Ḍ"/><glyph d="M618 28Q629 28 644.5 28Q660 28 683 27V28L423 580Q416 594 407.5 614.5Q399 635 391 652H389Q381 635 372.5 614.5Q364 594 357 580L97 28V27Q120 28 135.5 28Q151 28 162 28ZM722 20 721 0H59L58 20L370 680H410Z" glyph-name="Delta" horiz-adv-x="780" unicode="∆"/><glyph d="M478 0H98V678H471V649H132V361H427V331H132V29H478Z" glyph-name="E" horiz-adv-x="517" unicode="E"/><glyph d="M286 737H253L361 846H408ZM478 0H98V678H471V649H132V361H427V331H132V29H478Z" glyph-name="Eacute" horiz-adv-x="517" unicode="É"/><glyph d="M307 -167H273V-103H307ZM286 737H253L361 846H408ZM478 0H98V678H471V649H132V361H427V331H132V29H478Z" glyph-name="Eacutedotbelow" horiz-adv-x="517" unicode=""/><glyph d="M285 767Q331 767 364 785.5Q397 804 408 846H441Q430 790 387.5 765.5Q345 741 285 741Q225 741 182.5 765.5Q140 790 129 846H162Q173 804 206 785.5Q239 767 285 767ZM478 0H98V678H471V649H132V361H427V331H132V29H478Z" glyph-name="Ebreve" horiz-adv-x="517" unicode="Ĕ"/><glyph d="M287 756 369 846H404L299 733H273L168 846H203ZM478 0H98V678H471V649H132V361H427V331H132V29H478Z" glyph-name="Ecaron" horiz-adv-x="517" unicode="Ě"/><glyph d="M287 827 205 737H170L275 850H301L406 737H371ZM478 0H98V678H471V649H132V361H427V331H132V29H478Z" glyph-name="Ecircumflex" horiz-adv-x="517" unicode="Ê"/><glyph d="M374 775H339V839H374ZM239 775H204V839H239ZM478 0H98V678H471V649H132V361H427V331H132V29H478Z" glyph-name="Edieresis" horiz-adv-x="517" unicode="Ë"/><glyph d="M305 772H270V846H305ZM478 0H98V678H471V649H132V361H427V331H132V29H478Z" glyph-name="Edotaccent" horiz-adv-x="517" unicode="Ė"/><glyph d="M127 846H172L279 737H248ZM213 846H258L365 737H335ZM478 0H98V678H471V649H132V361H427V331H132V29H478Z" glyph-name="Edoublegrave" horiz-adv-x="517" unicode="Ȅ"/><glyph d="M179 846H226L333 737H301ZM478 0H98V678H471V649H132V361H427V331H132V29H478Z" glyph-name="Egrave" horiz-adv-x="517" unicode="È"/><glyph d="M307 -167H273V-103H307ZM179 846H226L333 737H301ZM478 0H98V678H471V649H132V361H427V331H132V29H478Z" glyph-name="Egravedotbelow" horiz-adv-x="517" unicode=""/><glyph d="M287 823Q241 823 208 804.5Q175 786 164 744H131Q142 800 184.5 824.5Q227 849 287 849Q347 849 389.5 824.5Q432 800 443 744H410Q399 786 366 804.5Q333 823 287 823ZM478 0H98V678H471V649H132V361H427V331H132V29H478Z" glyph-name="Einvertedbreve" horiz-adv-x="517" unicode="Ȇ"/><glyph d="M436 787H134V815H436ZM478 0H98V678H471V649H132V361H427V331H132V29H478Z" glyph-name="Emacron" horiz-adv-x="517" unicode="Ē"/><glyph d="M458 -168Q487 -123 505 -81Q523 -39 532 8L134 622H132V0H98V678H136L426 232Q456 186 485 141Q514 96 538 57Q541 77 541.5 100Q542 123 542 146V678H575V131Q575 86 571 46.5Q567 7 557.5 -29Q548 -65 533 -99.5Q518 -134 496 -168Z" glyph-name="Eng" horiz-adv-x="673" unicode="Ŋ"/><glyph d="M478 0Q443 -20 428.5 -44Q414 -68 414 -87Q414 -97 417 -106.5Q420 -116 427.5 -123.5Q435 -131 448 -135.5Q461 -140 481 -140Q494 -140 507 -138.5Q520 -137 535 -132V-157Q523 -162 506 -164Q489 -166 475 -166Q423 -166 403.5 -143.5Q384 -121 384 -89Q384 -66 398.5 -41.5Q413 -17 437 0H98V678H471V649H132V361H427V331H132V29H478Z" glyph-name="Eogonek" horiz-adv-x="517" unicode="Ę"/><glyph d="M563 339Q563 432 544 496Q525 560 491 594Q459 626 422.5 637.5Q386 649 334 649H158V360H366V331H158V29H334Q386 29 422.5 40.5Q459 52 491 84Q526 119 544.5 182.5Q563 246 563 339ZM598 339Q598 239 578 172Q558 105 517 64Q482 29 439 14.5Q396 0 335 0H124V331H24V360H124V678H335Q396 678 439 664Q482 650 517 615Q557 575 577.5 507Q598 439 598 339Z" glyph-name="Eth" horiz-adv-x="663" unicode="Ð"/><glyph d="M344 315H115Q114 305 114 299.5Q114 294 114 284V254H320L308 227H116Q120 169 133.5 129.5Q147 90 169.5 65.5Q192 41 224 30.5Q256 20 297 20Q329 20 364.5 28Q400 36 431 51V21Q399 6 363.5 -0.5Q328 -7 296 -7Q247 -7 209 5Q171 17 144 44.5Q117 72 101.5 116.5Q86 161 82 227H7L18 254H81V284Q81 294 81 299.5Q81 305 82 315H11L23 342H83Q89 404 105 447Q121 490 148 516.5Q175 543 212 555Q249 567 296 567Q322 567 354.5 562.5Q387 558 419 544V514Q387 530 353.5 534.5Q320 539 297 539Q257 539 226 529Q195 519 172.5 495.5Q150 472 136 434.5Q122 397 117 342H355Z" glyph-name="Euro" horiz-adv-x="434" unicode="€"/><glyph d="M441 374H194V314H416L405 287H194Q198 211 213 160Q228 109 253.5 78.5Q279 48 315 35Q351 22 396 22Q431 22 470 30Q509 38 541 54V22Q507 7 467.5 0.5Q428 -6 393 -6Q340 -6 298.5 8.5Q257 23 227.5 57Q198 91 181 147Q164 203 161 287H85L96 314H159V374H90L101 401H161Q166 482 184 536.5Q202 591 231.5 624Q261 657 301.5 671Q342 685 393 685Q422 685 458 680.5Q494 676 529 662V631Q494 647 457.5 651.5Q421 656 396 656Q352 656 317 643.5Q282 631 256.5 602Q231 573 215.5 523.5Q200 474 195 401H452Z" glyph-name="Euro.LP" horiz-adv-x="660" unicode=""/><glyph d="M132 0H98V678H477V648H132V361H428V331H132Z" glyph-name="F" horiz-adv-x="493" unicode="F"/><glyph d="M309 361H548V44Q497 17 446 5Q395 -7 335 -7Q272 -7 222 9Q172 25 137 64Q102 103 83 169Q64 235 64 336Q64 441 82.5 509Q101 577 136.5 616Q172 655 224 670Q276 685 342 685Q373 685 421 681.5Q469 678 514 665V635Q471 647 425 651.5Q379 656 344 656Q283 656 237 642.5Q191 629 160 593.5Q129 558 113.5 495.5Q98 433 98 336Q98 243 115 182.5Q132 122 163 86.5Q194 51 237.5 36.5Q281 22 334 22Q376 22 420.5 29Q465 36 514 61V331H309Z" glyph-name="G" horiz-adv-x="634" unicode="G"/><glyph d="M335 737H302L410 846H457ZM309 361H548V44Q497 17 446 5Q395 -7 335 -7Q272 -7 222 9Q172 25 137 64Q102 103 83 169Q64 235 64 336Q64 441 82.5 509Q101 577 136.5 616Q172 655 224 670Q276 685 342 685Q373 685 421 681.5Q469 678 514 665V635Q471 647 425 651.5Q379 656 344 656Q283 656 237 642.5Q191 629 160 593.5Q129 558 113.5 495.5Q98 433 98 336Q98 243 115 182.5Q132 122 163 86.5Q194 51 237.5 36.5Q281 22 334 22Q376 22 420.5 29Q465 36 514 61V331H309Z" glyph-name="Gacute" horiz-adv-x="634" unicode="Ǵ"/><glyph d="M322 767Q368 767 401 785.5Q434 804 445 846H478Q467 790 424.5 765.5Q382 741 322 741Q262 741 219.5 765.5Q177 790 166 846H199Q210 804 243 785.5Q276 767 322 767ZM309 361H548V44Q497 17 446 5Q395 -7 335 -7Q272 -7 222 9Q172 25 137 64Q102 103 83 169Q64 235 64 336Q64 441 82.5 509Q101 577 136.5 616Q172 655 224 670Q276 685 342 685Q373 685 421 681.5Q469 678 514 665V635Q471 647 425 651.5Q379 656 344 656Q283 656 237 642.5Q191 629 160 593.5Q129 558 113.5 495.5Q98 433 98 336Q98 243 115 182.5Q132 122 163 86.5Q194 51 237.5 36.5Q281 22 334 22Q376 22 420.5 29Q465 36 514 61V331H309Z" glyph-name="Gbreve" horiz-adv-x="634" unicode="Ğ"/><glyph d="M324 756 406 846H441L336 733H310L205 846H240ZM309 361H548V44Q497 17 446 5Q395 -7 335 -7Q272 -7 222 9Q172 25 137 64Q102 103 83 169Q64 235 64 336Q64 441 82.5 509Q101 577 136.5 616Q172 655 224 670Q276 685 342 685Q373 685 421 681.5Q469 678 514 665V635Q471 647 425 651.5Q379 656 344 656Q283 656 237 642.5Q191 629 160 593.5Q129 558 113.5 495.5Q98 433 98 336Q98 243 115 182.5Q132 122 163 86.5Q194 51 237.5 36.5Q281 22 334 22Q376 22 420.5 29Q465 36 514 61V331H309Z" glyph-name="Gcaron" horiz-adv-x="634" unicode="Ǧ"/><glyph d="M319 827 237 737H202L307 850H333L438 737H403ZM309 361H548V44Q497 17 446 5Q395 -7 335 -7Q272 -7 222 9Q172 25 137 64Q102 103 83 169Q64 235 64 336Q64 441 82.5 509Q101 577 136.5 616Q172 655 224 670Q276 685 342 685Q373 685 421 681.5Q469 678 514 665V635Q471 647 425 651.5Q379 656 344 656Q283 656 237 642.5Q191 629 160 593.5Q129 558 113.5 495.5Q98 433 98 336Q98 243 115 182.5Q132 122 163 86.5Q194 51 237.5 36.5Q281 22 334 22Q376 22 420.5 29Q465 36 514 61V331H309Z" glyph-name="Gcircumflex" horiz-adv-x="634" unicode="Ĝ"/><glyph d="M318 -78H356L302 -233H279ZM309 361H548V44Q497 17 446 5Q395 -7 335 -7Q272 -7 222 9Q172 25 137 64Q102 103 83 169Q64 235 64 336Q64 441 82.5 509Q101 577 136.5 616Q172 655 224 670Q276 685 342 685Q373 685 421 681.5Q469 678 514 665V635Q471 647 425 651.5Q379 656 344 656Q283 656 237 642.5Q191 629 160 593.5Q129 558 113.5 495.5Q98 433 98 336Q98 243 115 182.5Q132 122 163 86.5Q194 51 237.5 36.5Q281 22 334 22Q376 22 420.5 29Q465 36 514 61V331H309Z" glyph-name="Gcommaaccent" horiz-adv-x="634" unicode="Ģ"/><glyph d="M609 568H570L625 723H647ZM309 361H548V44Q497 17 446 5Q395 -7 335 -7Q272 -7 222 9Q172 25 137 64Q102 103 83 169Q64 235 64 336Q64 441 82.5 509Q101 577 136.5 616Q172 655 224 670Q276 685 342 685Q373 685 421 681.5Q469 678 514 665V635Q471 647 425 651.5Q379 656 344 656Q283 656 237 642.5Q191 629 160 593.5Q129 558 113.5 495.5Q98 433 98 336Q98 243 115 182.5Q132 122 163 86.5Q194 51 237.5 36.5Q281 22 334 22Q376 22 420.5 29Q465 36 514 61V331H309Z" glyph-name="Gcommaturnedabove" horiz-adv-x="634" unicode=""/><glyph d="M338 772H303V846H338ZM309 361H548V44Q497 17 446 5Q395 -7 335 -7Q272 -7 222 9Q172 25 137 64Q102 103 83 169Q64 235 64 336Q64 441 82.5 509Q101 577 136.5 616Q172 655 224 670Q276 685 342 685Q373 685 421 681.5Q469 678 514 665V635Q471 647 425 651.5Q379 656 344 656Q283 656 237 642.5Q191 629 160 593.5Q129 558 113.5 495.5Q98 433 98 336Q98 243 115 182.5Q132 122 163 86.5Q194 51 237.5 36.5Q281 22 334 22Q376 22 420.5 29Q465 36 514 61V331H309Z" glyph-name="Gdotaccent" horiz-adv-x="634" unicode="Ġ"/><glyph d="M309 361H548V207H648V178H548V44Q497 17 446 5Q395 -7 335 -7Q272 -7 222 9Q172 25 137 64Q102 103 83 169Q64 235 64 336Q64 441 82.5 509Q101 577 136.5 616Q172 655 224 670Q276 685 342 685Q373 685 421 681.5Q469 678 514 665V635Q471 647 425 651.5Q379 656 344 656Q283 656 237 642.5Q191 629 160 593.5Q129 558 113.5 495.5Q98 433 98 336Q98 243 115 182.5Q132 122 163 86.5Q194 51 237.5 36.5Q281 22 334 22Q376 22 420.5 29Q465 36 514 61V178H295V207H514V331H309Z" glyph-name="Gstroke" horiz-adv-x="634" unicode="Ǥ"/><glyph d="M392 781Q372 781 354.5 786Q337 791 319.5 797Q302 803 285 808Q268 813 249 813Q229 813 208.5 803.5Q188 794 169 781V811Q184 822 206.5 831.5Q229 841 249 841Q268 841 286 836Q304 831 321 825Q338 819 355.5 814Q373 809 392 809Q412 809 432.5 818.5Q453 828 471 841V811Q457 800 434 790.5Q411 781 392 781ZM309 361H548V44Q497 17 446 5Q395 -7 335 -7Q272 -7 222 9Q172 25 137 64Q102 103 83 169Q64 235 64 336Q64 441 82.5 509Q101 577 136.5 616Q172 655 224 670Q276 685 342 685Q373 685 421 681.5Q469 678 514 665V635Q471 647 425 651.5Q379 656 344 656Q283 656 237 642.5Q191 629 160 593.5Q129 558 113.5 495.5Q98 433 98 336Q98 243 115 182.5Q132 122 163 86.5Q194 51 237.5 36.5Q281 22 334 22Q376 22 420.5 29Q465 36 514 61V331H309Z" glyph-name="Gtilde" horiz-adv-x="634" unicode=""/><glyph d="M561 0H527V331H132V0H98V678H132V361H527V678H561Z" glyph-name="H" horiz-adv-x="659" unicode="H"/><glyph d="M527 361V481H132V361ZM561 0H527V331H132V0H98V678H132V511H527V678H561Z" glyph-name="Hbar" horiz-adv-x="659" unicode="Ħ"/><glyph d="M328 756 410 846H445L340 733H314L209 846H244ZM561 0H527V331H132V0H98V678H132V361H527V678H561Z" glyph-name="Hcaron" horiz-adv-x="659" unicode="Ȟ"/><glyph d="M329 827 247 737H212L317 850H343L448 737H413ZM561 0H527V331H132V0H98V678H132V361H527V678H561Z" glyph-name="Hcircumflex" horiz-adv-x="659" unicode="Ĥ"/><glyph d="M346 -167H312V-103H346ZM561 0H527V331H132V0H98V678H132V361H527V678H561Z" glyph-name="Hdotbelow" horiz-adv-x="659" unicode="Ḥ"/><glyph d="M483 -134H181V-106H483ZM561 0H527V331H132V0H98V678H132V361H527V678H561Z" glyph-name="Hmacronbelow" horiz-adv-x="659" unicode=""/><glyph d="M132 0H98V678H132Z" glyph-name="I" horiz-adv-x="230" unicode="I"/><glyph d="M247 -118Q270 -84 286 -50Q302 -16 311.5 20Q321 56 325.5 95.5Q330 135 330 180V678H364V184Q364 138 360 98Q356 58 346 21.5Q336 -15 320.5 -49.5Q305 -84 283 -118ZM132 0H98V678H132Z" glyph-name="IJ" horiz-adv-x="462" unicode="Ĳ"/><glyph d="M133 737H100L208 846H255ZM132 0H98V678H132Z" glyph-name="Iacute" horiz-adv-x="230" unicode="Í"/><glyph d="M115 767Q161 767 194 785.5Q227 804 238 846H271Q260 790 217.5 765.5Q175 741 115 741Q55 741 12.5 765.5Q-30 790 -41 846H-8Q3 804 36 785.5Q69 767 115 767ZM132 0H98V678H132Z" glyph-name="Ibreve" horiz-adv-x="230" unicode="Ĭ"/><glyph d="M133 0H99V678H133ZM116 756 198 846H233L128 733H102L-3 846H32Z" glyph-name="Icaron" horiz-adv-x="230" unicode="Ǐ"/><glyph d="M114 827 32 737H-3L102 850H128L233 737H198ZM132 0H98V678H132Z" glyph-name="Icircumflex" horiz-adv-x="230" unicode="Î"/><glyph d="M200 775H165V839H200ZM65 775H30V839H65ZM132 0H98V678H132Z" glyph-name="Idieresis" horiz-adv-x="230" unicode="Ï"/><glyph d="M132 772H97V846H132ZM132 0H98V678H132Z" glyph-name="Idotaccent" horiz-adv-x="230" unicode="İ"/><glyph d="M132 -167H98V-103H132ZM132 0H98V678H132Z" glyph-name="Idotbelow" horiz-adv-x="230" unicode="Ị"/><glyph d="M-62 846H-17L90 737H59ZM24 846H69L176 737H146ZM132 0H98V678H132Z" glyph-name="Idoublegrave" horiz-adv-x="230" unicode="Ȉ"/><glyph d="M-24 846H23L130 737H98ZM132 0H98V678H132Z" glyph-name="Igrave" horiz-adv-x="230" unicode="Ì"/><glyph d="M115 823Q69 823 36 804.5Q3 786 -8 744H-41Q-30 800 12.5 824.5Q55 849 115 849Q175 849 217.5 824.5Q260 800 271 744H238Q227 786 194 804.5Q161 823 115 823ZM133 0H99V678H133Z" glyph-name="Iinvertedbreve" horiz-adv-x="230" unicode="Ȋ"/><glyph d="M266 787H-36V815H266ZM132 0H98V678H132Z" glyph-name="Imacron" horiz-adv-x="230" unicode="Ī"/><glyph d="M135 0Q100 -20 85.5 -44Q71 -68 71 -87Q71 -97 74 -106.5Q77 -116 84.5 -123.5Q92 -131 105 -135.5Q118 -140 138 -140Q151 -140 164 -138.5Q177 -137 192 -132V-157Q180 -162 163 -164Q146 -166 132 -166Q80 -166 60.5 -143.5Q41 -121 41 -89Q41 -64 57.5 -38.5Q74 -13 101 4V678H135Z" glyph-name="Iogonek" horiz-adv-x="230" unicode="Į"/><glyph d="M187 781Q167 781 149.5 786Q132 791 114.5 797Q97 803 80 808Q63 813 44 813Q24 813 3.5 803.5Q-17 794 -36 781V811Q-21 822 1.5 831.5Q24 841 44 841Q63 841 81 836Q99 831 116 825Q133 819 150.5 814Q168 809 187 809Q207 809 227.5 818.5Q248 828 266 841V811Q252 800 229 790.5Q206 781 187 781ZM133 0H99V678H133Z" glyph-name="Itilde" horiz-adv-x="230" unicode="Ĩ"/><glyph d="M17 -118Q40 -84 56 -50Q72 -16 81.5 20Q91 56 95.5 95.5Q100 135 100 180V678H134V184Q134 138 130 98Q126 58 116 21.5Q106 -15 90.5 -49.5Q75 -84 53 -118Z" glyph-name="J" horiz-adv-x="232" unicode="J"/><glyph d="M119 756 201 846H236L131 733H105L0 846H35ZM18 -118Q41 -84 57 -50Q73 -16 82.5 20Q92 56 96.5 95.5Q101 135 101 180V678H135V184Q135 138 131 98Q127 58 117 21.5Q107 -15 91.5 -49.5Q76 -84 54 -118Z" glyph-name="Jcaron" horiz-adv-x="232" unicode=""/><glyph d="M117 827 35 737H0L105 850H131L236 737H201ZM17 -118Q40 -84 56 -50Q72 -16 81.5 20Q91 56 95.5 95.5Q100 135 100 180V678H134V184Q134 138 130 98Q126 58 116 21.5Q106 -15 90.5 -49.5Q75 -84 53 -118Z" glyph-name="Jcircumflex" horiz-adv-x="232" unicode="Ĵ"/><glyph d="M538 0H497L262 331H132V0H98V678H132V361H264L465 678H503L293 347Z" glyph-name="K" horiz-adv-x="545" unicode="K"/><glyph d="M261 756 343 846H378L273 733H247L142 846H177ZM538 0H497L262 331H132V0H98V678H132V361H264L465 678H503L293 347Z" glyph-name="Kcaron" horiz-adv-x="547" unicode="Ǩ"/><glyph d="M274 -46Q362 -51 362 -104Q362 -137 336 -151.5Q310 -166 263 -166Q253 -166 234.5 -164Q216 -162 197 -157V-132Q211 -136 230.5 -138Q250 -140 264 -140Q295 -140 313.5 -133Q332 -126 332 -103Q332 -93 326 -86.5Q320 -80 310 -76Q300 -72 287.5 -70.5Q275 -69 262 -68ZM538 0H497L262 331H132V0H98V678H132V361H264L465 678H503L293 347Z" glyph-name="Kcedilla" horiz-adv-x="547" unicode=""/><glyph d="M278 -78H316L262 -233H239ZM538 0H497L262 331H132V0H98V678H132V361H264L465 678H503L293 347Z" glyph-name="Kcommaaccent" horiz-adv-x="547" unicode="Ķ"/><glyph d="M538 0H497L262 331H132V0H98V678H132V361H264L465 678H503L293 347Z" glyph-name="Kgreenlandic" horiz-adv-x="547" unicode=""/><glyph d="M559 651Q551 653 541 654Q531 655 521 655Q497 655 476.5 645Q456 635 439 618Q414 593 393.5 557Q373 521 355 483.5Q337 446 319.5 412.5Q302 379 283 359L538 0H497L262 331H131V0H97V678H131V360H240Q244 362 246 364Q248 366 251 369Q272 390 291 425.5Q310 461 329 500Q348 539 368 575.5Q388 612 412 636Q435 659 462 671.5Q489 684 520 684Q532 684 541.5 682.5Q551 681 559 679Z" glyph-name="Khook" horiz-adv-x="547" unicode="Ƙ"/><glyph d="M470 0H98V678H132V29H470Z" glyph-name="L" horiz-adv-x="473" unicode="L"/><glyph d="M133 725H100L208 834H255ZM470 0H98V678H132V29H470Z" glyph-name="Lacute" horiz-adv-x="473" unicode="Ĺ"/><glyph d="M426 678H464L410 523H387ZM470 0H98V678H132V29H470Z" glyph-name="Lcaron" horiz-adv-x="493" unicode="Ľ"/><glyph d="M267 -46Q355 -51 355 -104Q355 -137 329 -151.5Q303 -166 256 -166Q246 -166 227.5 -164Q209 -162 190 -157V-132Q204 -136 223.5 -138Q243 -140 257 -140Q288 -140 306.5 -133Q325 -126 325 -103Q325 -93 319 -86.5Q313 -80 303 -76Q293 -72 280.5 -70.5Q268 -69 255 -68ZM470 0H98V678H132V29H470Z" glyph-name="Lcedilla" horiz-adv-x="473" unicode=""/><glyph d="M278 -78H316L262 -233H239ZM470 0H98V678H132V29H470Z" glyph-name="Lcommaaccent" horiz-adv-x="473" unicode="Ļ"/><glyph d="M447 313H413V377H447ZM470 0H98V678H132V29H470Z" glyph-name="Ldot" horiz-adv-x="503" unicode="Ŀ"/><glyph d="M306 -167H272V-103H306ZM470 0H98V678H132V29H470Z" glyph-name="Ldotbelow" horiz-adv-x="473" unicode="Ḷ"/><glyph d="M306 -167H272V-103H306ZM267 787H-35V815H267ZM470 0H98V678H132V29H470Z" glyph-name="Ldotbelowmacron" horiz-adv-x="473" unicode="Ḹ"/><glyph d="M152 276V29H490V0H118V255L4 182V213L118 286V678H152V307L358 439V408Z" glyph-name="Lslash" horiz-adv-x="493" unicode="Ł"/><glyph d="M400 195H401L654 678H704V0H670V638H668L418 159H384L133 638H132V0H98V678H146Z" glyph-name="M" horiz-adv-x="802" unicode="M"/><glyph d="M398 -46Q486 -51 486 -104Q486 -137 460 -151.5Q434 -166 387 -166Q377 -166 358.5 -164Q340 -162 321 -157V-132Q335 -136 354.5 -138Q374 -140 388 -140Q419 -140 437.5 -133Q456 -126 456 -103Q456 -93 450 -86.5Q444 -80 434 -76Q424 -72 411.5 -70.5Q399 -69 386 -68ZM400 195H401L654 678H704V0H670V638H668L418 159H384L133 638H132V0H98V678H146Z" glyph-name="Mcedilla" horiz-adv-x="802" unicode=""/><glyph d="M418 -167H384V-103H418ZM400 195H401L654 678H704V0H670V638H668L418 159H384L133 638H132V0H98V678H146Z" glyph-name="Mdotbelow" horiz-adv-x="802" unicode="Ṃ"/><glyph d="M552 787H250V815H552ZM400 195H401L654 678H704V0H670V638H668L418 159H384L133 638H132V0H98V678H146Z" glyph-name="Mmacron" horiz-adv-x="802" unicode=""/><glyph d="M575 0H538L132 622H131L132 0H98V678H136L541 55H542V678H575Z" glyph-name="N" horiz-adv-x="673" unicode="N"/><glyph d="M349 737H316L424 846H471ZM575 0H538L132 622H131L132 0H98V678H136L541 55H542V678H575Z" glyph-name="Nacute" horiz-adv-x="673" unicode="Ń"/><glyph d="M337 756 419 846H454L349 733H323L218 846H253ZM575 0H538L132 622H131L132 0H98V678H136L541 55H542V678H575Z" glyph-name="Ncaron" horiz-adv-x="673" unicode="Ň"/><glyph d="M323 -46Q411 -51 411 -104Q411 -137 385 -151.5Q359 -166 312 -166Q302 -166 283.5 -164Q265 -162 246 -157V-132Q260 -136 279.5 -138Q299 -140 313 -140Q344 -140 362.5 -133Q381 -126 381 -103Q381 -93 375 -86.5Q369 -80 359 -76Q349 -72 336.5 -70.5Q324 -69 311 -68ZM575 0H538L132 622H131L132 0H98V678H136L541 55H542V678H575Z" glyph-name="Ncedilla" horiz-adv-x="673" unicode=""/><glyph d="M326 -78H364L310 -233H287ZM575 0H538L132 622H131L132 0H98V678H136L541 55H542V678H575Z" glyph-name="Ncommaaccent" horiz-adv-x="673" unicode="Ņ"/><glyph d="M575 29H610V-118H578V0H538L132 622H131L132 0H98V678H136L541 55H542V678H575Z" glyph-name="Ndescender" horiz-adv-x="673" unicode=""/><glyph d="M422 775H387V839H422ZM287 775H252V839H287ZM575 0H538L132 622H131L132 0H98V678H136L541 55H542V678H575Z" glyph-name="Ndieresis" horiz-adv-x="673" unicode=""/><glyph d="M354 772H319V846H354ZM575 0H538L132 622H131L132 0H98V678H136L541 55H542V678H575Z" glyph-name="Ndotaccent" horiz-adv-x="673" unicode="Ṅ"/><glyph d="M354 -167H320V-103H354ZM575 0H538L132 622H131L132 0H98V678H136L541 55H542V678H575Z" glyph-name="Ndotbelow" horiz-adv-x="673" unicode="Ṇ"/><glyph d="M224 846H271L378 737H346ZM575 0H538L132 622H131L132 0H98V678H136L541 55H542V678H575Z" glyph-name="Ngrave" horiz-adv-x="673" unicode="Ǹ"/><glyph d="M488 787H186V815H488ZM575 0H538L132 622H131L132 0H98V678H136L541 55H542V678H575Z" glyph-name="Nmacron" horiz-adv-x="673" unicode=""/><glyph d="M408 781Q388 781 370.5 786Q353 791 335.5 797Q318 803 301 808Q284 813 265 813Q245 813 224.5 803.5Q204 794 185 781V811Q200 822 222.5 831.5Q245 841 265 841Q284 841 302 836Q320 831 337 825Q354 819 371.5 814Q389 809 408 809Q428 809 448.5 818.5Q469 828 487 841V811Q473 800 450 790.5Q427 781 408 781ZM575 0H538L132 622H131L132 0H98V678H136L541 55H542V678H575Z" glyph-name="Ntilde" horiz-adv-x="673" unicode="Ñ"/><glyph d="M98 341Q98 268 108 209Q118 150 143.5 108.5Q169 67 214 44.5Q259 22 328 22Q397 22 441 45.5Q485 69 510.5 111Q536 153 545.5 211.5Q555 270 555 341Q555 411 545.5 469Q536 527 510.5 568.5Q485 610 441 633Q397 656 328 656Q260 656 215.5 634Q171 612 145 571Q119 530 108.5 471.5Q98 413 98 341ZM590 341Q590 264 579 200.5Q568 137 538.5 90.5Q509 44 458 18.5Q407 -7 328 -7Q248 -7 197 17.5Q146 42 116.5 87.5Q87 133 75.5 197.5Q64 262 64 341Q64 419 75.5 482.5Q87 546 117 591Q147 636 198 660.5Q249 685 328 685Q407 685 458 659.5Q509 634 538.5 588.5Q568 543 579 480Q590 417 590 341Z" glyph-name="O" horiz-adv-x="654" unicode="O"/><glyph d="M99 340Q99 267 109 208.5Q119 150 144.5 108.5Q170 67 214.5 44.5Q259 22 329 22Q398 22 442 45Q486 68 511.5 110Q537 152 546.5 210.5Q556 269 556 340Q556 410 546.5 468Q537 526 511.5 567.5Q486 609 442 632Q398 655 329 655Q261 655 216.5 633Q172 611 146 570Q120 529 109.5 470.5Q99 412 99 340ZM64 340Q64 419 76 482.5Q88 546 118 591Q148 636 199 660Q250 684 329 684Q378 684 415.5 675Q453 666 480 648Q507 630 525.5 604Q544 578 556 544H557V678H930V649H591V361H886V331H591V29H937V0H557V139H556Q544 104 525.5 77Q507 50 480 31.5Q453 13 415.5 3.5Q378 -6 329 -6Q249 -6 197.5 18.5Q146 43 116.5 88Q87 133 75.5 197Q64 261 64 340Z" glyph-name="OE" horiz-adv-x="976" unicode="Œ"/><glyph d="M340 737H307L415 846H462ZM98 341Q98 268 108 209Q118 150 143.5 108.5Q169 67 214 44.5Q259 22 328 22Q397 22 441 45.5Q485 69 510.5 111Q536 153 545.5 211.5Q555 270 555 341Q555 411 545.5 469Q536 527 510.5 568.5Q485 610 441 633Q397 656 328 656Q260 656 215.5 634Q171 612 145 571Q119 530 108.5 471.5Q98 413 98 341ZM590 341Q590 264 579 200.5Q568 137 538.5 90.5Q509 44 458 18.5Q407 -7 328 -7Q248 -7 197 17.5Q146 42 116.5 87.5Q87 133 75.5 197.5Q64 262 64 341Q64 419 75.5 482.5Q87 546 117 591Q147 636 198 660.5Q249 685 328 685Q407 685 458 659.5Q509 634 538.5 588.5Q568 543 579 480Q590 417 590 341Z" glyph-name="Oacute" horiz-adv-x="654" unicode="Ó"/><glyph d="M326 767Q372 767 405 785.5Q438 804 449 846H482Q471 790 428.5 765.5Q386 741 326 741Q266 741 223.5 765.5Q181 790 170 846H203Q214 804 247 785.5Q280 767 326 767ZM98 341Q98 268 108 209Q118 150 143.5 108.5Q169 67 214 44.5Q259 22 328 22Q397 22 441 45.5Q485 69 510.5 111Q536 153 545.5 211.5Q555 270 555 341Q555 411 545.5 469Q536 527 510.5 568.5Q485 610 441 633Q397 656 328 656Q260 656 215.5 634Q171 612 145 571Q119 530 108.5 471.5Q98 413 98 341ZM590 341Q590 264 579 200.5Q568 137 538.5 90.5Q509 44 458 18.5Q407 -7 328 -7Q248 -7 197 17.5Q146 42 116.5 87.5Q87 133 75.5 197.5Q64 262 64 341Q64 419 75.5 482.5Q87 546 117 591Q147 636 198 660.5Q249 685 328 685Q407 685 458 659.5Q509 634 538.5 588.5Q568 543 579 480Q590 417 590 341Z" glyph-name="Obreve" horiz-adv-x="654" unicode="Ŏ"/><glyph d="M326 756 408 846H443L338 733H312L207 846H242ZM98 341Q98 268 108 209Q118 150 143.5 108.5Q169 67 214 44.5Q259 22 328 22Q397 22 441 45.5Q485 69 510.5 111Q536 153 545.5 211.5Q555 270 555 341Q555 411 545.5 469Q536 527 510.5 568.5Q485 610 441 633Q397 656 328 656Q260 656 215.5 634Q171 612 145 571Q119 530 108.5 471.5Q98 413 98 341ZM590 341Q590 264 579 200.5Q568 137 538.5 90.5Q509 44 458 18.5Q407 -7 328 -7Q248 -7 197 17.5Q146 42 116.5 87.5Q87 133 75.5 197.5Q64 262 64 341Q64 419 75.5 482.5Q87 546 117 591Q147 636 198 660.5Q249 685 328 685Q407 685 458 659.5Q509 634 538.5 588.5Q568 543 579 480Q590 417 590 341Z" glyph-name="Ocaron" horiz-adv-x="654" unicode="Ǒ"/><glyph d="M98 341Q98 268 108 209Q118 150 143.5 108.5Q169 67 214 44.5Q259 22 328 22Q397 22 441 45.5Q485 69 510.5 111Q536 153 545.5 211.5Q555 270 555 341Q555 411 545.5 469Q536 527 510.5 568.5Q485 610 441 633Q397 656 328 656Q260 656 215.5 634Q171 612 145 571Q119 530 108.5 471.5Q98 413 98 341ZM316 -6Q240 -4 191 21.5Q142 47 114 92Q86 137 75 200Q64 263 64 341Q64 419 75.5 482.5Q87 546 117 591Q147 636 198 660.5Q249 685 328 685Q407 685 458 659.5Q509 634 538.5 588.5Q568 543 579 480Q590 417 590 341Q590 267 579.5 204.5Q569 142 541.5 96Q514 50 466.5 23.5Q419 -3 346 -6L330 -44Q359 -49 379 -62.5Q399 -76 399 -100Q399 -134 373 -150Q347 -166 299 -166Q289 -166 271 -164Q253 -162 233 -157V-132Q247 -136 266.5 -138Q286 -140 300 -140Q332 -140 350.5 -131Q369 -122 369 -99Q369 -89 362.5 -82Q356 -75 345.5 -71Q335 -67 323 -65Q311 -63 300 -62L297 -48Z" glyph-name="Ocedilla" horiz-adv-x="654" unicode=""/><glyph d="M325 827 243 737H208L313 850H339L444 737H409ZM98 341Q98 268 108 209Q118 150 143.5 108.5Q169 67 214 44.5Q259 22 328 22Q397 22 441 45.5Q485 69 510.5 111Q536 153 545.5 211.5Q555 270 555 341Q555 411 545.5 469Q536 527 510.5 568.5Q485 610 441 633Q397 656 328 656Q260 656 215.5 634Q171 612 145 571Q119 530 108.5 471.5Q98 413 98 341ZM590 341Q590 264 579 200.5Q568 137 538.5 90.5Q509 44 458 18.5Q407 -7 328 -7Q248 -7 197 17.5Q146 42 116.5 87.5Q87 133 75.5 197.5Q64 262 64 341Q64 419 75.5 482.5Q87 546 117 591Q147 636 198 660.5Q249 685 328 685Q407 685 458 659.5Q509 634 538.5 588.5Q568 543 579 480Q590 417 590 341Z" glyph-name="Ocircumflex" horiz-adv-x="654" unicode="Ô"/><glyph d="M653 568H614L669 723H691ZM98 341Q98 268 108 209Q118 150 143.5 108.5Q169 67 214 44.5Q259 22 328 22Q397 22 441 45.5Q485 69 510.5 111Q536 153 545.5 211.5Q555 270 555 341Q555 411 545.5 469Q536 527 510.5 568.5Q485 610 441 633Q397 656 328 656Q260 656 215.5 634Q171 612 145 571Q119 530 108.5 471.5Q98 413 98 341ZM590 341Q590 264 579 200.5Q568 137 538.5 90.5Q509 44 458 18.5Q407 -7 328 -7Q248 -7 197 17.5Q146 42 116.5 87.5Q87 133 75.5 197.5Q64 262 64 341Q64 419 75.5 482.5Q87 546 117 591Q147 636 198 660.5Q249 685 328 685Q407 685 458 659.5Q509 634 538.5 588.5Q568 543 579 480Q590 417 590 341Z" glyph-name="Ocommaturnedabove" horiz-adv-x="674" unicode=""/><glyph d="M411 775H376V839H411ZM276 775H241V839H276ZM98 341Q98 268 108 209Q118 150 143.5 108.5Q169 67 214 44.5Q259 22 328 22Q397 22 441 45.5Q485 69 510.5 111Q536 153 545.5 211.5Q555 270 555 341Q555 411 545.5 469Q536 527 510.5 568.5Q485 610 441 633Q397 656 328 656Q260 656 215.5 634Q171 612 145 571Q119 530 108.5 471.5Q98 413 98 341ZM590 341Q590 264 579 200.5Q568 137 538.5 90.5Q509 44 458 18.5Q407 -7 328 -7Q248 -7 197 17.5Q146 42 116.5 87.5Q87 133 75.5 197.5Q64 262 64 341Q64 419 75.5 482.5Q87 546 117 591Q147 636 198 660.5Q249 685 328 685Q407 685 458 659.5Q509 634 538.5 588.5Q568 543 579 480Q590 417 590 341Z" glyph-name="Odieresis" horiz-adv-x="654" unicode="Ö"/><glyph d="M343 772H308V846H343ZM98 341Q98 268 108 209Q118 150 143.5 108.5Q169 67 214 44.5Q259 22 328 22Q397 22 441 45.5Q485 69 510.5 111Q536 153 545.5 211.5Q555 270 555 341Q555 411 545.5 469Q536 527 510.5 568.5Q485 610 441 633Q397 656 328 656Q260 656 215.5 634Q171 612 145 571Q119 530 108.5 471.5Q98 413 98 341ZM590 341Q590 264 579 200.5Q568 137 538.5 90.5Q509 44 458 18.5Q407 -7 328 -7Q248 -7 197 17.5Q146 42 116.5 87.5Q87 133 75.5 197.5Q64 262 64 341Q64 419 75.5 482.5Q87 546 117 591Q147 636 198 660.5Q249 685 328 685Q407 685 458 659.5Q509 634 538.5 588.5Q568 543 579 480Q590 417 590 341Z" glyph-name="Odotabove" horiz-adv-x="654" unicode="Ȯ"/><glyph d="M343 772H308V846H343ZM477 925H175V953H477ZM98 341Q98 268 108 209Q118 150 143.5 108.5Q169 67 214 44.5Q259 22 328 22Q397 22 441 45.5Q485 69 510.5 111Q536 153 545.5 211.5Q555 270 555 341Q555 411 545.5 469Q536 527 510.5 568.5Q485 610 441 633Q397 656 328 656Q260 656 215.5 634Q171 612 145 571Q119 530 108.5 471.5Q98 413 98 341ZM590 341Q590 264 579 200.5Q568 137 538.5 90.5Q509 44 458 18.5Q407 -7 328 -7Q248 -7 197 17.5Q146 42 116.5 87.5Q87 133 75.5 197.5Q64 262 64 341Q64 419 75.5 482.5Q87 546 117 591Q147 636 198 660.5Q249 685 328 685Q407 685 458 659.5Q509 634 538.5 588.5Q568 543 579 480Q590 417 590 341Z" glyph-name="Odotabovemacron" horiz-adv-x="654" unicode="Ȱ"/><glyph d="M343 -167H309V-103H343ZM98 341Q98 268 108 209Q118 150 143.5 108.5Q169 67 214 44.5Q259 22 328 22Q397 22 441 45.5Q485 69 510.5 111Q536 153 545.5 211.5Q555 270 555 341Q555 411 545.5 469Q536 527 510.5 568.5Q485 610 441 633Q397 656 328 656Q260 656 215.5 634Q171 612 145 571Q119 530 108.5 471.5Q98 413 98 341ZM590 341Q590 264 579 200.5Q568 137 538.5 90.5Q509 44 458 18.5Q407 -7 328 -7Q248 -7 197 17.5Q146 42 116.5 87.5Q87 133 75.5 197.5Q64 262 64 341Q64 419 75.5 482.5Q87 546 117 591Q147 636 198 660.5Q249 685 328 685Q407 685 458 659.5Q509 634 538.5 588.5Q568 543 579 480Q590 417 590 341Z" glyph-name="Odotbelow" horiz-adv-x="654" unicode="Ọ"/><glyph d="M154 846H199L306 737H275ZM240 846H285L392 737H362ZM98 341Q98 268 108 209Q118 150 143.5 108.5Q169 67 214 44.5Q259 22 328 22Q397 22 441 45.5Q485 69 510.5 111Q536 153 545.5 211.5Q555 270 555 341Q555 411 545.5 469Q536 527 510.5 568.5Q485 610 441 633Q397 656 328 656Q260 656 215.5 634Q171 612 145 571Q119 530 108.5 471.5Q98 413 98 341ZM590 341Q590 264 579 200.5Q568 137 538.5 90.5Q509 44 458 18.5Q407 -7 328 -7Q248 -7 197 17.5Q146 42 116.5 87.5Q87 133 75.5 197.5Q64 262 64 341Q64 419 75.5 482.5Q87 546 117 591Q147 636 198 660.5Q249 685 328 685Q407 685 458 659.5Q509 634 538.5 588.5Q568 543 579 480Q590 417 590 341Z" glyph-name="Odoublegrave" horiz-adv-x="654" unicode="Ȍ"/><glyph d="M193 846H240L347 737H315ZM98 341Q98 268 108 209Q118 150 143.5 108.5Q169 67 214 44.5Q259 22 328 22Q397 22 441 45.5Q485 69 510.5 111Q536 153 545.5 211.5Q555 270 555 341Q555 411 545.5 469Q536 527 510.5 568.5Q485 610 441 633Q397 656 328 656Q260 656 215.5 634Q171 612 145 571Q119 530 108.5 471.5Q98 413 98 341ZM590 341Q590 264 579 200.5Q568 137 538.5 90.5Q509 44 458 18.5Q407 -7 328 -7Q248 -7 197 17.5Q146 42 116.5 87.5Q87 133 75.5 197.5Q64 262 64 341Q64 419 75.5 482.5Q87 546 117 591Q147 636 198 660.5Q249 685 328 685Q407 685 458 659.5Q509 634 538.5 588.5Q568 543 579 480Q590 417 590 341Z" glyph-name="Ograve" horiz-adv-x="654" unicode="Ò"/><glyph d="M382 737H351L458 846H503ZM295 737H265L372 846H417ZM98 341Q98 268 108 209Q118 150 143.5 108.5Q169 67 214 44.5Q259 22 328 22Q397 22 441 45.5Q485 69 510.5 111Q536 153 545.5 211.5Q555 270 555 341Q555 411 545.5 469Q536 527 510.5 568.5Q485 610 441 633Q397 656 328 656Q260 656 215.5 634Q171 612 145 571Q119 530 108.5 471.5Q98 413 98 341ZM590 341Q590 264 579 200.5Q568 137 538.5 90.5Q509 44 458 18.5Q407 -7 328 -7Q248 -7 197 17.5Q146 42 116.5 87.5Q87 133 75.5 197.5Q64 262 64 341Q64 419 75.5 482.5Q87 546 117 591Q147 636 198 660.5Q249 685 328 685Q407 685 458 659.5Q509 634 538.5 588.5Q568 543 579 480Q590 417 590 341Z" glyph-name="Ohungarumlaut" horiz-adv-x="654" unicode="Ő"/><glyph d="M326 823Q280 823 247 804.5Q214 786 203 744H170Q181 800 223.5 824.5Q266 849 326 849Q386 849 428.5 824.5Q471 800 482 744H449Q438 786 405 804.5Q372 823 326 823ZM98 341Q98 268 108 209Q118 150 143.5 108.5Q169 67 214 44.5Q259 22 328 22Q397 22 441 45.5Q485 69 510.5 111Q536 153 545.5 211.5Q555 270 555 341Q555 411 545.5 469Q536 527 510.5 568.5Q485 610 441 633Q397 656 328 656Q260 656 215.5 634Q171 612 145 571Q119 530 108.5 471.5Q98 413 98 341ZM590 341Q590 264 579 200.5Q568 137 538.5 90.5Q509 44 458 18.5Q407 -7 328 -7Q248 -7 197 17.5Q146 42 116.5 87.5Q87 133 75.5 197.5Q64 262 64 341Q64 419 75.5 482.5Q87 546 117 591Q147 636 198 660.5Q249 685 328 685Q407 685 458 659.5Q509 634 538.5 588.5Q568 543 579 480Q590 417 590 341Z" glyph-name="Oinvertedbreve" horiz-adv-x="654" unicode="Ȏ"/><glyph d="M477 787H175V815H477ZM98 341Q98 268 108 209Q118 150 143.5 108.5Q169 67 214 44.5Q259 22 328 22Q397 22 441 45.5Q485 69 510.5 111Q536 153 545.5 211.5Q555 270 555 341Q555 411 545.5 469Q536 527 510.5 568.5Q485 610 441 633Q397 656 328 656Q260 656 215.5 634Q171 612 145 571Q119 530 108.5 471.5Q98 413 98 341ZM590 341Q590 264 579 200.5Q568 137 538.5 90.5Q509 44 458 18.5Q407 -7 328 -7Q248 -7 197 17.5Q146 42 116.5 87.5Q87 133 75.5 197.5Q64 262 64 341Q64 419 75.5 482.5Q87 546 117 591Q147 636 198 660.5Q249 685 328 685Q407 685 458 659.5Q509 634 538.5 588.5Q568 543 579 480Q590 417 590 341Z" glyph-name="Omacron" horiz-adv-x="654" unicode="Ō"/><glyph d="M98 341Q98 268 108 209Q118 150 143.5 108.5Q169 67 214 44.5Q259 22 328 22Q397 22 441 45.5Q485 69 510.5 111Q536 153 545.5 211.5Q555 270 555 341Q555 411 545.5 469Q536 527 510.5 568.5Q485 610 441 633Q397 656 328 656Q260 656 215.5 634Q171 612 145 571Q119 530 108.5 471.5Q98 413 98 341ZM590 341Q590 267 579.5 205Q569 143 542 97Q515 51 468.5 24Q422 -3 350 -6Q321 -26 309 -48Q297 -70 297 -87Q297 -97 300 -106.5Q303 -116 310.5 -123.5Q318 -131 331 -135.5Q344 -140 364 -140Q377 -140 390 -138.5Q403 -137 418 -132V-157Q406 -162 389 -164Q372 -166 358 -166Q306 -166 286.5 -143.5Q267 -121 267 -89Q267 -68 279 -45.5Q291 -23 312 -6Q237 -4 189 21.5Q141 47 113 92.5Q85 138 74.5 201Q64 264 64 341Q64 419 75.5 482.5Q87 546 117 591Q147 636 198 660.5Q249 685 328 685Q407 685 458 659.5Q509 634 538.5 588.5Q568 543 579 480Q590 417 590 341Z" glyph-name="Oogonek" horiz-adv-x="654" unicode="Ǫ"/><glyph d="M477 787H175V815H477ZM98 341Q98 268 108 209Q118 150 143.5 108.5Q169 67 214 44.5Q259 22 328 22Q397 22 441 45.5Q485 69 510.5 111Q536 153 545.5 211.5Q555 270 555 341Q555 411 545.5 469Q536 527 510.5 568.5Q485 610 441 633Q397 656 328 656Q260 656 215.5 634Q171 612 145 571Q119 530 108.5 471.5Q98 413 98 341ZM590 341Q590 267 579.5 205Q569 143 542 97Q515 51 468.5 24Q422 -3 349 -6Q320 -26 308 -48Q296 -70 296 -87Q296 -97 299 -106.5Q302 -116 309.5 -123.5Q317 -131 330 -135.5Q343 -140 363 -140Q376 -140 389 -138.5Q402 -137 417 -132V-157Q405 -162 388 -164Q371 -166 357 -166Q305 -166 285.5 -143.5Q266 -121 266 -89Q266 -68 278 -45.5Q290 -23 311 -6Q236 -3 188.5 22.5Q141 48 113 93Q85 138 74.5 201Q64 264 64 341Q64 419 75.5 482.5Q87 546 117 591Q147 636 198 660.5Q249 685 328 685Q407 685 458 659.5Q509 634 538.5 588.5Q568 543 579 480Q590 417 590 341Z" glyph-name="Oogonekmacron" horiz-adv-x="654" unicode="Ǭ"/><glyph d="M98 341Q98 287 103 241Q108 195 120.5 157.5Q133 120 154.5 92Q176 64 208 47L416 643Q397 649 375.5 652.5Q354 656 328 656Q260 656 215.5 634Q171 612 145 571Q119 530 108.5 471.5Q98 413 98 341ZM555 341Q555 446 532 521.5Q509 597 443 632Q390 482 338.5 333.5Q287 185 234 36Q254 28 277 25Q300 22 328 22Q397 22 441 45.5Q485 69 510.5 111Q536 153 545.5 211.5Q555 270 555 341ZM162 -85 197 17Q158 35 132.5 65.5Q107 96 91.5 137.5Q76 179 70 230Q64 281 64 341Q64 419 75.5 482.5Q87 546 117 591Q147 636 198 660.5Q249 685 328 685Q357 685 381 681.5Q405 678 426 672L458 762H489Q480 736 471 711.5Q462 687 453 662Q493 644 519.5 613Q546 582 562 541Q578 500 584 449.5Q590 399 590 341Q590 264 579 200.5Q568 137 538.5 90.5Q509 44 458 18.5Q407 -7 328 -7Q269 -7 224 7Q216 -16 207.5 -39Q199 -62 191 -85Z" glyph-name="Oslash" horiz-adv-x="654" unicode="Ø"/><glyph d="M339 737H306L414 846H461ZM98 341Q98 287 103 241Q108 195 120.5 157.5Q133 120 154.5 92Q176 64 208 47L416 643Q397 649 375.5 652.5Q354 656 328 656Q260 656 215.5 634Q171 612 145 571Q119 530 108.5 471.5Q98 413 98 341ZM555 341Q555 446 532 521.5Q509 597 443 632Q390 482 338.5 333.5Q287 185 234 36Q254 28 277 25Q300 22 328 22Q397 22 441 45.5Q485 69 510.5 111Q536 153 545.5 211.5Q555 270 555 341ZM162 -85 197 17Q158 35 132.5 65.5Q107 96 91.5 137.5Q76 179 70 230Q64 281 64 341Q64 419 75.5 482.5Q87 546 117 591Q147 636 198 660.5Q249 685 328 685Q357 685 381 681.5Q405 678 426 672L458 762H489Q480 736 471 711.5Q462 687 453 662Q493 644 519.5 613Q546 582 562 541Q578 500 584 449.5Q590 399 590 341Q590 264 579 200.5Q568 137 538.5 90.5Q509 44 458 18.5Q407 -7 328 -7Q269 -7 224 7Q216 -16 207.5 -39Q199 -62 191 -85Z" glyph-name="Oslashacute" horiz-adv-x="654" unicode="Ǿ"/><glyph d="M397 781Q377 781 359.5 786Q342 791 324.5 797Q307 803 290 808Q273 813 254 813Q234 813 213.5 803.5Q193 794 174 781V811Q189 822 211.5 831.5Q234 841 254 841Q273 841 291 836Q309 831 326 825Q343 819 360.5 814Q378 809 397 809Q417 809 437.5 818.5Q458 828 476 841V811Q462 800 439 790.5Q416 781 397 781ZM98 341Q98 268 108 209Q118 150 143.5 108.5Q169 67 214 44.5Q259 22 328 22Q397 22 441 45.5Q485 69 510.5 111Q536 153 545.5 211.5Q555 270 555 341Q555 411 545.5 469Q536 527 510.5 568.5Q485 610 441 633Q397 656 328 656Q260 656 215.5 634Q171 612 145 571Q119 530 108.5 471.5Q98 413 98 341ZM590 341Q590 264 579 200.5Q568 137 538.5 90.5Q509 44 458 18.5Q407 -7 328 -7Q248 -7 197 17.5Q146 42 116.5 87.5Q87 133 75.5 197.5Q64 262 64 341Q64 419 75.5 482.5Q87 546 117 591Q147 636 198 660.5Q249 685 328 685Q407 685 458 659.5Q509 634 538.5 588.5Q568 543 579 480Q590 417 590 341Z" glyph-name="Otilde" horiz-adv-x="654" unicode="Õ"/><glyph d="M477 924H175V952H477ZM397 781Q377 781 359.5 786Q342 791 324.5 797Q307 803 290 808Q273 813 254 813Q234 813 213.5 803.5Q193 794 174 781V811Q189 822 211.5 831.5Q234 841 254 841Q273 841 291 836Q309 831 326 825Q343 819 360.5 814Q378 809 397 809Q417 809 437.5 818.5Q458 828 476 841V811Q462 800 439 790.5Q416 781 397 781ZM98 341Q98 268 108 209Q118 150 143.5 108.5Q169 67 214 44.5Q259 22 328 22Q397 22 441 45.5Q485 69 510.5 111Q536 153 545.5 211.5Q555 270 555 341Q555 411 545.5 469Q536 527 510.5 568.5Q485 610 441 633Q397 656 328 656Q260 656 215.5 634Q171 612 145 571Q119 530 108.5 471.5Q98 413 98 341ZM590 341Q590 264 579 200.5Q568 137 538.5 90.5Q509 44 458 18.5Q407 -7 328 -7Q248 -7 197 17.5Q146 42 116.5 87.5Q87 133 75.5 197.5Q64 262 64 341Q64 419 75.5 482.5Q87 546 117 591Q147 636 198 660.5Q249 685 328 685Q407 685 458 659.5Q509 634 538.5 588.5Q568 543 579 480Q590 417 590 341Z" glyph-name="Otildemacron" horiz-adv-x="654" unicode="Ȭ"/><glyph d="M342 -219H310V-78H342ZM98 341Q98 268 108 209Q118 150 143.5 108.5Q169 67 214 44.5Q259 22 328 22Q397 22 441 45.5Q485 69 510.5 111Q536 153 545.5 211.5Q555 270 555 341Q555 411 545.5 469Q536 527 510.5 568.5Q485 610 441 633Q397 656 328 656Q260 656 215.5 634Q171 612 145 571Q119 530 108.5 471.5Q98 413 98 341ZM590 341Q590 264 579 200.5Q568 137 538.5 90.5Q509 44 458 18.5Q407 -7 328 -7Q248 -7 197 17.5Q146 42 116.5 87.5Q87 133 75.5 197.5Q64 262 64 341Q64 419 75.5 482.5Q87 546 117 591Q147 636 198 660.5Q249 685 328 685Q407 685 458 659.5Q509 634 538.5 588.5Q568 543 579 480Q590 417 590 341Z" glyph-name="Ounderlineaccent" horiz-adv-x="654" unicode=""/><glyph d="M494 468Q494 516 486 550Q478 584 458 604Q432 630 392.5 639.5Q353 649 279 649H132V286H279Q316 286 343.5 287.5Q371 289 392 293.5Q413 298 428.5 306.5Q444 315 457 328Q477 348 485.5 383.5Q494 419 494 468ZM132 257V0H98V678H284Q359 678 405 668.5Q451 659 483 628Q509 602 519 562.5Q529 523 529 468Q529 411 519 372Q509 333 483 307Q467 291 448.5 281.5Q430 272 407 266.5Q384 261 354.5 259Q325 257 288 257Z" glyph-name="P" horiz-adv-x="567" unicode="P"/><glyph d="M442 787H140V815H442ZM494 468Q494 516 486 550Q478 584 458 604Q432 630 392.5 639.5Q353 649 279 649H132V286H279Q316 286 343.5 287.5Q371 289 392 293.5Q413 298 428.5 306.5Q444 315 457 328Q477 348 485.5 383.5Q494 419 494 468ZM132 257V0H98V678H284Q359 678 405 668.5Q451 659 483 628Q509 602 519 562.5Q529 523 529 468Q529 411 519 372Q509 333 483 307Q467 291 448.5 281.5Q430 272 407 266.5Q384 261 354.5 259Q325 257 288 257Z" glyph-name="Pmacron" horiz-adv-x="567" unicode=""/><glyph d="M98 341Q98 268 108 209Q118 150 143.5 108.5Q169 67 214 44.5Q259 22 328 22Q397 22 441 45.5Q485 69 510.5 111Q536 153 545.5 211.5Q555 270 555 341Q555 411 545.5 469Q536 527 510.5 568.5Q485 610 441 633Q397 656 328 656Q260 656 215.5 634Q171 612 145 571Q119 530 108.5 471.5Q98 413 98 341ZM590 341Q590 285 584 235Q578 185 564 144Q550 103 525.5 71.5Q501 40 464 21L586 -118H541L430 8Q388 -7 328 -7Q248 -7 197 17.5Q146 42 116.5 87.5Q87 133 75.5 197.5Q64 262 64 341Q64 419 75.5 482.5Q87 546 117 591Q147 636 198 660.5Q249 685 328 685Q407 685 458 659.5Q509 634 538.5 588.5Q568 543 579 480Q590 417 590 341Z" glyph-name="Q" horiz-adv-x="654" unicode="Q"/><glyph d="M132 320H295Q354 320 393.5 329Q433 338 456 361Q475 380 483 409.5Q491 439 491 484Q491 529 482.5 558.5Q474 588 454 608Q431 631 391.5 640Q352 649 295 649H132ZM526 485Q526 432 515.5 397.5Q505 363 482 340Q457 315 419 304.5Q381 294 330 292L536 0H494L289 291H132V0H98V678H292Q362 678 408 667.5Q454 657 483 628Q526 585 526 485Z" glyph-name="R" horiz-adv-x="577" unicode="R"/><glyph d="M295 737H262L370 846H417ZM132 320H295Q354 320 393.5 329Q433 338 456 361Q475 380 483 409.5Q491 439 491 484Q491 529 482.5 558.5Q474 588 454 608Q431 631 391.5 640Q352 649 295 649H132ZM526 485Q526 432 515.5 397.5Q505 363 482 340Q457 315 419 304.5Q381 294 330 292L536 0H494L289 291H132V0H98V678H292Q362 678 408 667.5Q454 657 483 628Q526 585 526 485Z" glyph-name="Racute" horiz-adv-x="577" unicode="Ŕ"/><glyph d="M295 756 377 846H412L307 733H281L176 846H211ZM132 320H295Q354 320 393.5 329Q433 338 456 361Q475 380 483 409.5Q491 439 491 484Q491 529 482.5 558.5Q474 588 454 608Q431 631 391.5 640Q352 649 295 649H132ZM526 485Q526 432 515.5 397.5Q505 363 482 340Q457 315 419 304.5Q381 294 330 292L536 0H494L289 291H132V0H98V678H292Q362 678 408 667.5Q454 657 483 628Q526 585 526 485Z" glyph-name="Rcaron" horiz-adv-x="577" unicode="Ř"/><glyph d="M288 -46Q376 -51 376 -104Q376 -137 350 -151.5Q324 -166 277 -166Q267 -166 248.5 -164Q230 -162 211 -157V-132Q225 -136 244.5 -138Q264 -140 278 -140Q309 -140 327.5 -133Q346 -126 346 -103Q346 -93 340 -86.5Q334 -80 324 -76Q314 -72 301.5 -70.5Q289 -69 276 -68ZM132 320H295Q354 320 393.5 329Q433 338 456 361Q475 380 483 409.5Q491 439 491 484Q491 529 482.5 558.5Q474 588 454 608Q431 631 391.5 640Q352 649 295 649H132ZM526 485Q526 432 515.5 397.5Q505 363 482 340Q457 315 419 304.5Q381 294 330 292L536 0H494L289 291H132V0H98V678H292Q362 678 408 667.5Q454 657 483 628Q526 585 526 485Z" glyph-name="Rcedilla" horiz-adv-x="577" unicode=""/><glyph d="M286 -78H324L270 -233H247ZM132 320H295Q354 320 393.5 329Q433 338 456 361Q475 380 483 409.5Q491 439 491 484Q491 529 482.5 558.5Q474 588 454 608Q431 631 391.5 640Q352 649 295 649H132ZM526 485Q526 432 515.5 397.5Q505 363 482 340Q457 315 419 304.5Q381 294 330 292L536 0H494L289 291H132V0H98V678H292Q362 678 408 667.5Q454 657 483 628Q526 585 526 485Z" glyph-name="Rcommaaccent" horiz-adv-x="577" unicode="Ŗ"/><glyph d="M318 -167H284V-103H318ZM132 320H295Q354 320 393.5 329Q433 338 456 361Q475 380 483 409.5Q491 439 491 484Q491 529 482.5 558.5Q474 588 454 608Q431 631 391.5 640Q352 649 295 649H132ZM526 485Q526 432 515.5 397.5Q505 363 482 340Q457 315 419 304.5Q381 294 330 292L536 0H494L289 291H132V0H98V678H292Q362 678 408 667.5Q454 657 483 628Q526 585 526 485Z" glyph-name="Rdotbelow" horiz-adv-x="577" unicode="Ṛ"/><glyph d="M318 -167H284V-103H318ZM436 787H134V815H436ZM132 320H295Q354 320 393.5 329Q433 338 456 361Q475 380 483 409.5Q491 439 491 484Q491 529 482.5 558.5Q474 588 454 608Q431 631 391.5 640Q352 649 295 649H132ZM526 485Q526 432 515.5 397.5Q505 363 482 340Q457 315 419 304.5Q381 294 330 292L536 0H494L289 291H132V0H98V678H292Q362 678 408 667.5Q454 657 483 628Q526 585 526 485Z" glyph-name="Rdotbelowmacron" horiz-adv-x="577" unicode="Ṝ"/><glyph d="M118 846H163L270 737H239ZM204 846H249L356 737H326ZM132 320H295Q354 320 393.5 329Q433 338 456 361Q475 380 483 409.5Q491 439 491 484Q491 529 482.5 558.5Q474 588 454 608Q431 631 391.5 640Q352 649 295 649H132ZM526 485Q526 432 515.5 397.5Q505 363 482 340Q457 315 419 304.5Q381 294 330 292L536 0H494L289 291H132V0H98V678H292Q362 678 408 667.5Q454 657 483 628Q526 585 526 485Z" glyph-name="Rdoublegrave" horiz-adv-x="577" unicode=""/><glyph d="M287 823Q241 823 208 804.5Q175 786 164 744H131Q142 800 184.5 824.5Q227 849 287 849Q347 849 389.5 824.5Q432 800 443 744H410Q399 786 366 804.5Q333 823 287 823ZM132 320H295Q354 320 393.5 329Q433 338 456 361Q475 380 483 409.5Q491 439 491 484Q491 529 482.5 558.5Q474 588 454 608Q431 631 391.5 640Q352 649 295 649H132ZM526 485Q526 432 515.5 397.5Q505 363 482 340Q457 315 419 304.5Q381 294 330 292L536 0H494L289 291H132V0H98V678H292Q362 678 408 667.5Q454 657 483 628Q526 585 526 485Z" glyph-name="Rinvertedbreve" horiz-adv-x="577" unicode="Ȓ"/><glyph d="M246 23Q283 23 321 30Q359 37 390.5 55Q422 73 442 103.5Q462 134 462 181Q462 231 445.5 261Q429 291 403 307Q377 323 343.5 328.5Q310 334 276 336Q240 337 203 343Q166 349 136 366.5Q106 384 87 417.5Q68 451 68 509Q68 562 88 596.5Q108 631 140 650.5Q172 670 213 677.5Q254 685 295 685Q328 685 368.5 680.5Q409 676 446 665V635Q408 647 370 651.5Q332 656 295 656Q259 656 224.5 649Q190 642 163 625.5Q136 609 119 580.5Q102 552 102 510Q102 463 117 435.5Q132 408 157.5 394Q183 380 216 375Q249 370 285 369Q324 367 362 359.5Q400 352 429.5 332Q459 312 477.5 276.5Q496 241 496 184Q496 125 472 88Q448 51 411.5 30Q375 9 330.5 1Q286 -7 245 -7Q203 -7 159.5 -1Q116 5 78 18V49Q116 36 159 29.5Q202 23 246 23Z" glyph-name="S" horiz-adv-x="545" unicode="S"/><glyph d="M278 737H245L353 846H400ZM246 23Q283 23 321 30Q359 37 390.5 55Q422 73 442 103.5Q462 134 462 181Q462 231 445.5 261Q429 291 403 307Q377 323 343.5 328.5Q310 334 276 336Q240 337 203 343Q166 349 136 366.5Q106 384 87 417.5Q68 451 68 509Q68 562 88 596.5Q108 631 140 650.5Q172 670 213 677.5Q254 685 295 685Q328 685 368.5 680.5Q409 676 446 665V635Q408 647 370 651.5Q332 656 295 656Q259 656 224.5 649Q190 642 163 625.5Q136 609 119 580.5Q102 552 102 510Q102 463 117 435.5Q132 408 157.5 394Q183 380 216 375Q249 370 285 369Q324 367 362 359.5Q400 352 429.5 332Q459 312 477.5 276.5Q496 241 496 184Q496 125 472 88Q448 51 411.5 30Q375 9 330.5 1Q286 -7 245 -7Q203 -7 159.5 -1Q116 5 78 18V49Q116 36 159 29.5Q202 23 246 23Z" glyph-name="Sacute" horiz-adv-x="545" unicode="Ś"/><glyph d="M265 756 347 846H382L277 733H251L146 846H181ZM246 23Q283 23 321 30Q359 37 390.5 55Q422 73 442 103.5Q462 134 462 181Q462 231 445.5 261Q429 291 403 307Q377 323 343.5 328.5Q310 334 276 336Q240 337 203 343Q166 349 136 366.5Q106 384 87 417.5Q68 451 68 509Q68 562 88 596.5Q108 631 140 650.5Q172 670 213 677.5Q254 685 295 685Q328 685 368.5 680.5Q409 676 446 665V635Q408 647 370 651.5Q332 656 295 656Q259 656 224.5 649Q190 642 163 625.5Q136 609 119 580.5Q102 552 102 510Q102 463 117 435.5Q132 408 157.5 394Q183 380 216 375Q249 370 285 369Q324 367 362 359.5Q400 352 429.5 332Q459 312 477.5 276.5Q496 241 496 184Q496 125 472 88Q448 51 411.5 30Q375 9 330.5 1Q286 -7 245 -7Q203 -7 159.5 -1Q116 5 78 18V49Q116 36 159 29.5Q202 23 246 23Z" glyph-name="Scaron" horiz-adv-x="545" unicode="Š"/><glyph d="M275 -6Q267 -6 260 -6.5Q253 -7 245 -7Q203 -7 159.5 -1Q116 5 78 18V49Q116 36 159 29.5Q202 23 246 23Q283 23 321 30Q359 37 390.5 55Q422 73 442 103.5Q462 134 462 181Q462 231 445.5 261Q429 291 403 307Q377 323 343.5 328.5Q310 334 276 336Q240 337 203 343Q166 349 136 366.5Q106 384 87 417.5Q68 451 68 509Q68 562 88 596.5Q108 631 140 650.5Q172 670 213 677.5Q254 685 295 685Q328 685 368.5 680.5Q409 676 446 665V635Q408 647 370 651.5Q332 656 295 656Q259 656 224.5 649Q190 642 163 625.5Q136 609 119 580.5Q102 552 102 510Q102 463 117 435.5Q132 408 157.5 394Q183 380 216 375Q249 370 285 369Q324 367 362 359.5Q400 352 429.5 332Q459 312 477.5 276.5Q496 241 496 184Q496 136 479.5 102Q463 68 436.5 46.5Q410 25 376 13Q342 1 306 -3L289 -44Q318 -49 338 -62.5Q358 -76 358 -100Q358 -134 332 -150Q306 -166 258 -166Q248 -166 230 -164Q212 -162 192 -157V-132Q206 -136 225.5 -138Q245 -140 259 -140Q291 -140 309.5 -131Q328 -122 328 -99Q328 -89 321.5 -82Q315 -75 304.5 -71Q294 -67 282 -65Q270 -63 259 -62L256 -48Z" glyph-name="Scedilla" horiz-adv-x="545" unicode="Ş"/><glyph d="M302 22Q351 22 391.5 34.5Q432 47 463 78Q494 109 512 163.5Q530 218 535 300H100Q98 287 98 279.5Q98 272 98 263Q98 197 111.5 149.5Q125 102 156 71Q205 22 302 22ZM535 329Q537 426 519.5 490Q502 554 464 592Q431 625 385.5 640.5Q340 656 282 656Q244 656 195 650.5Q146 645 93 623V653Q138 672 188.5 678.5Q239 685 285 685Q357 685 410.5 665.5Q464 646 499.5 604Q535 562 552.5 496.5Q570 431 570 339Q570 245 552 179.5Q534 114 499.5 72.5Q465 31 415.5 12.5Q366 -6 302 -6Q237 -6 191.5 12Q146 30 117.5 65Q89 100 76.5 150.5Q64 201 64 267Q64 272 64.5 289Q65 306 68 329Z" glyph-name="Schwa" horiz-adv-x="634" unicode="Ə"/><glyph d="M269 827 187 737H152L257 850H283L388 737H353ZM246 23Q283 23 321 30Q359 37 390.5 55Q422 73 442 103.5Q462 134 462 181Q462 231 445.5 261Q429 291 403 307Q377 323 343.5 328.5Q310 334 276 336Q240 337 203 343Q166 349 136 366.5Q106 384 87 417.5Q68 451 68 509Q68 562 88 596.5Q108 631 140 650.5Q172 670 213 677.5Q254 685 295 685Q328 685 368.5 680.5Q409 676 446 665V635Q408 647 370 651.5Q332 656 295 656Q259 656 224.5 649Q190 642 163 625.5Q136 609 119 580.5Q102 552 102 510Q102 463 117 435.5Q132 408 157.5 394Q183 380 216 375Q249 370 285 369Q324 367 362 359.5Q400 352 429.5 332Q459 312 477.5 276.5Q496 241 496 184Q496 125 472 88Q448 51 411.5 30Q375 9 330.5 1Q286 -7 245 -7Q203 -7 159.5 -1Q116 5 78 18V49Q116 36 159 29.5Q202 23 246 23Z" glyph-name="Scircumflex" horiz-adv-x="545" unicode="Ŝ"/><glyph d="M274 -78H312L258 -233H235ZM246 23Q283 23 321 30Q359 37 390.5 55Q422 73 442 103.5Q462 134 462 181Q462 231 445.5 261Q429 291 403 307Q377 323 343.5 328.5Q310 334 276 336Q240 337 203 343Q166 349 136 366.5Q106 384 87 417.5Q68 451 68 509Q68 562 88 596.5Q108 631 140 650.5Q172 670 213 677.5Q254 685 295 685Q328 685 368.5 680.5Q409 676 446 665V635Q408 647 370 651.5Q332 656 295 656Q259 656 224.5 649Q190 642 163 625.5Q136 609 119 580.5Q102 552 102 510Q102 463 117 435.5Q132 408 157.5 394Q183 380 216 375Q249 370 285 369Q324 367 362 359.5Q400 352 429.5 332Q459 312 477.5 276.5Q496 241 496 184Q496 125 472 88Q448 51 411.5 30Q375 9 330.5 1Q286 -7 245 -7Q203 -7 159.5 -1Q116 5 78 18V49Q116 36 159 29.5Q202 23 246 23Z" glyph-name="Scommaaccent" horiz-adv-x="545" unicode="Ș"/><glyph d="M308 -167H274V-103H308ZM246 23Q283 23 321 30Q359 37 390.5 55Q422 73 442 103.5Q462 134 462 181Q462 231 445.5 261Q429 291 403 307Q377 323 343.5 328.5Q310 334 276 336Q240 337 203 343Q166 349 136 366.5Q106 384 87 417.5Q68 451 68 509Q68 562 88 596.5Q108 631 140 650.5Q172 670 213 677.5Q254 685 295 685Q328 685 368.5 680.5Q409 676 446 665V635Q408 647 370 651.5Q332 656 295 656Q259 656 224.5 649Q190 642 163 625.5Q136 609 119 580.5Q102 552 102 510Q102 463 117 435.5Q132 408 157.5 394Q183 380 216 375Q249 370 285 369Q324 367 362 359.5Q400 352 429.5 332Q459 312 477.5 276.5Q496 241 496 184Q496 125 472 88Q448 51 411.5 30Q375 9 330.5 1Q286 -7 245 -7Q203 -7 159.5 -1Q116 5 78 18V49Q116 36 159 29.5Q202 23 246 23Z" glyph-name="Sdotbelow" horiz-adv-x="545" unicode="Ṣ"/><glyph d="M269 0H235V649H13V678H491V649H269Z" glyph-name="T" horiz-adv-x="504" unicode="T"/><glyph d="M269 360H436V331H269V0H235V331H77V360H235V649H13V678H491V649H269Z" glyph-name="Tbar" horiz-adv-x="504" unicode="Ŧ"/><glyph d="M252 756 334 846H369L264 733H238L133 846H168ZM269 0H235V649H13V678H491V649H269Z" glyph-name="Tcaron" horiz-adv-x="504" unicode="Ť"/><glyph d="M243 -46Q331 -51 331 -104Q331 -137 305 -151.5Q279 -166 232 -166Q222 -166 203.5 -164Q185 -162 166 -157V-132Q180 -136 199.5 -138Q219 -140 233 -140Q264 -140 282.5 -133Q301 -126 301 -103Q301 -93 295 -86.5Q289 -80 279 -76Q269 -72 256.5 -70.5Q244 -69 231 -68ZM269 0H235V649H13V678H491V649H269Z" glyph-name="Tcedilla" horiz-adv-x="504" unicode=""/><glyph d="M233 -78H271L217 -233H194ZM269 0H235V649H13V678H491V649H269Z" glyph-name="Tcommaaccent" horiz-adv-x="504" unicode="Ţ"/><glyph d="M269 -167H235V-103H269ZM269 0H235V649H13V678H491V649H269Z" glyph-name="Tdotbelow" horiz-adv-x="504" unicode="Ṭ"/><glyph d="M494 339Q494 387 486 421Q478 455 458 475Q432 501 392.5 510.5Q353 520 279 520H132V157H279Q316 157 343.5 158.5Q371 160 392 164.5Q413 169 428.5 177.5Q444 186 457 199Q477 219 485.5 254.5Q494 290 494 339ZM132 128V0H98V679H132V549H284Q359 549 405 539.5Q451 530 483 499Q509 473 519 433.5Q529 394 529 339Q529 282 519 243Q509 204 483 178Q467 162 448.5 152.5Q430 143 407 137.5Q384 132 354.5 130Q325 128 288 128Z" glyph-name="Thorn" horiz-adv-x="567" unicode="Þ"/><glyph d="M314 -7Q247 -7 203.5 9.5Q160 26 133 53Q102 84 92.5 129.5Q83 175 83 223V678H117V221Q117 203 118 183.5Q119 164 123 144.5Q127 125 135.5 106.5Q144 88 159 73Q182 50 219 36Q256 22 314 22Q372 22 409 36Q446 50 469 73Q484 88 492.5 106.5Q501 125 505 144.5Q509 164 510 183.5Q511 203 511 221V678H545V223Q545 175 535.5 129.5Q526 84 495 53Q468 26 424.5 9.5Q381 -7 314 -7Z" glyph-name="U" horiz-adv-x="628" unicode="U"/><glyph d="M315 -6Q241 -6 195.5 13Q150 32 125 63.5Q100 95 91.5 136.5Q83 178 83 223V678H117V220Q117 185 122.5 150Q128 115 148 86.5Q168 58 207.5 40Q247 22 315 22Q380 22 419 38.5Q458 55 478.5 81.5Q499 108 505.5 140Q512 172 512 202V678H886V649H546V361H842V331H546V29H893V0H504V68H503Q489 45 468.5 30.5Q448 16 423 8Q398 0 370.5 -3Q343 -6 315 -6Z" glyph-name="UE" horiz-adv-x="932" unicode=""/><glyph d="M324 737H291L399 846H446ZM314 -7Q247 -7 203.5 9.5Q160 26 133 53Q102 84 92.5 129.5Q83 175 83 223V678H117V221Q117 203 118 183.5Q119 164 123 144.5Q127 125 135.5 106.5Q144 88 159 73Q182 50 219 36Q256 22 314 22Q372 22 409 36Q446 50 469 73Q484 88 492.5 106.5Q501 125 505 144.5Q509 164 510 183.5Q511 203 511 221V678H545V223Q545 175 535.5 129.5Q526 84 495 53Q468 26 424.5 9.5Q381 -7 314 -7Z" glyph-name="Uacute" horiz-adv-x="628" unicode="Ú"/><glyph d="M314 767Q360 767 393 785.5Q426 804 437 846H470Q459 790 416.5 765.5Q374 741 314 741Q254 741 211.5 765.5Q169 790 158 846H191Q202 804 235 785.5Q268 767 314 767ZM314 -7Q247 -7 203.5 9.5Q160 26 133 53Q102 84 92.5 129.5Q83 175 83 223V678H117V221Q117 203 118 183.5Q119 164 123 144.5Q127 125 135.5 106.5Q144 88 159 73Q182 50 219 36Q256 22 314 22Q372 22 409 36Q446 50 469 73Q484 88 492.5 106.5Q501 125 505 144.5Q509 164 510 183.5Q511 203 511 221V678H545V223Q545 175 535.5 129.5Q526 84 495 53Q468 26 424.5 9.5Q381 -7 314 -7Z" glyph-name="Ubreve" horiz-adv-x="628" unicode="Ŭ"/><glyph d="M314 756 396 846H431L326 733H300L195 846H230ZM314 -7Q247 -7 203.5 9.5Q160 26 133 53Q102 84 92.5 129.5Q83 175 83 223V678H117V221Q117 203 118 183.5Q119 164 123 144.5Q127 125 135.5 106.5Q144 88 159 73Q182 50 219 36Q256 22 314 22Q372 22 409 36Q446 50 469 73Q484 88 492.5 106.5Q501 125 505 144.5Q509 164 510 183.5Q511 203 511 221V678H545V223Q545 175 535.5 129.5Q526 84 495 53Q468 26 424.5 9.5Q381 -7 314 -7Z" glyph-name="Ucaron" horiz-adv-x="628" unicode="Ǔ"/><glyph d="M313 827 231 737H196L301 850H327L432 737H397ZM314 -7Q247 -7 203.5 9.5Q160 26 133 53Q102 84 92.5 129.5Q83 175 83 223V678H117V221Q117 203 118 183.5Q119 164 123 144.5Q127 125 135.5 106.5Q144 88 159 73Q182 50 219 36Q256 22 314 22Q372 22 409 36Q446 50 469 73Q484 88 492.5 106.5Q501 125 505 144.5Q509 164 510 183.5Q511 203 511 221V678H545V223Q545 175 535.5 129.5Q526 84 495 53Q468 26 424.5 9.5Q381 -7 314 -7Z" glyph-name="Ucircumflex" horiz-adv-x="628" unicode="Û"/><glyph d="M399 775H364V839H399ZM264 775H229V839H264ZM314 -7Q247 -7 203.5 9.5Q160 26 133 53Q102 84 92.5 129.5Q83 175 83 223V678H117V221Q117 203 118 183.5Q119 164 123 144.5Q127 125 135.5 106.5Q144 88 159 73Q182 50 219 36Q256 22 314 22Q372 22 409 36Q446 50 469 73Q484 88 492.5 106.5Q501 125 505 144.5Q509 164 510 183.5Q511 203 511 221V678H545V223Q545 175 535.5 129.5Q526 84 495 53Q468 26 424.5 9.5Q381 -7 314 -7Z" glyph-name="Udieresis" horiz-adv-x="628" unicode="Ü"/><glyph d="M331 -167H297V-103H331ZM314 -7Q247 -7 203.5 9.5Q160 26 133 53Q102 84 92.5 129.5Q83 175 83 223V678H117V221Q117 203 118 183.5Q119 164 123 144.5Q127 125 135.5 106.5Q144 88 159 73Q182 50 219 36Q256 22 314 22Q372 22 409 36Q446 50 469 73Q484 88 492.5 106.5Q501 125 505 144.5Q509 164 510 183.5Q511 203 511 221V678H545V223Q545 175 535.5 129.5Q526 84 495 53Q468 26 424.5 9.5Q381 -7 314 -7Z" glyph-name="Udotbelow" horiz-adv-x="628" unicode="Ụ"/><glyph d="M152 846H197L304 737H273ZM238 846H283L390 737H360ZM314 -7Q247 -7 203.5 9.5Q160 26 133 53Q102 84 92.5 129.5Q83 175 83 223V678H117V221Q117 203 118 183.5Q119 164 123 144.5Q127 125 135.5 106.5Q144 88 159 73Q182 50 219 36Q256 22 314 22Q372 22 409 36Q446 50 469 73Q484 88 492.5 106.5Q501 125 505 144.5Q509 164 510 183.5Q511 203 511 221V678H545V223Q545 175 535.5 129.5Q526 84 495 53Q468 26 424.5 9.5Q381 -7 314 -7Z" glyph-name="Udoublegrave" horiz-adv-x="628" unicode="Ȕ"/><glyph d="M188 846H235L342 737H310ZM314 -7Q247 -7 203.5 9.5Q160 26 133 53Q102 84 92.5 129.5Q83 175 83 223V678H117V221Q117 203 118 183.5Q119 164 123 144.5Q127 125 135.5 106.5Q144 88 159 73Q182 50 219 36Q256 22 314 22Q372 22 409 36Q446 50 469 73Q484 88 492.5 106.5Q501 125 505 144.5Q509 164 510 183.5Q511 203 511 221V678H545V223Q545 175 535.5 129.5Q526 84 495 53Q468 26 424.5 9.5Q381 -7 314 -7Z" glyph-name="Ugrave" horiz-adv-x="628" unicode="Ù"/><glyph d="M358 737H327L434 846H479ZM271 737H241L348 846H393ZM314 -7Q247 -7 203.5 9.5Q160 26 133 53Q102 84 92.5 129.5Q83 175 83 223V678H117V221Q117 203 118 183.5Q119 164 123 144.5Q127 125 135.5 106.5Q144 88 159 73Q182 50 219 36Q256 22 314 22Q372 22 409 36Q446 50 469 73Q484 88 492.5 106.5Q501 125 505 144.5Q509 164 510 183.5Q511 203 511 221V678H545V223Q545 175 535.5 129.5Q526 84 495 53Q468 26 424.5 9.5Q381 -7 314 -7Z" glyph-name="Uhungarumlaut" horiz-adv-x="628" unicode="Ű"/><glyph d="M314 823Q268 823 235 804.5Q202 786 191 744H158Q169 800 211.5 824.5Q254 849 314 849Q374 849 416.5 824.5Q459 800 470 744H437Q426 786 393 804.5Q360 823 314 823ZM314 -7Q247 -7 203.5 9.5Q160 26 133 53Q102 84 92.5 129.5Q83 175 83 223V678H117V221Q117 203 118 183.5Q119 164 123 144.5Q127 125 135.5 106.5Q144 88 159 73Q182 50 219 36Q256 22 314 22Q372 22 409 36Q446 50 469 73Q484 88 492.5 106.5Q501 125 505 144.5Q509 164 510 183.5Q511 203 511 221V678H545V223Q545 175 535.5 129.5Q526 84 495 53Q468 26 424.5 9.5Q381 -7 314 -7Z" glyph-name="Uinvertedbreve" horiz-adv-x="628" unicode="Ȗ"/><glyph d="M465 787H163V815H465ZM314 -7Q247 -7 203.5 9.5Q160 26 133 53Q102 84 92.5 129.5Q83 175 83 223V678H117V221Q117 203 118 183.5Q119 164 123 144.5Q127 125 135.5 106.5Q144 88 159 73Q182 50 219 36Q256 22 314 22Q372 22 409 36Q446 50 469 73Q484 88 492.5 106.5Q501 125 505 144.5Q509 164 510 183.5Q511 203 511 221V678H545V223Q545 175 535.5 129.5Q526 84 495 53Q468 26 424.5 9.5Q381 -7 314 -7Z" glyph-name="Umacron" horiz-adv-x="628" unicode="Ū"/><glyph d="M466 -145H164V-117H466ZM314 -7Q247 -7 203.5 9.5Q160 26 133 53Q102 84 92.5 129.5Q83 175 83 223V678H117V221Q117 203 118 183.5Q119 164 123 144.5Q127 125 135.5 106.5Q144 88 159 73Q182 50 219 36Q256 22 314 22Q372 22 409 36Q446 50 469 73Q484 88 492.5 106.5Q501 125 505 144.5Q509 164 510 183.5Q511 203 511 221V678H545V223Q545 175 535.5 129.5Q526 84 495 53Q468 26 424.5 9.5Q381 -7 314 -7Z" glyph-name="Umacronbelow" horiz-adv-x="628" unicode=""/><glyph d="M314 -7Q320 -7 326 -7Q332 -7 338 -6Q309 -26 297 -48Q285 -70 285 -87Q285 -97 288 -106.5Q291 -116 298.5 -123.5Q306 -131 319 -135.5Q332 -140 352 -140Q365 -140 378 -138.5Q391 -137 406 -132V-157Q394 -162 377 -164Q360 -166 346 -166Q294 -166 274.5 -143.5Q255 -121 255 -89Q255 -68 267 -46Q279 -24 299 -7Q239 -5 199 11Q159 27 133 53Q102 84 92.5 129.5Q83 175 83 223V678H117V221Q117 203 118 183.5Q119 164 123 144.5Q127 125 135.5 106.5Q144 88 159 73Q182 50 219 36Q256 22 314 22Q372 22 409 36Q446 50 469 73Q484 88 492.5 106.5Q501 125 505 144.5Q509 164 510 183.5Q511 203 511 221V678H545V223Q545 175 535.5 129.5Q526 84 495 53Q470 28 432.5 12.5Q395 -3 338 -6Q341 -4 349 0L323 9Q308 1 299 -7Z" glyph-name="Uogonek" horiz-adv-x="628" unicode="Ų"/><glyph d="M392 812Q392 779 372 762Q352 745 314 745Q276 745 256 762Q236 779 236 812Q236 847 256 864Q276 881 314 881Q352 881 372 864Q392 847 392 812ZM366 812Q366 859 314 859Q262 859 262 812Q262 767 314 767Q366 767 366 812ZM314 -7Q247 -7 203.5 9.5Q160 26 133 53Q102 84 92.5 129.5Q83 175 83 223V678H117V221Q117 203 118 183.5Q119 164 123 144.5Q127 125 135.5 106.5Q144 88 159 73Q182 50 219 36Q256 22 314 22Q372 22 409 36Q446 50 469 73Q484 88 492.5 106.5Q501 125 505 144.5Q509 164 510 183.5Q511 203 511 221V678H545V223Q545 175 535.5 129.5Q526 84 495 53Q468 26 424.5 9.5Q381 -7 314 -7Z" glyph-name="Uring" horiz-adv-x="628" unicode="Ů"/><glyph d="M385 781Q365 781 347.5 786Q330 791 312.5 797Q295 803 278 808Q261 813 242 813Q222 813 201.5 803.5Q181 794 162 781V811Q177 822 199.5 831.5Q222 841 242 841Q261 841 279 836Q297 831 314 825Q331 819 348.5 814Q366 809 385 809Q405 809 425.5 818.5Q446 828 464 841V811Q450 800 427 790.5Q404 781 385 781ZM314 -7Q247 -7 203.5 9.5Q160 26 133 53Q102 84 92.5 129.5Q83 175 83 223V678H117V221Q117 203 118 183.5Q119 164 123 144.5Q127 125 135.5 106.5Q144 88 159 73Q182 50 219 36Q256 22 314 22Q372 22 409 36Q446 50 469 73Q484 88 492.5 106.5Q501 125 505 144.5Q509 164 510 183.5Q511 203 511 221V678H545V223Q545 175 535.5 129.5Q526 84 495 53Q468 26 424.5 9.5Q381 -7 314 -7Z" glyph-name="Utilde" horiz-adv-x="628" unicode="Ũ"/><glyph d="M507 678H542L303 0H259L17 678H53L280 36H281Z" glyph-name="V" horiz-adv-x="559" unicode="V"/><glyph d="M452 519H450L261 0H218L22 678H58L241 38H242L434 569L392 678H429L666 38H667L850 678H885L689 0H647Z" glyph-name="W" horiz-adv-x="907" unicode="W"/><glyph d="M440 737H407L515 846H562ZM462 519H460L271 0H228L32 678H68L251 38H252L444 569L402 678H439L676 38H677L860 678H895L699 0H657Z" glyph-name="Wacute" horiz-adv-x="905" unicode="Ẃ"/><glyph d="M452 827 370 737H335L440 850H466L571 737H536ZM462 519H460L271 0H228L32 678H68L251 38H252L444 569L402 678H439L676 38H677L860 678H895L699 0H657Z" glyph-name="Wcircumflex" horiz-adv-x="905" unicode="Ŵ"/><glyph d="M538 775H503V839H538ZM403 775H368V839H403ZM462 519H460L271 0H228L32 678H68L251 38H252L444 569L402 678H439L676 38H677L860 678H895L699 0H657Z" glyph-name="Wdieresis" horiz-adv-x="905" unicode="Ẅ"/><glyph d="M275 846H322L429 737H397ZM462 519H460L271 0H228L32 678H68L251 38H252L444 569L402 678H439L676 38H677L860 678H895L699 0H657Z" glyph-name="Wgrave" horiz-adv-x="905" unicode="Ẁ"/><glyph d="M278 341 496 0H458L256 315L56 0H17L236 342L25 678H64L256 367L450 678H489Z" glyph-name="X" horiz-adv-x="513" unicode="X"/><glyph d="M496 678H532L285 285V0H251V284L12 678H51L267 318H268Z" glyph-name="Y" horiz-adv-x="544" unicode="Y"/><glyph d="M281 737H248L356 846H403ZM496 678H532L285 285V0H251V284L12 678H51L267 318H268Z" glyph-name="Yacute" horiz-adv-x="544" unicode="Ý"/><glyph d="M268 827 186 737H151L256 850H282L387 737H352ZM496 678H532L285 285V0H251V284L12 678H51L267 318H268Z" glyph-name="Ycircumflex" horiz-adv-x="544" unicode="Ŷ"/><glyph d="M219 775H184V839H219ZM354 775H319V839H354ZM496 678H532L285 285V0H251V284L12 678H51L267 318H268Z" glyph-name="Ydieresis" horiz-adv-x="544" unicode="Ÿ"/><glyph d="M135 846H182L289 737H257ZM496 678H532L285 285V0H251V284L12 678H51L267 318H268Z" glyph-name="Ygrave" horiz-adv-x="544" unicode="Ỳ"/><glyph d="M420 787H118V815H420ZM496 678H532L285 285V0H251V284L12 678H51L267 318H268Z" glyph-name="Ymacron" horiz-adv-x="544" unicode="Ȳ"/><glyph d="M20 -66Q53 -79 100 -86.5Q147 -94 203 -94Q248 -94 289.5 -81.5Q331 -69 363 -44.5Q395 -20 414 17Q433 54 433 103Q433 196 374 243Q315 290 209 290Q195 290 173 289Q151 288 136 286L130 313L413 648V649H45V678H454V648L173 318H211Q270 318 317.5 305Q365 292 398.5 265Q432 238 450 198Q468 158 468 104Q468 45 445 2Q422 -41 384.5 -69Q347 -97 299.5 -110.5Q252 -124 203 -124Q146 -124 99 -116.5Q52 -109 20 -97Z" glyph-name="Yogh" horiz-adv-x="528" unicode="Ʒ"/><glyph d="M252 756 334 846H369L264 733H238L133 846H168ZM20 -66Q53 -79 100 -86.5Q147 -94 203 -94Q248 -94 289.5 -81.5Q331 -69 363 -44.5Q395 -20 414 17Q433 54 433 103Q433 196 374 243Q315 290 209 290Q195 290 173 289Q151 288 136 286L130 313L413 648V649H45V678H454V648L173 318H211Q270 318 317.5 305Q365 292 398.5 265Q432 238 450 198Q468 158 468 104Q468 45 445 2Q422 -41 384.5 -69Q347 -97 299.5 -110.5Q252 -124 203 -124Q146 -124 99 -116.5Q52 -109 20 -97Z" glyph-name="Yoghcaron" horiz-adv-x="528" unicode=""/><glyph d="M340 787Q320 787 302.5 792Q285 797 267.5 803Q250 809 233 814Q216 819 197 819Q177 819 156.5 809.5Q136 800 117 787V817Q132 828 154.5 837.5Q177 847 197 847Q216 847 234 842Q252 837 269 831Q286 825 303.5 820Q321 815 340 815Q360 815 380.5 824.5Q401 834 419 847V817Q405 806 382 796.5Q359 787 340 787ZM496 678H532L285 285V0H251V284L12 678H51L267 318H268Z" glyph-name="Ytilde" horiz-adv-x="544" unicode="Ỹ"/><glyph d="M478 0H49V29L438 648V649H62V678H479V649L89 30V29H478Z" glyph-name="Z" horiz-adv-x="528" unicode="Z"/><glyph d="M273 737H240L348 846H395ZM478 0H49V29L438 648V649H62V678H479V649L89 30V29H478Z" glyph-name="Zacute" horiz-adv-x="528" unicode="Ź"/><glyph d="M267 756 349 846H384L279 733H253L148 846H183ZM478 0H49V29L438 648V649H62V678H479V649L89 30V29H478Z" glyph-name="Zcaron" horiz-adv-x="528" unicode="Ž"/><glyph d="M283 772H248V846H283ZM478 0H49V29L438 648V649H62V678H479V649L89 30V29H478Z" glyph-name="Zdotaccent" horiz-adv-x="528" unicode="Ż"/><glyph d="M376 255Q353 257 327 258.5Q301 260 279 260Q220 260 178 254Q136 248 112 224Q84 196 84 137Q84 106 94 84Q104 62 122 48Q140 34 164 27.5Q188 21 215 21Q263 21 303.5 38Q344 55 376 87ZM213 -6Q175 -6 142.5 4Q110 14 88 36Q71 53 61 78.5Q51 104 51 138Q51 174 60 199Q69 224 86 241Q114 269 162.5 278Q211 287 276 287Q298 287 325.5 285.5Q353 284 376 282V372Q376 412 367 435.5Q358 459 341 471Q324 483 298.5 486Q273 489 240 489Q211 489 169 485.5Q127 482 89 473V501Q129 511 171.5 513.5Q214 516 244 516Q286 516 317 510Q348 504 368 488.5Q388 473 397.5 445Q407 417 407 373V0H381L378 54H377Q340 24 300 9Q260 -6 213 -6Z" glyph-name="a" horiz-adv-x="491" unicode="a"/><glyph d="M426 440Q377 489 285 489Q241 489 205.5 476Q170 463 145 435Q120 407 107 362.5Q94 318 94 255Q94 132 136 76.5Q178 21 264 21Q312 21 351.5 40.5Q391 60 426 105ZM457 0H431L428 66H427Q392 28 350 11Q308 -6 261 -6Q161 -6 112 56Q63 118 63 254Q63 393 121 454.5Q179 516 283 516Q328 516 363.5 506.5Q399 497 428 474H429L432 510H457Z" glyph-name="a.hist" horiz-adv-x="550" unicode=""/><glyph d="M117 170H374L243 510H242ZM385 143H106L54 0H21L223 541H262L473 0H439Z" glyph-name="a.small" horiz-adv-x="494" unicode=""/><glyph d="M227 440Q213 442 199 442.5Q185 443 174 443Q137 443 110.5 438.5Q84 434 68 418Q52 402 52 369Q52 331 75.5 314.5Q99 298 131 298Q187 298 227 338ZM130 274Q106 274 85 281Q64 288 50 302Q25 327 25 369Q25 392 31 407.5Q37 423 48 434Q68 454 100 460Q132 466 173 466Q184 466 198.5 465.5Q213 465 227 463V515Q227 539 221.5 552.5Q216 566 205.5 573Q195 580 180 582Q165 584 146 584Q128 584 103 582Q78 580 49 569V594Q77 604 104 606Q131 608 149 608Q203 608 228.5 590Q254 572 254 516V279H231L230 308H229Q184 274 130 274Z" glyph-name="a.superior" horiz-adv-x="304" unicode=""/><glyph d="M250 569H217L325 678H372ZM376 255Q353 257 327 258.5Q301 260 279 260Q220 260 178 254Q136 248 112 224Q84 196 84 137Q84 106 94 84Q104 62 122 48Q140 34 164 27.5Q188 21 215 21Q263 21 303.5 38Q344 55 376 87ZM213 -6Q175 -6 142.5 4Q110 14 88 36Q71 53 61 78.5Q51 104 51 138Q51 174 60 199Q69 224 86 241Q114 269 162.5 278Q211 287 276 287Q298 287 325.5 285.5Q353 284 376 282V372Q376 412 367 435.5Q358 459 341 471Q324 483 298.5 486Q273 489 240 489Q211 489 169 485.5Q127 482 89 473V501Q129 511 171.5 513.5Q214 516 244 516Q286 516 317 510Q348 504 368 488.5Q388 473 397.5 445Q407 417 407 373V0H381L378 54H377Q340 24 300 9Q260 -6 213 -6Z" glyph-name="aacute" horiz-adv-x="491" unicode="á"/><glyph d="M295 569H262L370 678H417ZM426 440Q377 489 285 489Q241 489 205.5 476Q170 463 145 435Q120 407 107 362.5Q94 318 94 255Q94 132 136 76.5Q178 21 264 21Q312 21 351.5 40.5Q391 60 426 105ZM457 0H431L428 66H427Q392 28 350 11Q308 -6 261 -6Q161 -6 112 56Q63 118 63 254Q63 393 121 454.5Q179 516 283 516Q328 516 363.5 506.5Q399 497 428 474H429L432 510H457Z" glyph-name="aacute.hist" horiz-adv-x="550" unicode=""/><glyph d="M117 170H374L243 510H242ZM385 143H106L54 0H21L223 541H262L473 0H439ZM259 601H226L334 710H381Z" glyph-name="aacute.small" horiz-adv-x="494" unicode=""/><glyph d="M248 599Q294 599 327 617.5Q360 636 371 678H404Q393 622 350.5 597.5Q308 573 248 573Q188 573 145.5 597.5Q103 622 92 678H125Q136 636 169 617.5Q202 599 248 599ZM376 255Q353 257 327 258.5Q301 260 279 260Q220 260 178 254Q136 248 112 224Q84 196 84 137Q84 106 94 84Q104 62 122 48Q140 34 164 27.5Q188 21 215 21Q263 21 303.5 38Q344 55 376 87ZM213 -6Q175 -6 142.5 4Q110 14 88 36Q71 53 61 78.5Q51 104 51 138Q51 174 60 199Q69 224 86 241Q114 269 162.5 278Q211 287 276 287Q298 287 325.5 285.5Q353 284 376 282V372Q376 412 367 435.5Q358 459 341 471Q324 483 298.5 486Q273 489 240 489Q211 489 169 485.5Q127 482 89 473V501Q129 511 171.5 513.5Q214 516 244 516Q286 516 317 510Q348 504 368 488.5Q388 473 397.5 445Q407 417 407 373V0H381L378 54H377Q340 24 300 9Q260 -6 213 -6Z" glyph-name="abreve" horiz-adv-x="491" unicode="ă"/><glyph d="M284 599Q330 599 363 617.5Q396 636 407 678H440Q429 622 386.5 597.5Q344 573 284 573Q224 573 181.5 597.5Q139 622 128 678H161Q172 636 205 617.5Q238 599 284 599ZM426 440Q377 489 285 489Q241 489 205.5 476Q170 463 145 435Q120 407 107 362.5Q94 318 94 255Q94 132 136 76.5Q178 21 264 21Q312 21 351.5 40.5Q391 60 426 105ZM457 0H431L428 66H427Q392 28 350 11Q308 -6 261 -6Q161 -6 112 56Q63 118 63 254Q63 393 121 454.5Q179 516 283 516Q328 516 363.5 506.5Q399 497 428 474H429L432 510H457Z" glyph-name="abreve.hist" horiz-adv-x="550" unicode=""/><glyph d="M117 170H374L243 510H242ZM385 143H106L54 0H21L223 541H262L473 0H439ZM242 631Q288 631 321 649.5Q354 668 365 710H398Q387 654 344.5 629.5Q302 605 242 605Q182 605 139.5 629.5Q97 654 86 710H119Q130 668 163 649.5Q196 631 242 631Z" glyph-name="abreve.small" horiz-adv-x="494" unicode=""/><glyph d="M244 588 326 678H361L256 565H230L125 678H160ZM376 255Q353 257 327 258.5Q301 260 279 260Q220 260 178 254Q136 248 112 224Q84 196 84 137Q84 106 94 84Q104 62 122 48Q140 34 164 27.5Q188 21 215 21Q263 21 303.5 38Q344 55 376 87ZM213 -6Q175 -6 142.5 4Q110 14 88 36Q71 53 61 78.5Q51 104 51 138Q51 174 60 199Q69 224 86 241Q114 269 162.5 278Q211 287 276 287Q298 287 325.5 285.5Q353 284 376 282V372Q376 412 367 435.5Q358 459 341 471Q324 483 298.5 486Q273 489 240 489Q211 489 169 485.5Q127 482 89 473V501Q129 511 171.5 513.5Q214 516 244 516Q286 516 317 510Q348 504 368 488.5Q388 473 397.5 445Q407 417 407 373V0H381L378 54H377Q340 24 300 9Q260 -6 213 -6Z" glyph-name="acaron" horiz-adv-x="491" unicode="ǎ"/><glyph d="M283 588 365 678H400L295 565H269L164 678H199ZM426 440Q377 489 285 489Q241 489 205.5 476Q170 463 145 435Q120 407 107 362.5Q94 318 94 255Q94 132 136 76.5Q178 21 264 21Q312 21 351.5 40.5Q391 60 426 105ZM457 0H431L428 66H427Q392 28 350 11Q308 -6 261 -6Q161 -6 112 56Q63 118 63 254Q63 393 121 454.5Q179 516 283 516Q328 516 363.5 506.5Q399 497 428 474H429L432 510H457Z" glyph-name="acaron.hist" horiz-adv-x="550" unicode=""/><glyph d="M242 620 324 710H359L254 597H228L123 710H158ZM117 170H374L243 510H242ZM385 143H106L54 0H21L223 541H262L473 0H439Z" glyph-name="acaron.small" horiz-adv-x="494" unicode=""/><glyph d="M246 659 164 569H129L234 682H260L365 569H330ZM376 255Q353 257 327 258.5Q301 260 279 260Q220 260 178 254Q136 248 112 224Q84 196 84 137Q84 106 94 84Q104 62 122 48Q140 34 164 27.5Q188 21 215 21Q263 21 303.5 38Q344 55 376 87ZM213 -6Q175 -6 142.5 4Q110 14 88 36Q71 53 61 78.5Q51 104 51 138Q51 174 60 199Q69 224 86 241Q114 269 162.5 278Q211 287 276 287Q298 287 325.5 285.5Q353 284 376 282V372Q376 412 367 435.5Q358 459 341 471Q324 483 298.5 486Q273 489 240 489Q211 489 169 485.5Q127 482 89 473V501Q129 511 171.5 513.5Q214 516 244 516Q286 516 317 510Q348 504 368 488.5Q388 473 397.5 445Q407 417 407 373V0H381L378 54H377Q340 24 300 9Q260 -6 213 -6Z" glyph-name="acircumflex" horiz-adv-x="491" unicode="â"/><glyph d="M275 659 193 569H158L263 682H289L394 569H359ZM426 440Q377 489 285 489Q241 489 205.5 476Q170 463 145 435Q120 407 107 362.5Q94 318 94 255Q94 132 136 76.5Q178 21 264 21Q312 21 351.5 40.5Q391 60 426 105ZM457 0H431L428 66H427Q392 28 350 11Q308 -6 261 -6Q161 -6 112 56Q63 118 63 254Q63 393 121 454.5Q179 516 283 516Q328 516 363.5 506.5Q399 497 428 474H429L432 510H457Z" glyph-name="acircumflex.hist" horiz-adv-x="550" unicode=""/><glyph d="M242 690 160 600H125L230 713H256L361 600H326ZM117 170H374L243 510H242ZM385 143H106L54 0H21L223 541H262L473 0H439Z" glyph-name="acircumflex.small" horiz-adv-x="494" unicode=""/><glyph d="M281 569H248L356 678H403Z" glyph-name="acute" horiz-adv-x="600" unicode="´"/><glyph d="M278 737H245L353 846H400Z" glyph-name="acute.cap" horiz-adv-x="600" unicode=""/><glyph d="M278 601H245L353 710H400Z" glyph-name="acute.small" horiz-adv-x="600" unicode=""/><glyph d="M329 607H294V671H329ZM194 607H159V671H194ZM376 255Q353 257 327 258.5Q301 260 279 260Q220 260 178 254Q136 248 112 224Q84 196 84 137Q84 106 94 84Q104 62 122 48Q140 34 164 27.5Q188 21 215 21Q263 21 303.5 38Q344 55 376 87ZM213 -6Q175 -6 142.5 4Q110 14 88 36Q71 53 61 78.5Q51 104 51 138Q51 174 60 199Q69 224 86 241Q114 269 162.5 278Q211 287 276 287Q298 287 325.5 285.5Q353 284 376 282V372Q376 412 367 435.5Q358 459 341 471Q324 483 298.5 486Q273 489 240 489Q211 489 169 485.5Q127 482 89 473V501Q129 511 171.5 513.5Q214 516 244 516Q286 516 317 510Q348 504 368 488.5Q388 473 397.5 445Q407 417 407 373V0H381L378 54H377Q340 24 300 9Q260 -6 213 -6Z" glyph-name="adieresis" horiz-adv-x="491" unicode="ä"/><glyph d="M365 607H330V671H365ZM230 607H195V671H230ZM426 440Q377 489 285 489Q241 489 205.5 476Q170 463 145 435Q120 407 107 362.5Q94 318 94 255Q94 132 136 76.5Q178 21 264 21Q312 21 351.5 40.5Q391 60 426 105ZM457 0H431L428 66H427Q392 28 350 11Q308 -6 261 -6Q161 -6 112 56Q63 118 63 254Q63 393 121 454.5Q179 516 283 516Q328 516 363.5 506.5Q399 497 428 474H429L432 510H457Z" glyph-name="adieresis.hist" horiz-adv-x="550" unicode=""/><glyph d="M328 639H293V703H328ZM193 639H158V703H193ZM117 170H374L243 510H242ZM385 143H106L54 0H21L223 541H262L473 0H439Z" glyph-name="adieresis.small" horiz-adv-x="494" unicode=""/><glyph d="M331 607H296V671H331ZM196 607H161V671H196ZM397 756H95V784H397ZM376 255Q353 257 327 258.5Q301 260 279 260Q220 260 178 254Q136 248 112 224Q84 196 84 137Q84 106 94 84Q104 62 122 48Q140 34 164 27.5Q188 21 215 21Q263 21 303.5 38Q344 55 376 87ZM213 -6Q175 -6 142.5 4Q110 14 88 36Q71 53 61 78.5Q51 104 51 138Q51 174 60 199Q69 224 86 241Q114 269 162.5 278Q211 287 276 287Q298 287 325.5 285.5Q353 284 376 282V372Q376 412 367 435.5Q358 459 341 471Q324 483 298.5 486Q273 489 240 489Q211 489 169 485.5Q127 482 89 473V501Q129 511 171.5 513.5Q214 516 244 516Q286 516 317 510Q348 504 368 488.5Q388 473 397.5 445Q407 417 407 373V0H381L378 54H377Q340 24 300 9Q260 -6 213 -6Z" glyph-name="adieresismacron" horiz-adv-x="491" unicode="ǟ"/><glyph d="M370 607H335V671H370ZM235 607H200V671H235ZM436 756H134V784H436ZM426 440Q377 489 285 489Q241 489 205.5 476Q170 463 145 435Q120 407 107 362.5Q94 318 94 255Q94 132 136 76.5Q178 21 264 21Q312 21 351.5 40.5Q391 60 426 105ZM457 0H431L428 66H427Q392 28 350 11Q308 -6 261 -6Q161 -6 112 56Q63 118 63 254Q63 393 121 454.5Q179 516 283 516Q328 516 363.5 506.5Q399 497 428 474H429L432 510H457Z" glyph-name="adieresismacron.hist" horiz-adv-x="550" unicode=""/><glyph d="M328 638H293V702H328ZM193 638H158V702H193ZM117 170H374L243 510H242ZM385 143H106L54 0H21L223 541H262L473 0H439ZM394 788H92V816H394Z" glyph-name="adieresismacron.small" horiz-adv-x="494" unicode=""/><glyph d="M262 604H227V678H262ZM376 255Q353 257 327 258.5Q301 260 279 260Q220 260 178 254Q136 248 112 224Q84 196 84 137Q84 106 94 84Q104 62 122 48Q140 34 164 27.5Q188 21 215 21Q263 21 303.5 38Q344 55 376 87ZM213 -6Q175 -6 142.5 4Q110 14 88 36Q71 53 61 78.5Q51 104 51 138Q51 174 60 199Q69 224 86 241Q114 269 162.5 278Q211 287 276 287Q298 287 325.5 285.5Q353 284 376 282V372Q376 412 367 435.5Q358 459 341 471Q324 483 298.5 486Q273 489 240 489Q211 489 169 485.5Q127 482 89 473V501Q129 511 171.5 513.5Q214 516 244 516Q286 516 317 510Q348 504 368 488.5Q388 473 397.5 445Q407 417 407 373V0H381L378 54H377Q340 24 300 9Q260 -6 213 -6Z" glyph-name="adotabove" horiz-adv-x="491" unicode="ȧ"/><glyph d="M292 604H257V678H292ZM426 440Q377 489 285 489Q241 489 205.5 476Q170 463 145 435Q120 407 107 362.5Q94 318 94 255Q94 132 136 76.5Q178 21 264 21Q312 21 351.5 40.5Q391 60 426 105ZM457 0H431L428 66H427Q392 28 350 11Q308 -6 261 -6Q161 -6 112 56Q63 118 63 254Q63 393 121 454.5Q179 516 283 516Q328 516 363.5 506.5Q399 497 428 474H429L432 510H457Z" glyph-name="adotabove.hist" horiz-adv-x="550" unicode=""/><glyph d="M260 608H225V682H260ZM117 170H374L243 510H242ZM385 143H106L54 0H21L223 541H262L473 0H439Z" glyph-name="adotabove.small" horiz-adv-x="494" unicode=""/><glyph d="M74 678H119L226 569H195ZM160 678H205L312 569H282ZM376 255Q353 257 327 258.5Q301 260 279 260Q220 260 178 254Q136 248 112 224Q84 196 84 137Q84 106 94 84Q104 62 122 48Q140 34 164 27.5Q188 21 215 21Q263 21 303.5 38Q344 55 376 87ZM213 -6Q175 -6 142.5 4Q110 14 88 36Q71 53 61 78.5Q51 104 51 138Q51 174 60 199Q69 224 86 241Q114 269 162.5 278Q211 287 276 287Q298 287 325.5 285.5Q353 284 376 282V372Q376 412 367 435.5Q358 459 341 471Q324 483 298.5 486Q273 489 240 489Q211 489 169 485.5Q127 482 89 473V501Q129 511 171.5 513.5Q214 516 244 516Q286 516 317 510Q348 504 368 488.5Q388 473 397.5 445Q407 417 407 373V0H381L378 54H377Q340 24 300 9Q260 -6 213 -6Z" glyph-name="adoublegrave" horiz-adv-x="491" unicode=""/><glyph d="M198 678H243L350 569H320ZM112 678H157L264 569H233ZM426 440Q377 489 285 489Q241 489 205.5 476Q170 463 145 435Q120 407 107 362.5Q94 318 94 255Q94 132 136 76.5Q178 21 264 21Q312 21 351.5 40.5Q391 60 426 105ZM457 0H431L428 66H427Q392 28 350 11Q308 -6 261 -6Q161 -6 112 56Q63 118 63 254Q63 393 121 454.5Q179 516 283 516Q328 516 363.5 506.5Q399 497 428 474H429L432 510H457Z" glyph-name="adoublegrave.hist" horiz-adv-x="550" unicode=""/><glyph d="M66 710H111L218 601H187ZM152 710H197L304 601H274ZM117 170H374L243 510H242ZM385 143H106L54 0H21L223 541H262L473 0H439Z" glyph-name="adoublegrave.small" horiz-adv-x="494" unicode=""/><glyph d="M581 489Q545 489 516 479.5Q487 470 465 448Q442 425 428 385.5Q414 346 410 287H730Q731 297 731 301.5Q731 306 731 311Q731 359 721.5 394Q712 429 689 452Q652 489 581 489ZM279 260Q220 260 178 254Q136 248 112 224Q84 196 84 137Q84 106 94 84Q104 62 122 48Q140 34 164 27.5Q188 21 215 21Q259 21 308 39.5Q357 58 400 107Q387 136 382.5 171Q378 206 377 251V254Q355 257 327 258.5Q299 260 279 260ZM597 21Q632 21 666 25.5Q700 30 741 45V16Q710 4 670 -1Q630 -6 595 -6Q529 -6 484 15Q439 36 413 81H412Q367 32 314 13Q261 -6 213 -6Q175 -6 142.5 4Q110 14 88 36Q71 53 61 78.5Q51 104 51 138Q51 174 60 199Q69 224 86 241Q114 269 162.5 278Q211 287 276 287Q296 287 324.5 285.5Q353 284 376 282V370Q376 410 367 433.5Q358 457 340.5 469.5Q323 482 297.5 485.5Q272 489 240 489Q211 489 169 485.5Q127 482 89 473V501Q129 511 171.5 513.5Q214 516 244 516Q283 516 311 511Q339 506 358 493Q377 480 388 458Q399 436 402 402H403Q427 462 471.5 489Q516 516 581 516Q680 516 721 462Q762 408 762 308Q762 304 761.5 290.5Q761 277 759 260H409Q409 187 423 139.5Q437 92 466 63Q489 40 521.5 30.5Q554 21 597 21Z" glyph-name="ae" horiz-adv-x="822" unicode="æ"/><glyph d="M119 169H399V507H398ZM97 142 -19 0H-59Q53 136 164.5 270.5Q276 405 388 541H714V514H430V290H679V263H430V26H720V0H399V142Z" glyph-name="ae.small" horiz-adv-x="757" unicode=""/><glyph d="M427 572H394L502 681H549ZM581 489Q545 489 516 479.5Q487 470 465 448Q442 425 428 385.5Q414 346 410 287H730Q731 297 731 301.5Q731 306 731 311Q731 359 721.5 394Q712 429 689 452Q652 489 581 489ZM279 260Q220 260 178 254Q136 248 112 224Q84 196 84 137Q84 106 94 84Q104 62 122 48Q140 34 164 27.5Q188 21 215 21Q259 21 308 39.5Q357 58 400 107Q387 136 382.5 171Q378 206 377 251V254Q355 257 327 258.5Q299 260 279 260ZM597 21Q632 21 666 25.5Q700 30 741 45V16Q710 4 670 -1Q630 -6 595 -6Q529 -6 484 15Q439 36 413 81H412Q367 32 314 13Q261 -6 213 -6Q175 -6 142.5 4Q110 14 88 36Q71 53 61 78.5Q51 104 51 138Q51 174 60 199Q69 224 86 241Q114 269 162.5 278Q211 287 276 287Q296 287 324.5 285.5Q353 284 376 282V370Q376 410 367 433.5Q358 457 340.5 469.5Q323 482 297.5 485.5Q272 489 240 489Q211 489 169 485.5Q127 482 89 473V501Q129 511 171.5 513.5Q214 516 244 516Q283 516 311 511Q339 506 358 493Q377 480 388 458Q399 436 402 402H403Q427 462 471.5 489Q516 516 581 516Q680 516 721 462Q762 408 762 308Q762 304 761.5 290.5Q761 277 759 260H409Q409 187 423 139.5Q437 92 466 63Q489 40 521.5 30.5Q554 21 597 21Z" glyph-name="aeacute" horiz-adv-x="822" unicode="ǽ"/><glyph d="M495 601H462L570 710H617ZM119 169H399V507H398ZM97 142 -19 0H-59Q53 136 164.5 270.5Q276 405 388 541H714V514H430V290H679V263H430V26H720V0H399V142Z" glyph-name="aeacute.small" horiz-adv-x="757" unicode=""/><glyph d="M570 619H268V647H570ZM581 489Q545 489 516 479.5Q487 470 465 448Q442 425 428 385.5Q414 346 410 287H730Q731 297 731 301.5Q731 306 731 311Q731 359 721.5 394Q712 429 689 452Q652 489 581 489ZM279 260Q220 260 178 254Q136 248 112 224Q84 196 84 137Q84 106 94 84Q104 62 122 48Q140 34 164 27.5Q188 21 215 21Q259 21 308 39.5Q357 58 400 107Q387 136 382.5 171Q378 206 377 251V254Q355 257 327 258.5Q299 260 279 260ZM597 21Q632 21 666 25.5Q700 30 741 45V16Q710 4 670 -1Q630 -6 595 -6Q529 -6 484 15Q439 36 413 81H412Q367 32 314 13Q261 -6 213 -6Q175 -6 142.5 4Q110 14 88 36Q71 53 61 78.5Q51 104 51 138Q51 174 60 199Q69 224 86 241Q114 269 162.5 278Q211 287 276 287Q296 287 324.5 285.5Q353 284 376 282V370Q376 410 367 433.5Q358 457 340.5 469.5Q323 482 297.5 485.5Q272 489 240 489Q211 489 169 485.5Q127 482 89 473V501Q129 511 171.5 513.5Q214 516 244 516Q283 516 311 511Q339 506 358 493Q377 480 388 458Q399 436 402 402H403Q427 462 471.5 489Q516 516 581 516Q680 516 721 462Q762 408 762 308Q762 304 761.5 290.5Q761 277 759 260H409Q409 187 423 139.5Q437 92 466 63Q489 40 521.5 30.5Q554 21 597 21Z" glyph-name="aemacron" horiz-adv-x="822" unicode="ǣ"/><glyph d="M592 651H290V679H592ZM119 169H399V507H398ZM97 142 -19 0H-59Q53 136 164.5 270.5Q276 405 388 541H714V514H430V290H679V263H430V26H720V0H399V142Z" glyph-name="aemacron.small" horiz-adv-x="757" unicode=""/><glyph d="M271 571Q271 610 258 633Q245 656 220 656Q188 656 170 617Q152 578 152 485V276Q203 327 237 404Q271 481 271 571ZM304 570Q304 519 292 470.5Q280 422 259 379Q238 336 210.5 299.5Q183 263 152 236V109Q152 61 166 41Q180 21 221 21Q229 21 243.5 23Q258 25 268 27V0Q258 -3 243 -4.5Q228 -6 221 -6Q173 -6 146.5 16.5Q120 39 120 101V211Q97 194 71 182V214Q96 228 120 246V489Q120 548 127.5 586Q135 624 148.5 645.5Q162 667 180.5 675.5Q199 684 220 684Q261 684 282.5 652.5Q304 621 304 570Z" glyph-name="afii61289" horiz-adv-x="364" unicode="ℓ"/><glyph d="M130 678H177L284 569H252ZM376 255Q353 257 327 258.5Q301 260 279 260Q220 260 178 254Q136 248 112 224Q84 196 84 137Q84 106 94 84Q104 62 122 48Q140 34 164 27.5Q188 21 215 21Q263 21 303.5 38Q344 55 376 87ZM213 -6Q175 -6 142.5 4Q110 14 88 36Q71 53 61 78.5Q51 104 51 138Q51 174 60 199Q69 224 86 241Q114 269 162.5 278Q211 287 276 287Q298 287 325.5 285.5Q353 284 376 282V372Q376 412 367 435.5Q358 459 341 471Q324 483 298.5 486Q273 489 240 489Q211 489 169 485.5Q127 482 89 473V501Q129 511 171.5 513.5Q214 516 244 516Q286 516 317 510Q348 504 368 488.5Q388 473 397.5 445Q407 417 407 373V0H381L378 54H377Q340 24 300 9Q260 -6 213 -6Z" glyph-name="agrave" horiz-adv-x="491" unicode="à"/><glyph d="M165 678H212L319 569H287ZM426 440Q377 489 285 489Q241 489 205.5 476Q170 463 145 435Q120 407 107 362.5Q94 318 94 255Q94 132 136 76.5Q178 21 264 21Q312 21 351.5 40.5Q391 60 426 105ZM457 0H431L428 66H427Q392 28 350 11Q308 -6 261 -6Q161 -6 112 56Q63 118 63 254Q63 393 121 454.5Q179 516 283 516Q328 516 363.5 506.5Q399 497 428 474H429L432 510H457Z" glyph-name="agrave.hist" horiz-adv-x="550" unicode=""/><glyph d="M105 710H152L259 601H227ZM117 170H374L243 510H242ZM385 143H106L54 0H21L223 541H262L473 0H439Z" glyph-name="agrave.small" horiz-adv-x="494" unicode=""/><glyph d="M239 655Q193 655 160 636.5Q127 618 116 576H83Q94 632 136.5 656.5Q179 681 239 681Q299 681 341.5 656.5Q384 632 395 576H362Q351 618 318 636.5Q285 655 239 655ZM376 255Q353 257 327 258.5Q301 260 279 260Q220 260 178 254Q136 248 112 224Q84 196 84 137Q84 106 94 84Q104 62 122 48Q140 34 164 27.5Q188 21 215 21Q263 21 303.5 38Q344 55 376 87ZM213 -6Q175 -6 142.5 4Q110 14 88 36Q71 53 61 78.5Q51 104 51 138Q51 174 60 199Q69 224 86 241Q114 269 162.5 278Q211 287 276 287Q298 287 325.5 285.5Q353 284 376 282V372Q376 412 367 435.5Q358 459 341 471Q324 483 298.5 486Q273 489 240 489Q211 489 169 485.5Q127 482 89 473V501Q129 511 171.5 513.5Q214 516 244 516Q286 516 317 510Q348 504 368 488.5Q388 473 397.5 445Q407 417 407 373V0H381L378 54H377Q340 24 300 9Q260 -6 213 -6Z" glyph-name="ainvertedbreve" horiz-adv-x="491" unicode="ȃ"/><glyph d="M281 655Q235 655 202 636.5Q169 618 158 576H125Q136 632 178.5 656.5Q221 681 281 681Q341 681 383.5 656.5Q426 632 437 576H404Q393 618 360 636.5Q327 655 281 655ZM426 440Q377 489 285 489Q241 489 205.5 476Q170 463 145 435Q120 407 107 362.5Q94 318 94 255Q94 132 136 76.5Q178 21 264 21Q312 21 351.5 40.5Q391 60 426 105ZM457 0H431L428 66H427Q392 28 350 11Q308 -6 261 -6Q161 -6 112 56Q63 118 63 254Q63 393 121 454.5Q179 516 283 516Q328 516 363.5 506.5Q399 497 428 474H429L432 510H457Z" glyph-name="ainvertedbreve.hist" horiz-adv-x="550" unicode=""/><glyph d="M242 687Q196 687 163 668.5Q130 650 119 608H86Q97 664 139.5 688.5Q182 713 242 713Q302 713 344.5 688.5Q387 664 398 608H365Q354 650 321 668.5Q288 687 242 687ZM117 170H374L243 510H242ZM385 143H106L54 0H21L223 541H262L473 0H439Z" glyph-name="ainvertedbreve.small" horiz-adv-x="494" unicode=""/><glyph d="M292 -46Q380 -51 380 -104Q380 -137 354 -151.5Q328 -166 281 -166Q271 -166 252.5 -164Q234 -162 215 -157V-132Q229 -136 248.5 -138Q268 -140 282 -140Q313 -140 331.5 -133Q350 -126 350 -103Q350 -93 344 -86.5Q338 -80 328 -76Q318 -72 305.5 -70.5Q293 -69 280 -68Z" glyph-name="altcedilla" horiz-adv-x="608" unicode=""/><glyph d="M394 619H92V647H394ZM376 255Q353 257 327 258.5Q301 260 279 260Q220 260 178 254Q136 248 112 224Q84 196 84 137Q84 106 94 84Q104 62 122 48Q140 34 164 27.5Q188 21 215 21Q263 21 303.5 38Q344 55 376 87ZM213 -6Q175 -6 142.5 4Q110 14 88 36Q71 53 61 78.5Q51 104 51 138Q51 174 60 199Q69 224 86 241Q114 269 162.5 278Q211 287 276 287Q298 287 325.5 285.5Q353 284 376 282V372Q376 412 367 435.5Q358 459 341 471Q324 483 298.5 486Q273 489 240 489Q211 489 169 485.5Q127 482 89 473V501Q129 511 171.5 513.5Q214 516 244 516Q286 516 317 510Q348 504 368 488.5Q388 473 397.5 445Q407 417 407 373V0H381L378 54H377Q340 24 300 9Q260 -6 213 -6Z" glyph-name="amacron" horiz-adv-x="491" unicode="ā"/><glyph d="M432 619H130V647H432ZM426 440Q377 489 285 489Q241 489 205.5 476Q170 463 145 435Q120 407 107 362.5Q94 318 94 255Q94 132 136 76.5Q178 21 264 21Q312 21 351.5 40.5Q391 60 426 105ZM457 0H431L428 66H427Q392 28 350 11Q308 -6 261 -6Q161 -6 112 56Q63 118 63 254Q63 393 121 454.5Q179 516 283 516Q328 516 363.5 506.5Q399 497 428 474H429L432 510H457Z" glyph-name="amacron.hist" horiz-adv-x="550" unicode=""/><glyph d="M117 170H374L243 510H242ZM385 143H106L54 0H21L223 541H262L473 0H439ZM394 651H92V679H394Z" glyph-name="amacron.small" horiz-adv-x="494" unicode=""/><glyph d="M476 332H296Q261 332 225.5 320Q190 308 162 280Q144 262 133 234.5Q122 207 122 172Q122 95 165 58.5Q208 22 280 22Q308 22 336 26Q364 30 389.5 41Q415 52 437 70.5Q459 89 476 118ZM482 78Q461 51 437 34.5Q413 18 386 9Q359 0 330.5 -3.5Q302 -7 272 -7Q190 -7 139 38.5Q88 84 88 172Q88 209 98.5 238Q109 267 127 288.5Q145 310 168.5 324.5Q192 339 217 348V349Q195 358 174.5 373.5Q154 389 138.5 410Q123 431 113.5 458Q104 485 104 517Q104 552 115 582.5Q126 613 149.5 635.5Q173 658 210 671Q247 684 300 684Q319 684 349.5 682Q380 680 405 674V644Q381 650 352.5 652.5Q324 655 302 655Q256 655 225 643.5Q194 632 174.5 613Q155 594 146.5 568.5Q138 543 138 515Q138 480 149.5 454Q161 428 181 408Q206 383 244.5 371.5Q283 360 325 360H478L485 484H509L508 358H636V332H507V141Q507 78 525 49Q543 20 595 20Q612 20 631 22.5Q650 25 663 30V2Q646 -3 627.5 -5Q609 -7 591 -7Q538 -7 515 16Q492 39 483 78Z" glyph-name="ampersand" horiz-adv-x="720" unicode="&amp;"/><glyph d="M235 477H234L49 0H17L215 510H255L453 0H418Z" glyph-name="anocross" horiz-adv-x="470" unicode=""/><glyph d="M245 510H244L55 0H21L224 541H263L473 0H440Z" glyph-name="anocross.small" horiz-adv-x="494" unicode=""/><glyph d="M376 255Q353 257 327 258.5Q301 260 279 260Q220 260 178 254Q136 248 112 224Q84 196 84 137Q84 106 94 84Q104 62 122 48Q140 34 164 27.5Q188 21 215 21Q263 21 303.5 38Q344 55 376 87ZM213 -6Q175 -6 142.5 4Q110 14 88 36Q71 53 61 78.5Q51 104 51 138Q51 174 60 199Q69 224 86 241Q114 269 162.5 278Q211 287 276 287Q298 287 325.5 285.5Q353 284 376 282V372Q376 412 367 435.5Q358 459 341 471Q324 483 298.5 486Q273 489 240 489Q211 489 169 485.5Q127 482 89 473V501Q129 511 171.5 513.5Q214 516 244 516Q286 516 317 510Q348 504 368 488.5Q388 473 397.5 445Q407 417 407 373V0Q370 -22 356 -45Q342 -68 342 -86Q342 -95 345 -105Q348 -115 355.5 -122.5Q363 -130 376 -135Q389 -140 409 -140Q423 -140 435.5 -138Q448 -136 464 -131V-157Q451 -161 434.5 -163Q418 -165 404 -165Q352 -165 332 -142.5Q312 -120 312 -88Q312 -63 331.5 -36.5Q351 -10 380 7L378 54H377Q340 24 300 9Q260 -6 213 -6Z" glyph-name="aogonek" horiz-adv-x="491" unicode="ą"/><glyph d="M426 440Q377 489 285 489Q241 489 205.5 476Q170 463 145 435Q120 407 107 362.5Q94 318 94 255Q94 132 136 76.5Q178 21 264 21Q312 21 351.5 40.5Q391 60 426 105ZM457 0Q420 -22 406 -45Q392 -68 392 -86Q392 -95 395 -105Q398 -115 405.5 -122.5Q413 -130 426 -135Q439 -140 459 -140Q473 -140 485.5 -138Q498 -136 514 -131V-157Q501 -161 484.5 -163Q468 -165 454 -165Q402 -165 382 -142.5Q362 -120 362 -88Q362 -63 381 -36.5Q400 -10 430 8L428 66H427Q392 28 350 11Q308 -6 261 -6Q161 -6 112 56Q63 118 63 254Q63 393 121 454.5Q179 516 283 516Q328 516 363.5 506.5Q399 497 428 474H429L432 510H457Z" glyph-name="aogonek.hist" horiz-adv-x="550" unicode=""/><glyph d="M117 170H374L243 510H242ZM378 -89Q378 -64 394.5 -38.5Q411 -13 437 4L385 143H106L54 0H21L223 541H262L473 0H472Q437 -20 422.5 -44Q408 -68 408 -87Q408 -97 411 -106.5Q414 -116 421.5 -123.5Q429 -131 442 -135.5Q455 -140 475 -140Q488 -140 501 -138.5Q514 -137 529 -132V-157Q517 -162 500 -164Q483 -166 469 -166Q417 -166 397.5 -143.5Q378 -121 378 -89Z" glyph-name="aogonek.small" horiz-adv-x="494" unicode=""/><glyph d="M396 329Q369 329 341.5 335Q314 341 287 348Q260 355 233 361Q206 367 179 367Q153 367 122.5 358Q92 349 64 330V361Q90 380 121.5 388Q153 396 181 396Q209 396 236 390Q263 384 290 377Q317 370 344 364Q371 358 398 358Q424 358 454.5 367Q485 376 513 395V364Q487 345 455.5 337Q424 329 396 329ZM396 149Q369 149 341.5 155Q314 161 287 168Q260 175 233 181Q206 187 179 187Q153 187 122.5 178Q92 169 64 150V181Q90 200 121.5 208Q153 216 181 216Q209 216 236 210Q263 204 290 197Q317 190 344 184Q371 178 398 178Q424 178 454.5 187Q485 196 513 215V184Q487 165 455.5 157Q424 149 396 149Z" glyph-name="approxequal" horiz-adv-x="577" unicode="≈"/><glyph d="M323 644Q323 611 303 594Q283 577 245 577Q207 577 187 594Q167 611 167 644Q167 679 187 696Q207 713 245 713Q283 713 303 696Q323 679 323 644ZM297 644Q297 691 245 691Q193 691 193 644Q193 599 245 599Q297 599 297 644ZM376 255Q353 257 327 258.5Q301 260 279 260Q220 260 178 254Q136 248 112 224Q84 196 84 137Q84 106 94 84Q104 62 122 48Q140 34 164 27.5Q188 21 215 21Q263 21 303.5 38Q344 55 376 87ZM213 -6Q175 -6 142.5 4Q110 14 88 36Q71 53 61 78.5Q51 104 51 138Q51 174 60 199Q69 224 86 241Q114 269 162.5 278Q211 287 276 287Q298 287 325.5 285.5Q353 284 376 282V372Q376 412 367 435.5Q358 459 341 471Q324 483 298.5 486Q273 489 240 489Q211 489 169 485.5Q127 482 89 473V501Q129 511 171.5 513.5Q214 516 244 516Q286 516 317 510Q348 504 368 488.5Q388 473 397.5 445Q407 417 407 373V0H381L378 54H377Q340 24 300 9Q260 -6 213 -6Z" glyph-name="aring" horiz-adv-x="491" unicode="å"/><glyph d="M335 644Q335 691 283 691Q231 691 231 644Q231 599 283 599Q335 599 335 644ZM361 644Q361 611 341 594Q321 577 283 577Q245 577 225 594Q205 611 205 644Q205 679 225 696Q245 713 283 713Q321 713 341 696Q361 679 361 644ZM426 440Q377 489 285 489Q241 489 205.5 476Q170 463 145 435Q120 407 107 362.5Q94 318 94 255Q94 132 136 76.5Q178 21 264 21Q312 21 351.5 40.5Q391 60 426 105ZM457 0H431L428 66H427Q392 28 350 11Q308 -6 261 -6Q161 -6 112 56Q63 118 63 254Q63 393 121 454.5Q179 516 283 516Q328 516 363.5 506.5Q399 497 428 474H429L432 510H457Z" glyph-name="aring.hist" horiz-adv-x="550" unicode=""/><glyph d="M117 170H374L243 510H242ZM385 143H106L54 0H21L223 541H262L473 0H439ZM321 676Q321 643 301 626Q281 609 243 609Q205 609 185 626Q165 643 165 676Q165 711 185 728Q205 745 243 745Q281 745 301 728Q321 711 321 676ZM295 676Q295 723 243 723Q191 723 191 676Q191 631 243 631Q295 631 295 676Z" glyph-name="aring.small" horiz-adv-x="494" unicode=""/><glyph d="M303 645Q303 692 250 692Q226 692 212.5 680Q199 668 199 645Q199 622 212.5 611Q226 600 250 600Q303 600 303 645ZM330 645Q330 612 309 595Q288 578 250 578Q213 578 192.5 595Q172 612 172 645Q172 662 179 675.5Q186 689 198 700L299 801H335L247 714Q283 714 306.5 696.5Q330 679 330 645ZM376 255Q353 257 327 258.5Q301 260 279 260Q220 260 178 254Q136 248 112 224Q84 196 84 137Q84 106 94 84Q104 62 122 48Q140 34 164 27.5Q188 21 215 21Q263 21 303.5 38Q344 55 376 87ZM213 -6Q175 -6 142.5 4Q110 14 88 36Q71 53 61 78.5Q51 104 51 138Q51 174 60 199Q69 224 86 241Q114 269 162.5 278Q211 287 276 287Q298 287 325.5 285.5Q353 284 376 282V372Q376 412 367 435.5Q358 459 341 471Q324 483 298.5 486Q273 489 240 489Q211 489 169 485.5Q127 482 89 473V501Q129 511 171.5 513.5Q214 516 244 516Q286 516 317 510Q348 504 368 488.5Q388 473 397.5 445Q407 417 407 373V0H381L378 54H377Q340 24 300 9Q260 -6 213 -6Z" glyph-name="aringacute" horiz-adv-x="491" unicode="ǻ"/><glyph d="M334 645Q334 692 281 692Q257 692 243.5 680Q230 668 230 645Q230 622 243.5 611Q257 600 281 600Q334 600 334 645ZM361 645Q361 612 340 595Q319 578 281 578Q244 578 223.5 595Q203 612 203 645Q203 662 210 675.5Q217 689 229 700L330 801H366L278 714Q314 714 337.5 696.5Q361 679 361 645ZM426 440Q377 489 285 489Q241 489 205.5 476Q170 463 145 435Q120 407 107 362.5Q94 318 94 255Q94 132 136 76.5Q178 21 264 21Q312 21 351.5 40.5Q391 60 426 105ZM457 0H431L428 66H427Q392 28 350 11Q308 -6 261 -6Q161 -6 112 56Q63 118 63 254Q63 393 121 454.5Q179 516 283 516Q328 516 363.5 506.5Q399 497 428 474H429L432 510H457Z" glyph-name="aringacute.hist" horiz-adv-x="550" unicode=""/><glyph d="M292 677Q292 724 239 724Q215 724 201.5 712Q188 700 188 677Q188 654 201.5 643Q215 632 239 632Q292 632 292 677ZM319 677Q319 644 298 627Q277 610 239 610Q202 610 181.5 627Q161 644 161 677Q161 694 168 707.5Q175 721 187 732L288 833H324L236 746Q272 746 295.5 728.5Q319 711 319 677ZM117 170H374L243 510H242ZM385 143H106L54 0H21L223 541H262L473 0H439Z" glyph-name="aringacute.small" horiz-adv-x="494" unicode=""/><glyph d="M828 326 503 0H487L163 326V365L481 48V678H510V48L828 365Z" glyph-name="arrowdown" horiz-adv-x="990" unicode="↓"/><glyph d="M526 678 210 361H840V331H210L526 13H487L162 337V353L487 678Z" glyph-name="arrowleft" horiz-adv-x="990" unicode="←"/><glyph d="M503 678 828 353V337L503 13H464L780 331H150V361H780L464 678Z" glyph-name="arrowright" horiz-adv-x="990" unicode="→"/><glyph d="M828 313 510 630V0H481V630L163 313V352L487 678H503L828 352Z" glyph-name="arrowup" horiz-adv-x="990" unicode="↑"/><glyph d="M236 647 90 401H58L223 678H249L415 401H383Z" glyph-name="asciicircum" horiz-adv-x="473" unicode="^"/><glyph d="M396 312Q369 312 341.5 318Q314 324 287 331Q260 338 233 344Q206 350 179 350Q153 350 122.5 341Q92 332 64 313V344Q90 363 121.5 371Q153 379 181 379Q209 379 236 373Q263 367 290 360Q317 353 344 347Q371 341 398 341Q424 341 454.5 350Q485 359 513 378V347Q487 328 455.5 320Q424 312 396 312Z" glyph-name="asciitilde" horiz-adv-x="577" unicode="~"/><glyph d="M306 727 307 571 455 619 464 594 315 544 405 418 384 402 292 527 200 402 179 418 269 544 120 594 129 619 277 571 278 727Z" glyph-name="asterisk" horiz-adv-x="584" unicode="*"/><glyph d="M491 340Q459 348 433 348Q399 348 372.5 334.5Q346 321 327.5 298Q309 275 299.5 244.5Q290 214 290 181Q290 167 293 151.5Q296 136 303 123Q310 110 322 102Q334 94 352 94Q364 94 380 97.5Q396 101 411 112Q426 123 439.5 144Q453 165 461 201ZM465 139Q452 116 437.5 102.5Q423 89 408 81.5Q393 74 378.5 71.5Q364 69 351 69Q308 69 284 97Q260 125 260 181Q260 220 271.5 255Q283 290 305 316.5Q327 343 359.5 358.5Q392 374 434 374Q461 374 486 370Q511 366 526 361L497 225Q491 198 489.5 171.5Q488 145 495 124Q502 103 518.5 90Q535 77 567 77Q630 77 659.5 125Q689 173 689 249Q689 315 672.5 368.5Q656 422 622 460.5Q588 499 535.5 520Q483 541 412 541Q338 541 280.5 518.5Q223 496 184 454Q145 412 124.5 353Q104 294 104 221Q104 62 187.5 -18.5Q271 -99 418 -99Q451 -99 479.5 -92.5Q508 -86 529 -77V-105Q508 -113 480 -118.5Q452 -124 418 -124Q338 -124 274 -102.5Q210 -81 166 -38Q122 5 98.5 70Q75 135 75 221Q75 300 97.5 364Q120 428 162.5 473Q205 518 268 542Q331 566 412 566Q491 566 548.5 543.5Q606 521 643.5 479.5Q681 438 699.5 379.5Q718 321 718 250Q718 159 679.5 105.5Q641 52 567 52Q522 52 495.5 75.5Q469 99 466 139Z" glyph-name="at" horiz-adv-x="793" unicode="@"/><glyph d="M491 458Q459 466 433 466Q399 466 372.5 452.5Q346 439 327.5 416Q309 393 299.5 362.5Q290 332 290 299Q290 285 293 269.5Q296 254 303 241Q310 228 322 220Q334 212 352 212Q364 212 380 215.5Q396 219 411 230Q426 241 439.5 262Q453 283 461 319ZM465 257Q452 234 437.5 220.5Q423 207 408 199.5Q393 192 378.5 189.5Q364 187 351 187Q308 187 284 215Q260 243 260 299Q260 338 271.5 373Q283 408 305 434.5Q327 461 359.5 476.5Q392 492 434 492Q461 492 486 488Q511 484 526 479L497 343Q491 316 489.5 289.5Q488 263 495 242Q502 221 518.5 208Q535 195 567 195Q630 195 659.5 243Q689 291 689 367Q689 433 672.5 486.5Q656 540 622 578.5Q588 617 535.5 638Q483 659 412 659Q338 659 280.5 636.5Q223 614 184 572Q145 530 124.5 471Q104 412 104 339Q104 180 187.5 99.5Q271 19 418 19Q451 19 479.5 25.5Q508 32 529 41V13Q508 5 480 -0.5Q452 -6 418 -6Q338 -6 274 15.5Q210 37 166 80Q122 123 98.5 188Q75 253 75 339Q75 418 97.5 482Q120 546 162.5 591Q205 636 268 660Q331 684 412 684Q491 684 548.5 661.5Q606 639 643.5 597.5Q681 556 699.5 497.5Q718 439 718 368Q718 277 679.5 223.5Q641 170 567 170Q522 170 495.5 193.5Q469 217 466 257Z" glyph-name="at.cap" horiz-adv-x="793" unicode=""/><glyph d="M310 613Q290 613 272.5 618Q255 623 237.5 629Q220 635 203 640Q186 645 167 645Q147 645 126.5 635.5Q106 626 87 613V643Q102 654 124.5 663.5Q147 673 167 673Q186 673 204 668Q222 663 239 657Q256 651 273.5 646Q291 641 310 641Q330 641 350.5 650.5Q371 660 389 673V643Q375 632 352 622.5Q329 613 310 613ZM376 255Q353 257 327 258.5Q301 260 279 260Q220 260 178 254Q136 248 112 224Q84 196 84 137Q84 106 94 84Q104 62 122 48Q140 34 164 27.5Q188 21 215 21Q263 21 303.5 38Q344 55 376 87ZM213 -6Q175 -6 142.5 4Q110 14 88 36Q71 53 61 78.5Q51 104 51 138Q51 174 60 199Q69 224 86 241Q114 269 162.5 278Q211 287 276 287Q298 287 325.5 285.5Q353 284 376 282V372Q376 412 367 435.5Q358 459 341 471Q324 483 298.5 486Q273 489 240 489Q211 489 169 485.5Q127 482 89 473V501Q129 511 171.5 513.5Q214 516 244 516Q286 516 317 510Q348 504 368 488.5Q388 473 397.5 445Q407 417 407 373V0H381L378 54H377Q340 24 300 9Q260 -6 213 -6Z" glyph-name="atilde" horiz-adv-x="491" unicode="ã"/><glyph d="M347 613Q327 613 309.5 618Q292 623 274.5 629Q257 635 240 640Q223 645 204 645Q184 645 163.5 635.5Q143 626 124 613V643Q139 654 161.5 663.5Q184 673 204 673Q223 673 241 668Q259 663 276 657Q293 651 310.5 646Q328 641 347 641Q367 641 387.5 650.5Q408 660 426 673V643Q412 632 389 622.5Q366 613 347 613ZM426 440Q377 489 285 489Q241 489 205.5 476Q170 463 145 435Q120 407 107 362.5Q94 318 94 255Q94 132 136 76.5Q178 21 264 21Q312 21 351.5 40.5Q391 60 426 105ZM457 0H431L428 66H427Q392 28 350 11Q308 -6 261 -6Q161 -6 112 56Q63 118 63 254Q63 393 121 454.5Q179 516 283 516Q328 516 363.5 506.5Q399 497 428 474H429L432 510H457Z" glyph-name="atilde.hist" horiz-adv-x="550" unicode=""/><glyph d="M117 170H374L243 510H242ZM385 143H106L54 0H21L223 541H262L473 0H439ZM314 645Q294 645 276.5 650Q259 655 241.5 661Q224 667 207 672Q190 677 171 677Q151 677 130.5 667.5Q110 658 91 645V675Q106 686 128.5 695.5Q151 705 171 705Q190 705 208 700Q226 695 243 689Q260 683 277.5 678Q295 673 314 673Q334 673 354.5 682.5Q375 692 393 705V675Q379 664 356 654.5Q333 645 314 645Z" glyph-name="atilde.small" horiz-adv-x="494" unicode=""/><glyph d="M487 256Q487 186 472 136.5Q457 87 428.5 55.5Q400 24 359.5 9Q319 -6 267 -6Q222 -6 186.5 3.5Q151 13 122 36H121L118 0H93V678H124V446H125Q160 482 201 499Q242 516 289 516Q389 516 438 454Q487 392 487 256ZM456 255Q456 378 414 433Q372 488 287 488Q239 488 199 468.5Q159 449 124 405V70Q173 21 265 21Q309 21 344.5 34Q380 47 404.5 75Q429 103 442.5 147.5Q456 192 456 255Z" glyph-name="b" horiz-adv-x="550" unicode="b"/><glyph d="M363 278Q400 268 425 234.5Q450 201 450 150Q450 113 438.5 86Q427 59 408 40Q382 14 343.5 7Q305 0 263 0H92V541H270Q311 541 344 534Q377 527 400 504Q416 488 425 463.5Q434 439 434 404Q434 356 415.5 326.5Q397 297 363 279ZM303 290Q324 290 341.5 297Q359 304 371 316Q402 347 402 403Q402 459 378 483Q358 503 331 508.5Q304 514 272 514H123V290ZM267 26Q299 26 331.5 32Q364 38 387 61Q401 75 409.5 96.5Q418 118 418 150Q418 203 390 231Q376 245 354 254Q332 263 304 263H123V26Z" glyph-name="b.small" horiz-adv-x="501" unicode=""/><glyph d="M81 326Q96 312 118 305.5Q140 299 166 299Q218 299 249.5 332Q281 365 281 442Q281 517 255.5 550.5Q230 584 178 584Q122 584 81 536ZM167 275Q141 275 119 280Q97 285 79 298L78 279H54V708H81V568H82Q104 590 127.5 599Q151 608 180 608Q243 608 275.5 568.5Q308 529 308 442Q308 353 270 314Q232 275 167 275Z" glyph-name="b.superior" horiz-adv-x="340" unicode=""/><glyph d="M-8 763H22L315 -85H285Z" glyph-name="backslash" horiz-adv-x="307" unicode="\"/><glyph d="M255 -85H226V763H255Z" glyph-name="bar" horiz-adv-x="481" unicode="|"/><glyph d="M328 656Q262 656 218 635Q174 614 147.5 575.5Q121 537 110 482Q99 427 98 358H555Q554 424 543.5 479Q533 534 507.5 573.5Q482 613 438.5 634.5Q395 656 328 656ZM328 22Q395 22 438.5 44Q482 66 507.5 106.5Q533 147 543.5 203.5Q554 260 555 328H98Q99 258 109.5 201.5Q120 145 146 105Q172 65 216 43.5Q260 22 328 22ZM590 341Q590 264 579 200.5Q568 137 538.5 90.5Q509 44 458 18.5Q407 -7 328 -7Q248 -7 197 17.5Q146 42 116.5 87.5Q87 133 75.5 197.5Q64 262 64 341Q64 419 75.5 482.5Q87 546 117 591Q147 636 198 660.5Q249 685 328 685Q407 685 458 659.5Q509 634 538.5 588.5Q568 543 579 480Q590 417 590 341Z" glyph-name="barredO" horiz-adv-x="654" unicode=""/><glyph d="M411 69Q431 89 445.5 133.5Q460 178 462 241H94Q96 178 110 133.5Q124 89 145 69Q172 42 204 31.5Q236 21 278 21Q320 21 352 31.5Q384 42 411 69ZM145 441Q124 420 110 375.5Q96 331 94 268H462Q460 331 445.5 375.5Q431 420 411 441Q384 468 352 478.5Q320 489 278 489Q236 489 204 478.5Q172 468 145 441ZM493 255Q493 184 479 134.5Q465 85 437.5 53.5Q410 22 370 7.5Q330 -7 278 -7Q226 -7 186 7.5Q146 22 118.5 53.5Q91 85 77 134.5Q63 184 63 255Q63 326 77 375.5Q91 425 118.5 456.5Q146 488 186 502.5Q226 517 278 517Q330 517 370 502.5Q410 488 437.5 456.5Q465 425 479 375.5Q493 326 493 255Z" glyph-name="barredo" horiz-adv-x="556" unicode=""/><glyph d="M280 521Q226 521 190 504.5Q154 488 132 457Q110 426 101 383Q92 340 91 286H468Q467 338 458.5 381.5Q450 425 428.5 456Q407 487 371 504Q335 521 280 521ZM280 20Q335 20 371 37.5Q407 55 428 86.5Q449 118 458 162Q467 206 468 259H91Q92 205 100.5 160.5Q109 116 130.5 85Q152 54 188 37Q224 20 280 20ZM499 273Q499 212 489.5 160.5Q480 109 455.5 72Q431 35 388.5 14Q346 -7 280 -7Q214 -7 171 13Q128 33 103.5 69.5Q79 106 69.5 158Q60 210 60 273Q60 336 70 386.5Q80 437 105 473Q130 509 172.5 528.5Q215 548 280 548Q346 548 388.5 527.5Q431 507 455.5 470.5Q480 434 489.5 383.5Q499 333 499 273Z" glyph-name="barredo.small" horiz-adv-x="559" unicode=""/><glyph d="M495 693Q568 693 632.5 665Q697 637 745 589Q793 541 821 476.5Q849 412 849 339Q849 266 821 201.5Q793 137 745 89Q697 41 632.5 13Q568 -15 495 -15Q422 -15 357.5 13Q293 41 245 89Q197 137 169 201.5Q141 266 141 339Q141 412 169 476.5Q197 541 245 589Q293 637 357.5 665Q422 693 495 693Z" glyph-name="blackcircle" horiz-adv-x="990" unicode="●"/><glyph d="M240 510H750V0H240Z" glyph-name="blacksmallsquare" horiz-adv-x="990" unicode="▪"/><glyph d="M156 678H834V0H156Z" glyph-name="blacksquare" horiz-adv-x="990" unicode=""/><glyph d="M116 312 136 299Q153 287 153 272Q153 254 150 221.5Q147 189 143.5 151.5Q140 114 137 76Q134 38 134 11Q134 -16 139 -34.5Q144 -53 157.5 -65Q171 -77 194.5 -83Q218 -89 255 -89V-117Q209 -117 179.5 -110Q150 -103 132.5 -87Q115 -71 108.5 -46.5Q102 -22 102 13Q102 36 105 72.5Q108 109 111.5 147Q115 185 118 219Q121 253 121 272L76 306V318L121 352Q121 371 118 403.5Q115 436 111.5 471.5Q108 507 105 541.5Q102 576 102 599Q102 634 108.5 658.5Q115 683 132.5 699Q150 715 179.5 722Q209 729 255 729V701Q217 700 193 694.5Q169 689 156 677Q143 665 138.5 646.5Q134 628 134 601Q134 574 137 538Q140 502 143.5 466.5Q147 431 150 400.5Q153 370 153 352Q153 337 136 325Z" glyph-name="braceleft" horiz-adv-x="307" unicode="{"/><glyph d="M116 345 136 332Q153 320 153 305Q153 287 150 254.5Q147 222 143.5 184.5Q140 147 137 109Q134 71 134 44Q134 17 139 -1.5Q144 -20 157.5 -32Q171 -44 194.5 -50Q218 -56 255 -56V-84Q209 -84 179.5 -77Q150 -70 132.5 -54Q115 -38 108.5 -13.5Q102 11 102 46Q102 69 105 105.5Q108 142 111.5 180Q115 218 118 252Q121 286 121 305L76 339V351L121 385Q121 404 118 436.5Q115 469 111.5 504.5Q108 540 105 574.5Q102 609 102 632Q102 667 108.5 691.5Q115 716 132.5 732Q150 748 179.5 755Q209 762 255 762V734Q217 733 193 727.5Q169 722 156 710Q143 698 138.5 679.5Q134 661 134 634Q134 607 137 571Q140 535 143.5 499.5Q147 464 150 433.5Q153 403 153 385Q153 370 136 358Z" glyph-name="braceleft.cap" horiz-adv-x="307" unicode=""/><glyph d="M171 325Q154 337 154 352Q154 370 157 400.5Q160 431 163.5 466.5Q167 502 170 538Q173 574 173 601Q173 628 168.5 646.5Q164 665 151 677Q138 689 114 694.5Q90 700 52 701V729Q98 729 127.5 722Q157 715 174 699Q191 683 198 658.5Q205 634 205 599Q205 576 202 541.5Q199 507 195.5 471.5Q192 436 189 403.5Q186 371 186 352L231 318V306L186 272Q186 253 189 219Q192 185 195.5 147Q199 109 202 72.5Q205 36 205 13Q205 -22 198 -46.5Q191 -71 174 -87Q157 -103 127.5 -110Q98 -117 52 -117V-89Q89 -89 112.5 -83Q136 -77 149.5 -65Q163 -53 168 -34.5Q173 -16 173 11Q173 38 170 76Q167 114 163.5 151.5Q160 189 157 221.5Q154 254 154 272Q154 287 171 299L191 312Z" glyph-name="braceright" horiz-adv-x="307" unicode="}"/><glyph d="M171 358Q154 370 154 385Q154 403 157 433.5Q160 464 163.5 499.5Q167 535 170 571Q173 607 173 634Q173 661 168.5 679.5Q164 698 151 710Q138 722 114 727.5Q90 733 52 734V762Q98 762 127.5 755Q157 748 174 732Q191 716 198 691.5Q205 667 205 632Q205 609 202 574.5Q199 540 195.5 504.5Q192 469 189 436.5Q186 404 186 385L231 351V339L186 305Q186 286 189 252Q192 218 195.5 180Q199 142 202 105.5Q205 69 205 46Q205 11 198 -13.5Q191 -38 174 -54Q157 -70 127.5 -77Q98 -84 52 -84V-56Q89 -56 112.5 -50Q136 -44 149.5 -32Q163 -20 168 -1.5Q173 17 173 44Q173 71 170 109Q167 147 163.5 184.5Q160 222 157 254.5Q154 287 154 305Q154 320 171 332L191 345Z" glyph-name="braceright.cap" horiz-adv-x="307" unicode=""/><glyph d="M258 -118H110V730H258V701H142V-89H258Z" glyph-name="bracketleft" horiz-adv-x="310" unicode="["/><glyph d="M258 -85H110V763H258V734H142V-56H258Z" glyph-name="bracketleft.cap" horiz-adv-x="310" unicode=""/><glyph d="M52 -89H168V701H52V730H200V-118H52Z" glyph-name="bracketright" horiz-adv-x="310" unicode="]"/><glyph d="M52 -56H168V734H52V763H200V-85H52Z" glyph-name="bracketright.cap" horiz-adv-x="310" unicode=""/><glyph d="M300 599Q346 599 379 617.5Q412 636 423 678H456Q445 622 402.5 597.5Q360 573 300 573Q240 573 197.5 597.5Q155 622 144 678H177Q188 636 221 617.5Q254 599 300 599Z" glyph-name="breve" horiz-adv-x="600" unicode="˘"/><glyph d="M300 767Q346 767 379 785.5Q412 804 423 846H456Q445 790 402.5 765.5Q360 741 300 741Q240 741 197.5 765.5Q155 790 144 846H177Q188 804 221 785.5Q254 767 300 767Z" glyph-name="breve.cap" horiz-adv-x="600" unicode=""/><glyph d="M300 631Q346 631 379 649.5Q412 668 423 710H456Q445 654 402.5 629.5Q360 605 300 605Q240 605 197.5 629.5Q155 654 144 710H177Q188 668 221 649.5Q254 631 300 631Z" glyph-name="breve.small" horiz-adv-x="600" unicode=""/><glyph d="M226 365V763H255V365ZM255 327V-85H226V327Z" glyph-name="brokenbar" horiz-adv-x="481" unicode="¦"/><glyph d="M252 343Q252 364 267 379Q282 394 303 394Q325 394 339.5 379Q354 364 354 343Q354 322 339.5 307Q325 292 303 292Q282 292 267 307Q252 322 252 343Z" glyph-name="bullet" horiz-adv-x="606" unicode="•"/><glyph d="M408 16Q376 5 341.5 -0.5Q307 -6 273 -6Q168 -6 115.5 54.5Q63 115 63 255Q63 392 113.5 454Q164 516 273 516Q299 516 328 513Q357 510 389 501V473Q358 482 330 485.5Q302 489 275 489Q192 489 148 445Q95 392 95 255Q95 184 109 137.5Q123 91 152 62Q174 40 204 31Q234 22 275 22Q305 22 339 27.5Q373 33 408 45Z" glyph-name="c" horiz-adv-x="452" unicode="c"/><glyph d="M60 269Q60 352 74.5 406Q89 460 117 491.5Q145 523 184.5 535.5Q224 548 274 548Q301 548 334 545Q367 542 400 531V504Q367 516 333 518.5Q299 521 276 521Q232 521 198 510Q164 499 140 470.5Q116 442 103.5 393Q91 344 91 269Q91 196 103.5 148.5Q116 101 140 72.5Q164 44 198 32.5Q232 21 276 21Q308 21 344.5 26Q381 31 410 44V15Q380 3 343 -2Q306 -7 274 -7Q223 -7 183 6.5Q143 20 115.5 51.5Q88 83 74 136Q60 189 60 269Z" glyph-name="c.small" horiz-adv-x="442" unicode=""/><glyph d="M254 292Q230 281 209 277.5Q188 274 166 274Q98 274 65 313Q32 352 32 441Q32 528 64.5 568Q97 608 166 608Q183 608 201.5 605.5Q220 603 242 594V569Q219 579 201.5 581.5Q184 584 167 584Q142 584 124 578.5Q106 573 92 559Q59 526 59 441Q59 358 93 324Q119 298 167 298Q208 298 254 318Z" glyph-name="c.superior" horiz-adv-x="275" unicode=""/><glyph d="M257 569H224L332 678H379ZM408 16Q376 5 341.5 -0.5Q307 -6 273 -6Q168 -6 115.5 54.5Q63 115 63 255Q63 392 113.5 454Q164 516 273 516Q299 516 328 513Q357 510 389 501V473Q358 482 330 485.5Q302 489 275 489Q192 489 148 445Q95 392 95 255Q95 184 109 137.5Q123 91 152 62Q174 40 204 31Q234 22 275 22Q305 22 339 27.5Q373 33 408 45Z" glyph-name="cacute" horiz-adv-x="452" unicode="ć"/><glyph d="M60 269Q60 352 74.5 406Q89 460 117 491.5Q145 523 184.5 535.5Q224 548 274 548Q301 548 334 545Q367 542 400 531V504Q367 516 333 518.5Q299 521 276 521Q232 521 198 510Q164 499 140 470.5Q116 442 103.5 393Q91 344 91 269Q91 196 103.5 148.5Q116 101 140 72.5Q164 44 198 32.5Q232 21 276 21Q308 21 344.5 26Q381 31 410 44V15Q380 3 343 -2Q306 -7 274 -7Q223 -7 183 6.5Q143 20 115.5 51.5Q88 83 74 136Q60 189 60 269ZM275 601H242L350 710H397Z" glyph-name="cacute.small" horiz-adv-x="442" unicode=""/><glyph d="M301 588 383 678H418L313 565H287L182 678H217Z" glyph-name="caron" horiz-adv-x="600" unicode="ˇ"/><glyph d="M301 756 383 846H418L313 733H287L182 846H217Z" glyph-name="caron.cap" horiz-adv-x="600" unicode=""/><glyph d="M301 620 383 710H418L313 597H287L182 710H217Z" glyph-name="caron.small" horiz-adv-x="600" unicode=""/><glyph d="M434 678H472L418 523H395Z" glyph-name="caronSlovak" horiz-adv-x="600" unicode=""/><glyph d="M252 588 334 678H369L264 565H238L133 678H168ZM408 16Q376 5 341.5 -0.5Q307 -6 273 -6Q168 -6 115.5 54.5Q63 115 63 255Q63 392 113.5 454Q164 516 273 516Q299 516 328 513Q357 510 389 501V473Q358 482 330 485.5Q302 489 275 489Q192 489 148 445Q95 392 95 255Q95 184 109 137.5Q123 91 152 62Q174 40 204 31Q234 22 275 22Q305 22 339 27.5Q373 33 408 45Z" glyph-name="ccaron" horiz-adv-x="452" unicode="č"/><glyph d="M260 620 342 710H377L272 597H246L141 710H176ZM60 269Q60 352 74.5 406Q89 460 117 491.5Q145 523 184.5 535.5Q224 548 274 548Q301 548 334 545Q367 542 400 531V504Q367 516 333 518.5Q299 521 276 521Q232 521 198 510Q164 499 140 470.5Q116 442 103.5 393Q91 344 91 269Q91 196 103.5 148.5Q116 101 140 72.5Q164 44 198 32.5Q232 21 276 21Q308 21 344.5 26Q381 31 410 44V15Q380 3 343 -2Q306 -7 274 -7Q223 -7 183 6.5Q143 20 115.5 51.5Q88 83 74 136Q60 189 60 269Z" glyph-name="ccaron.small" horiz-adv-x="442" unicode=""/><glyph d="M254 -5Q159 -1 111 60Q63 121 63 255Q63 392 113.5 454Q164 516 273 516Q299 516 328 513Q357 510 389 501V473Q358 482 330 485.5Q302 489 275 489Q192 489 148 445Q95 392 95 255Q95 184 109 137.5Q123 91 152 62Q174 40 204 31Q234 22 275 22Q305 22 339 27.5Q373 33 408 45V16Q378 6 347 0.5Q316 -5 284 -6L268 -44Q297 -49 317 -62.5Q337 -76 337 -100Q337 -134 311 -150Q285 -166 237 -166Q227 -166 209 -164Q191 -162 171 -157V-132Q185 -136 204.5 -138Q224 -140 238 -140Q270 -140 288.5 -131Q307 -122 307 -99Q307 -89 300.5 -82Q294 -75 283.5 -71Q273 -67 261 -65Q249 -63 238 -62L235 -48Z" glyph-name="ccedilla" horiz-adv-x="452" unicode="ç"/><glyph d="M250 -6Q204 -3 168.5 12Q133 27 109 59Q85 91 72.5 142.5Q60 194 60 269Q60 352 74.5 406Q89 460 117 491.5Q145 523 184.5 535.5Q224 548 274 548Q301 548 334 545Q367 542 400 531V504Q367 516 333 518.5Q299 521 276 521Q232 521 198 510Q164 499 140 470.5Q116 442 103.5 393Q91 344 91 269Q91 196 103.5 148.5Q116 101 140 72.5Q164 44 198 32.5Q232 21 276 21Q308 21 344.5 26Q381 31 410 44V15Q381 4 346.5 -1Q312 -6 280 -7L264 -44Q293 -49 313 -62.5Q333 -76 333 -100Q333 -134 307 -150Q281 -166 233 -166Q223 -166 205 -164Q187 -162 167 -157V-132Q181 -136 200.5 -138Q220 -140 234 -140Q266 -140 284.5 -131Q303 -122 303 -99Q303 -89 296.5 -82Q290 -75 279.5 -71Q269 -67 257 -65Q245 -63 234 -62L231 -48Z" glyph-name="ccedilla.small" horiz-adv-x="442" unicode=""/><glyph d="M251 659 169 569H134L239 682H265L370 569H335ZM408 16Q376 5 341.5 -0.5Q307 -6 273 -6Q168 -6 115.5 54.5Q63 115 63 255Q63 392 113.5 454Q164 516 273 516Q299 516 328 513Q357 510 389 501V473Q358 482 330 485.5Q302 489 275 489Q192 489 148 445Q95 392 95 255Q95 184 109 137.5Q123 91 152 62Q174 40 204 31Q234 22 275 22Q305 22 339 27.5Q373 33 408 45Z" glyph-name="ccircumflex" horiz-adv-x="452" unicode="ĉ"/><glyph d="M258 690 176 600H141L246 713H272L377 600H342ZM60 269Q60 352 74.5 406Q89 460 117 491.5Q145 523 184.5 535.5Q224 548 274 548Q301 548 334 545Q367 542 400 531V504Q367 516 333 518.5Q299 521 276 521Q232 521 198 510Q164 499 140 470.5Q116 442 103.5 393Q91 344 91 269Q91 196 103.5 148.5Q116 101 140 72.5Q164 44 198 32.5Q232 21 276 21Q308 21 344.5 26Q381 31 410 44V15Q380 3 343 -2Q306 -7 274 -7Q223 -7 183 6.5Q143 20 115.5 51.5Q88 83 74 136Q60 189 60 269Z" glyph-name="ccircumflex.small" horiz-adv-x="442" unicode=""/><glyph d="M268 604H233V678H268ZM408 16Q376 5 341.5 -0.5Q307 -6 273 -6Q168 -6 115.5 54.5Q63 115 63 255Q63 392 113.5 454Q164 516 273 516Q299 516 328 513Q357 510 389 501V473Q358 482 330 485.5Q302 489 275 489Q192 489 148 445Q95 392 95 255Q95 184 109 137.5Q123 91 152 62Q174 40 204 31Q234 22 275 22Q305 22 339 27.5Q373 33 408 45Z" glyph-name="cdotaccent" horiz-adv-x="452" unicode="ċ"/><glyph d="M278 636H243V710H278ZM60 269Q60 352 74.5 406Q89 460 117 491.5Q145 523 184.5 535.5Q224 548 274 548Q301 548 334 545Q367 542 400 531V504Q367 516 333 518.5Q299 521 276 521Q232 521 198 510Q164 499 140 470.5Q116 442 103.5 393Q91 344 91 269Q91 196 103.5 148.5Q116 101 140 72.5Q164 44 198 32.5Q232 21 276 21Q308 21 344.5 26Q381 31 410 44V15Q380 3 343 -2Q306 -7 274 -7Q223 -7 183 6.5Q143 20 115.5 51.5Q88 83 74 136Q60 189 60 269Z" glyph-name="cdotaccent.small" horiz-adv-x="442" unicode=""/><glyph d="M301 0H331L312 -44Q341 -49 361 -62.5Q381 -76 381 -100Q381 -134 355 -150Q329 -166 281 -166Q271 -166 253 -164Q235 -162 215 -157V-132Q229 -136 248.5 -138Q268 -140 282 -140Q314 -140 332.5 -131Q351 -122 351 -99Q351 -89 344.5 -82Q338 -75 327.5 -71Q317 -67 305 -65Q293 -63 282 -62L279 -48Z" glyph-name="cedilla" horiz-adv-x="608" unicode="¸"/><glyph d="M433 20Q404 7 371.5 0.5Q339 -6 309 -6Q294 -6 282 -5.5Q270 -5 257 -4L229 -118H199L229 1Q196 10 171 29.5Q146 49 129 82Q112 115 103 163Q94 211 94 277Q94 362 108.5 418Q123 474 150.5 507Q178 540 217.5 553.5Q257 567 306 567L334 678H364L336 566Q356 564 377.5 559Q399 554 421 544V513Q390 529 358.5 534Q327 539 304 539Q262 539 229 526.5Q196 514 173.5 484Q151 454 139.5 403.5Q128 353 128 277Q128 204 139.5 155Q151 106 173.5 76.5Q196 47 229 34.5Q262 22 304 22Q334 22 369 29.5Q404 37 433 52Z" glyph-name="cent" horiz-adv-x="474" unicode="¢"/><glyph d="M504 90Q475 76 442.5 68.5Q410 61 380 61Q353 61 329 64L301 -49H270L300 70Q268 79 243 98.5Q218 118 201 150.5Q184 183 175 230.5Q166 278 166 344Q166 429 180.5 484.5Q195 540 222.5 573Q250 606 289 619Q328 632 377 632L406 747H436L407 631Q427 629 449 624Q471 619 493 609V578Q461 594 429.5 599Q398 604 376 604Q334 604 301 592Q268 580 245.5 550Q223 520 211 470Q199 420 199 344Q199 271 211 222Q223 173 245.5 144Q268 115 301 102.5Q334 90 376 90Q406 90 440.5 98Q475 106 504 122Z" glyph-name="cent.LP" horiz-adv-x="660" unicode=""/><glyph d="M495 525Q551 525 600 503.5Q649 482 686 445.5Q723 409 744 359.5Q765 310 765 254Q765 198 744 149Q723 100 686 63Q649 26 600 5Q551 -16 495 -16Q439 -16 390 5Q341 26 304 63Q267 100 246 149Q225 198 225 254Q225 310 246 359.5Q267 409 304 445.5Q341 482 390 503.5Q439 525 495 525Z" glyph-name="circle" horiz-adv-x="990" unicode=""/><glyph d="M300 659 218 569H183L288 682H314L419 569H384Z" glyph-name="circumflex" horiz-adv-x="600" unicode="ˆ"/><glyph d="M300 827 218 737H183L288 850H314L419 737H384Z" glyph-name="circumflex.cap" horiz-adv-x="600" unicode=""/><glyph d="M300 690 218 600H183L288 713H314L419 600H384Z" glyph-name="circumflex.small" horiz-adv-x="600" unicode=""/><glyph d="M128 0H91V74H128ZM128 434H91V508H128Z" glyph-name="colon" horiz-adv-x="219" unicode=":"/><glyph d="M97 82H142L67 -104H41Z" glyph-name="comma" horiz-adv-x="219" unicode=","/><glyph d="M319 678H358L303 523H280Z" glyph-name="commaabovecmb" horiz-adv-x="600" unicode="̓"/><glyph d="M309 -78H347L293 -233H270Z" glyph-name="commaaccent" horiz-adv-x="600" unicode=""/><glyph d="M611 567H572L627 722H649Z" glyph-name="commaturnedabove" horiz-adv-x="700" unicode=""/><glyph d="M283 342Q283 438 317.5 479Q352 520 426 520Q446 520 466.5 516.5Q487 513 507 505V479Q487 489 467 492Q447 495 427 495Q368 495 340 460.5Q312 426 312 342Q312 257 340 223Q368 189 427 189Q448 189 470 192.5Q492 196 513 207V181Q491 171 469 167.5Q447 164 426 164Q352 164 317.5 204.5Q283 245 283 342ZM106 342Q106 269 125.5 209.5Q145 150 184 107.5Q223 65 281.5 42Q340 19 417 19Q494 19 552 43Q610 67 648.5 110Q687 153 706.5 212Q726 271 726 342Q726 411 706.5 469.5Q687 528 648.5 570Q610 612 552 635.5Q494 659 417 659Q341 659 283 636.5Q225 614 185.5 572.5Q146 531 126 472.5Q106 414 106 342ZM755 342Q755 265 733.5 201Q712 137 669.5 91Q627 45 563.5 19Q500 -7 417 -7Q333 -7 270 18Q207 43 164 88.5Q121 134 99.5 198.5Q78 263 78 342Q78 420 100 483.5Q122 547 165 591.5Q208 636 271 660.5Q334 685 417 685Q500 685 563.5 659.5Q627 634 669.5 588.5Q712 543 733.5 480Q755 417 755 342Z" glyph-name="copyright" horiz-adv-x="833" unicode="©"/><glyph d="M310 295Q282 283 256.5 278.5Q231 274 205 274Q124 274 84.5 320.5Q45 367 45 474Q45 578 83.5 625.5Q122 673 205 673Q226 673 248 670.5Q270 668 296 657V629Q270 640 248 643.5Q226 647 206 647Q146 647 114 615Q75 576 75 474Q75 420 85 386Q95 352 118 329Q147 300 206 300Q257 300 310 323Z" glyph-name="cordinal" horiz-adv-x="341" unicode=""/><glyph d="M43 485Q43 548 54.5 588.5Q66 629 87 653Q108 677 138.5 686.5Q169 696 207 696Q227 696 253 693.5Q279 691 305 681V654Q277 665 251 667.5Q225 670 208 670Q176 670 151.5 662Q127 654 109.5 633Q92 612 83 576Q74 540 74 485Q74 431 83 395.5Q92 360 109.5 339Q127 318 151.5 309.5Q176 301 208 301Q232 301 259.5 306Q287 311 312 322V294Q289 283 260.5 279Q232 275 207 275Q168 275 137.5 285Q107 295 86 319Q65 343 54 383.5Q43 424 43 485Z" glyph-name="cordinal.small" horiz-adv-x="335" unicode=""/><glyph d="M163 340Q163 403 176.5 450Q190 497 214 531L93 652L115 673L233 555Q271 596 322.5 612.5Q374 629 429 629Q483 629 534.5 612Q586 595 624 554L742 673L764 652L644 531Q668 497 681.5 450Q695 403 695 340Q695 276 681.5 229Q668 182 644 148L764 27L742 6L624 124Q586 83 534.5 66.5Q483 50 429 50Q374 50 322.5 66.5Q271 83 233 124L115 6L93 27L214 148Q190 182 176.5 228.5Q163 275 163 340ZM196 340Q196 265 216 214.5Q236 164 268.5 134Q301 104 343 91.5Q385 79 429 79Q473 79 515 91.5Q557 104 589.5 134Q622 164 642 214.5Q662 265 662 340Q662 415 642 465Q622 515 589.5 545Q557 575 515 587.5Q473 600 429 600Q385 600 343 587.5Q301 575 268.5 545Q236 515 216 465Q196 415 196 340Z" glyph-name="currency" horiz-adv-x="857" unicode="¤"/><glyph d="M426 443Q402 468 366.5 478.5Q331 489 286 489Q242 489 206.5 476Q171 463 146 435Q121 407 107.5 362.5Q94 318 94 255Q94 132 136 76.5Q178 21 264 21Q312 21 351.5 40.5Q391 60 426 105ZM427 66Q392 28 350 11Q308 -6 261 -6Q161 -6 112 56.5Q63 119 63 255Q63 394 121.5 455Q180 516 284 516Q327 516 363.5 507.5Q400 499 426 477V678H457V0H431L428 66Z" glyph-name="d" horiz-adv-x="550" unicode="d"/><glyph d="M485 271Q485 190 468.5 136.5Q452 83 420 51Q392 23 357 11.5Q322 0 273 0H92V541H273Q322 541 356.5 530.5Q391 520 420 491Q452 459 468.5 405.5Q485 352 485 271ZM454 271Q454 344 439 394Q424 444 397 471Q371 497 342 505.5Q313 514 272 514H123V27H272Q313 27 342 35.5Q371 44 397 70Q424 97 439 147.5Q454 198 454 271Z" glyph-name="d.small" horiz-adv-x="545" unicode=""/><glyph d="M258 558Q244 572 222 578Q200 584 176 584Q122 584 90.5 551.5Q59 519 59 441Q59 366 84.5 332Q110 298 161 298Q218 298 258 347ZM285 279H262L261 315H260Q237 293 213 283.5Q189 274 160 274Q96 274 64 314Q32 354 32 441Q32 530 70 569Q108 608 175 608Q199 608 220 603Q241 598 258 587V708H285Z" glyph-name="d.superior" horiz-adv-x="339" unicode=""/><glyph d="M227 -85H207L204 425L40 419V452L204 447L200 678H234L230 447L394 452V419L230 425Z" glyph-name="dagger" horiz-adv-x="434" unicode="†"/><glyph d="M205 218 68 216V246L205 241L204 425L40 419V452L204 447L200 678H234L230 447L394 452V419L230 425L229 241L366 246V216L229 218L227 -85H207Z" glyph-name="daggerdbl" horiz-adv-x="434" unicode="‡"/><glyph d="M597 693H636L581 538H558ZM426 443Q402 468 366.5 478.5Q331 489 286 489Q242 489 206.5 476Q171 463 146 435Q121 407 107.5 362.5Q94 318 94 255Q94 132 136 76.5Q178 21 264 21Q312 21 351.5 40.5Q391 60 426 105ZM427 66Q392 28 350 11Q308 -6 261 -6Q161 -6 112 56.5Q63 119 63 255Q63 394 121.5 455Q180 516 284 516Q327 516 363.5 507.5Q400 499 426 477V678H457V0H431L428 66Z" glyph-name="dcaron" horiz-adv-x="639" unicode="ď"/><glyph d="M270 620 352 710H387L282 597H256L151 710H186ZM485 271Q485 190 468.5 136.5Q452 83 420 51Q392 23 357 11.5Q322 0 273 0H92V541H273Q322 541 356.5 530.5Q391 520 420 491Q452 459 468.5 405.5Q485 352 485 271ZM454 271Q454 344 439 394Q424 444 397 471Q371 497 342 505.5Q313 514 272 514H123V27H272Q313 27 342 35.5Q371 44 397 70Q424 97 439 147.5Q454 198 454 271Z" glyph-name="dcaron.small" horiz-adv-x="545" unicode=""/><glyph d="M266 -46Q354 -51 354 -104Q354 -137 328 -151.5Q302 -166 255 -166Q245 -166 226.5 -164Q208 -162 189 -157V-132Q203 -136 222.5 -138Q242 -140 256 -140Q287 -140 305.5 -133Q324 -126 324 -103Q324 -93 318 -86.5Q312 -80 302 -76Q292 -72 279.5 -70.5Q267 -69 254 -68ZM426 443Q402 468 366.5 478.5Q331 489 286 489Q242 489 206.5 476Q171 463 146 435Q121 407 107.5 362.5Q94 318 94 255Q94 132 136 76.5Q178 21 264 21Q312 21 351.5 40.5Q391 60 426 105ZM427 66Q392 28 350 11Q308 -6 261 -6Q161 -6 112 56.5Q63 119 63 255Q63 394 121.5 455Q180 516 284 516Q327 516 363.5 507.5Q400 499 426 477V678H457V0H431L428 66Z" glyph-name="dcedilla" horiz-adv-x="550" unicode="ḑ"/><glyph d="M253 -46Q341 -51 341 -104Q341 -137 315 -151.5Q289 -166 242 -166Q232 -166 213.5 -164Q195 -162 176 -157V-132Q190 -136 209.5 -138Q229 -140 243 -140Q274 -140 292.5 -133Q311 -126 311 -103Q311 -93 305 -86.5Q299 -80 289 -76Q279 -72 266.5 -70.5Q254 -69 241 -68ZM485 271Q485 190 468.5 136.5Q452 83 420 51Q392 23 357 11.5Q322 0 273 0H92V541H273Q322 541 356.5 530.5Q391 520 420 491Q452 459 468.5 405.5Q485 352 485 271ZM454 271Q454 344 439 394Q424 444 397 471Q371 497 342 505.5Q313 514 272 514H123V27H272Q313 27 342 35.5Q371 44 397 70Q424 97 439 147.5Q454 198 454 271Z" glyph-name="dcedilla.small" horiz-adv-x="545" unicode=""/><glyph d="M426 443Q402 468 366.5 478.5Q331 489 286 489Q242 489 206.5 476Q171 463 146 435Q121 407 107.5 362.5Q94 318 94 255Q94 132 136 76.5Q178 21 264 21Q312 21 351.5 40.5Q391 60 426 105ZM253 604H426V678H457V604H569V577H457V0H431L428 66H427Q392 28 350 11Q308 -6 261 -6Q161 -6 112 56.5Q63 119 63 255Q63 394 121.5 455Q180 516 284 516Q327 516 363.5 507.5Q400 499 426 477V577H253Z" glyph-name="dcroat" horiz-adv-x="550" unicode="đ"/><glyph d="M457 271Q457 344 442 394Q427 444 400 471Q374 497 345 505.5Q316 514 275 514H126V290H330V263H126V27H275Q316 27 345 35.5Q374 44 400 70Q427 97 442 147.5Q457 198 457 271ZM18 290H95V541H276Q325 541 359.5 530.5Q394 520 423 491Q455 459 471.5 405.5Q488 352 488 271Q488 190 471.5 136.5Q455 83 423 51Q395 23 360 11.5Q325 0 276 0H95V263H18Z" glyph-name="dcroat.small" horiz-adv-x="548" unicode=""/><glyph d="M297 -167H263V-103H297ZM426 443Q402 468 366.5 478.5Q331 489 286 489Q242 489 206.5 476Q171 463 146 435Q121 407 107.5 362.5Q94 318 94 255Q94 132 136 76.5Q178 21 264 21Q312 21 351.5 40.5Q391 60 426 105ZM427 66Q392 28 350 11Q308 -6 261 -6Q161 -6 112 56.5Q63 119 63 255Q63 394 121.5 455Q180 516 284 516Q327 516 363.5 507.5Q400 499 426 477V678H457V0H431L428 66Z" glyph-name="ddotbelow" horiz-adv-x="550" unicode="ḍ"/><glyph d="M281 -167H247V-103H281ZM485 271Q485 190 468.5 136.5Q452 83 420 51Q392 23 357 11.5Q322 0 273 0H92V541H273Q322 541 356.5 530.5Q391 520 420 491Q452 459 468.5 405.5Q485 352 485 271ZM454 271Q454 344 439 394Q424 444 397 471Q371 497 342 505.5Q313 514 272 514H123V27H272Q313 27 342 35.5Q371 44 397 70Q424 97 439 147.5Q454 198 454 271Z" glyph-name="ddotbelow.small" horiz-adv-x="545" unicode=""/><glyph d="M208 374Q174 374 145 383Q116 392 94.5 411Q73 430 61 459Q49 488 49 528Q49 568 61 596.5Q73 625 94.5 644Q116 663 145 672Q174 681 208 681Q242 681 271.5 672Q301 663 322.5 644Q344 625 356 596.5Q368 568 368 528Q368 488 356 459Q344 430 322.5 411Q301 392 271.5 383Q242 374 208 374ZM208 403Q236 403 259.5 410.5Q283 418 300 433Q317 448 326.5 471.5Q336 495 336 528Q336 594 300 623.5Q264 653 208 653Q153 653 117 623.5Q81 594 81 528Q81 463 117 433Q153 403 208 403Z" glyph-name="degree" horiz-adv-x="417" unicode="°"/><glyph d="M387 607H352V671H387ZM252 607H217V671H252Z" glyph-name="dieresis" horiz-adv-x="600" unicode="¨"/><glyph d="M387 775H352V839H387ZM252 775H217V839H252Z" glyph-name="dieresis.cap" horiz-adv-x="600" unicode=""/><glyph d="M387 639H352V703H387ZM252 639H217V703H252Z" glyph-name="dieresis.small" horiz-adv-x="600" unicode=""/><glyph d="M378 607H343V671H378ZM243 607H208V671H243ZM444 756H142V784H444Z" glyph-name="dieresismacron" horiz-adv-x="0" unicode=""/><glyph d="M383 775H348V839H383ZM248 775H213V839H248ZM449 924H147V952H449Z" glyph-name="dieresismacron.cap" horiz-adv-x="0" unicode=""/><glyph d="M293 403H256V471H293ZM293 76H256V145H293ZM64 259V288H481V259Z" glyph-name="divide" horiz-adv-x="545" unicode="÷"/><glyph d="M308 475H271V543H308ZM308 148H271V217H308ZM64 331V361H512V331Z" glyph-name="divide.cap" horiz-adv-x="576" unicode=""/><glyph d="M107 419Q107 382 118.5 359Q130 336 149.5 323.5Q169 311 194.5 306Q220 301 249 300Q284 298 315 291.5Q346 285 369 268.5Q392 252 405 224Q418 196 418 153Q418 102 399 71Q380 40 351.5 22.5Q323 5 288 -0.5Q253 -6 222 -6Q214 -6 208.5 -6Q203 -6 192 -5L164 -118H134L163 -3Q110 3 73 18V50Q105 36 144.5 29Q184 22 222 22Q250 22 279 26.5Q308 31 331.5 44.5Q355 58 370 83.5Q385 109 385 151Q385 188 373 210.5Q361 233 341.5 245Q322 257 297 261.5Q272 266 246 268Q215 270 184.5 275Q154 280 129.5 295.5Q105 311 89.5 340Q74 369 74 419Q74 463 90 492.5Q106 522 132.5 539Q159 556 193 562Q227 568 262 567L290 678H320L292 566Q314 564 336.5 560Q359 556 381 547V517Q349 530 316 534.5Q283 539 253 539Q227 539 201 534.5Q175 530 154 516.5Q133 503 120 479.5Q107 456 107 419Z" glyph-name="dollar" horiz-adv-x="486" unicode="$"/><glyph d="M302 44Q335 44 368.5 51Q402 58 430 75.5Q458 93 475.5 121.5Q493 150 493 194Q493 239 480 265.5Q467 292 445.5 306Q424 320 396.5 325Q369 330 339 333Q308 336 274.5 340.5Q241 345 213 360.5Q185 376 167 407.5Q149 439 149 495Q149 540 166.5 571.5Q184 603 213.5 623Q243 643 283 652Q323 661 368 660L402 795H432L397 657Q417 655 438.5 649.5Q460 644 479 636V605Q447 619 415 625Q383 631 352 631Q321 631 291 623Q261 615 237 598.5Q213 582 198.5 556.5Q184 531 184 495Q184 450 197 425.5Q210 401 232.5 389Q255 377 284.5 373Q314 369 346 365Q378 361 410.5 355.5Q443 350 469 333.5Q495 317 511.5 285Q528 253 528 196Q528 148 510 113.5Q492 79 460.5 56.5Q429 34 385.5 24Q342 14 292 15L259 -118H229L262 16Q208 22 159 44V76Q191 60 228 52Q265 44 302 44Z" glyph-name="dollar.LP" horiz-adv-x="660" unicode=""/><glyph d="M303 604H268V678H303ZM437 755H135V783H437Z" glyph-name="dotabovemacron" horiz-adv-x="0" unicode=""/><glyph d="M353 772H318V846H353ZM487 925H185V953H487Z" glyph-name="dotabovemacron.cap" horiz-adv-x="0" unicode=""/><glyph d="M291 608H256V682H291ZM425 758H123V786H425Z" glyph-name="dotabovemacron.small" horiz-adv-x="0" unicode=""/><glyph d="M317 604H282V678H317Z" glyph-name="dotaccent" horiz-adv-x="600" unicode="˙"/><glyph d="M317 772H282V846H317Z" glyph-name="dotaccent.cap" horiz-adv-x="600" unicode=""/><glyph d="M317 608H282V682H317Z" glyph-name="dotaccent.small" horiz-adv-x="600" unicode=""/><glyph d="M132 0H98V678H132Z" glyph-name="dotlessI" horiz-adv-x="230" unicode=""/><glyph d="M17 -118Q40 -84 56 -50Q72 -16 81.5 20Q91 56 95.5 95.5Q100 135 100 180V678H134V184Q134 138 130 98Q126 58 116 21.5Q106 -15 90.5 -49.5Q75 -84 53 -118Z" glyph-name="dotlessJ" horiz-adv-x="232" unicode=""/><glyph d="M124 0H93V510H124Z" glyph-name="dotlessi" horiz-adv-x="217" unicode="ı"/><glyph d="M123 0H92V541H123Z" glyph-name="dotlessi.small" horiz-adv-x="215" unicode=""/><glyph d="M41 -168Q69 -130 83.5 -83Q98 -36 98 18V510H129V30Q129 -27 116.5 -76.5Q104 -126 75 -168Z" glyph-name="dotlessj" horiz-adv-x="223" unicode="ȷ"/><glyph d="M16 -91Q53 -35 68 21Q83 77 83 148V541H114V150Q114 77 99.5 20.5Q85 -36 49 -91Z" glyph-name="dotlessj.small" horiz-adv-x="206" unicode=""/><glyph d="M311 -85H284V763H311ZM252 -85H226V763H252Z" glyph-name="doublebar" horiz-adv-x="537" unicode="‖"/><glyph d="M156 678H201L308 569H277ZM242 678H287L394 569H364Z" glyph-name="doublegrave" horiz-adv-x="600" unicode=""/><glyph d="M156 846H201L308 737H277ZM242 846H287L394 737H364Z" glyph-name="doublegrave.cap" horiz-adv-x="600" unicode=""/><glyph d="M156 710H201L308 601H277ZM242 710H287L394 601H364Z" glyph-name="doublegrave.small" horiz-adv-x="600" unicode=""/><glyph d="M267 489Q231 489 202 479.5Q173 470 151 448Q128 425 114 385.5Q100 346 96 287H416Q417 297 417 301.5Q417 306 417 311Q417 359 407.5 394Q398 429 375 452Q338 489 267 489ZM95 260Q95 187 108.5 140Q122 93 151 64Q174 41 208 31Q242 21 283 21Q318 21 352 25.5Q386 30 427 45V16Q396 4 356 -1Q316 -6 281 -6Q171 -6 117 54.5Q63 115 63 255Q63 325 77 375Q91 425 117 456Q143 487 181 501.5Q219 516 267 516Q366 516 407 462Q448 408 448 308Q448 304 447.5 290.5Q447 277 445 260Z" glyph-name="e" horiz-adv-x="508" unicode="e"/><glyph d="M413 0H92V541H407V514H123V290H372V263H123V27H413Z" glyph-name="e.small" horiz-adv-x="450" unicode=""/><glyph d="M163 584Q140 584 122.5 578.5Q105 573 91 559Q63 531 59 465H253Q254 473 254 475.5Q254 478 254 480Q254 507 248 528Q242 549 230 561Q207 584 163 584ZM59 442Q59 397 67.5 368.5Q76 340 94 322Q105 311 126 304.5Q147 298 172 298Q193 298 215 301.5Q237 305 266 318V292Q242 281 218 277.5Q194 274 171 274Q101 274 66.5 313.5Q32 353 32 442Q32 531 66.5 569.5Q101 608 163 608Q226 608 252.5 573Q279 538 279 475Q279 473 279 463Q279 453 277 442Z" glyph-name="e.superior" horiz-adv-x="309" unicode=""/><glyph d="M263 569H230L338 678H385ZM267 489Q231 489 202 479.5Q173 470 151 448Q128 425 114 385.5Q100 346 96 287H416Q417 297 417 301.5Q417 306 417 311Q417 359 407.5 394Q398 429 375 452Q338 489 267 489ZM95 260Q95 187 108.5 140Q122 93 151 64Q174 41 208 31Q242 21 283 21Q318 21 352 25.5Q386 30 427 45V16Q396 4 356 -1Q316 -6 281 -6Q171 -6 117 54.5Q63 115 63 255Q63 325 77 375Q91 425 117 456Q143 487 181 501.5Q219 516 267 516Q366 516 407 462Q448 408 448 308Q448 304 447.5 290.5Q447 277 445 260Z" glyph-name="eacute" horiz-adv-x="508" unicode="é"/><glyph d="M413 0H92V541H407V514H123V290H372V263H123V27H413ZM256 601H223L331 710H378Z" glyph-name="eacute.small" horiz-adv-x="450" unicode=""/><glyph d="M286 -167H252V-103H286ZM263 569H230L338 678H385ZM267 489Q231 489 202 479.5Q173 470 151 448Q128 425 114 385.5Q100 346 96 287H416Q417 297 417 301.5Q417 306 417 311Q417 359 407.5 394Q398 429 375 452Q338 489 267 489ZM95 260Q95 187 108.5 140Q122 93 151 64Q174 41 208 31Q242 21 283 21Q318 21 352 25.5Q386 30 427 45V16Q396 4 356 -1Q316 -6 281 -6Q171 -6 117 54.5Q63 115 63 255Q63 325 77 375Q91 425 117 456Q143 487 181 501.5Q219 516 267 516Q366 516 407 462Q448 408 448 308Q448 304 447.5 290.5Q447 277 445 260Z" glyph-name="eacutedotbelow" horiz-adv-x="508" unicode=""/><glyph d="M285 -167H251V-103H285ZM413 0H92V541H407V514H123V290H372V263H123V27H413ZM256 601H223L331 710H378Z" glyph-name="eacutedotbelow.small" horiz-adv-x="450" unicode=""/><glyph d="M262 599Q308 599 341 617.5Q374 636 385 678H418Q407 622 364.5 597.5Q322 573 262 573Q202 573 159.5 597.5Q117 622 106 678H139Q150 636 183 617.5Q216 599 262 599ZM267 489Q231 489 202 479.5Q173 470 151 448Q128 425 114 385.5Q100 346 96 287H416Q417 297 417 301.5Q417 306 417 311Q417 359 407.5 394Q398 429 375 452Q338 489 267 489ZM95 260Q95 187 108.5 140Q122 93 151 64Q174 41 208 31Q242 21 283 21Q318 21 352 25.5Q386 30 427 45V16Q396 4 356 -1Q316 -6 281 -6Q171 -6 117 54.5Q63 115 63 255Q63 325 77 375Q91 425 117 456Q143 487 181 501.5Q219 516 267 516Q366 516 407 462Q448 408 448 308Q448 304 447.5 290.5Q447 277 445 260Z" glyph-name="ebreve" horiz-adv-x="508" unicode="ĕ"/><glyph d="M413 0H92V541H407V514H123V290H372V263H123V27H413ZM248 631Q294 631 327 649.5Q360 668 371 710H404Q393 654 350.5 629.5Q308 605 248 605Q188 605 145.5 629.5Q103 654 92 710H125Q136 668 169 649.5Q202 631 248 631Z" glyph-name="ebreve.small" horiz-adv-x="450" unicode=""/><glyph d="M264 588 346 678H381L276 565H250L145 678H180ZM267 489Q231 489 202 479.5Q173 470 151 448Q128 425 114 385.5Q100 346 96 287H416Q417 297 417 301.5Q417 306 417 311Q417 359 407.5 394Q398 429 375 452Q338 489 267 489ZM95 260Q95 187 108.5 140Q122 93 151 64Q174 41 208 31Q242 21 283 21Q318 21 352 25.5Q386 30 427 45V16Q396 4 356 -1Q316 -6 281 -6Q171 -6 117 54.5Q63 115 63 255Q63 325 77 375Q91 425 117 456Q143 487 181 501.5Q219 516 267 516Q366 516 407 462Q448 408 448 308Q448 304 447.5 290.5Q447 277 445 260Z" glyph-name="ecaron" horiz-adv-x="508" unicode="ě"/><glyph d="M251 620 333 710H368L263 597H237L132 710H167ZM413 0H92V541H407V514H123V290H372V263H123V27H413Z" glyph-name="ecaron.small" horiz-adv-x="450" unicode=""/><glyph d="M262 659 180 569H145L250 682H276L381 569H346ZM267 489Q231 489 202 479.5Q173 470 151 448Q128 425 114 385.5Q100 346 96 287H416Q417 297 417 301.5Q417 306 417 311Q417 359 407.5 394Q398 429 375 452Q338 489 267 489ZM95 260Q95 187 108.5 140Q122 93 151 64Q174 41 208 31Q242 21 283 21Q318 21 352 25.5Q386 30 427 45V16Q396 4 356 -1Q316 -6 281 -6Q171 -6 117 54.5Q63 115 63 255Q63 325 77 375Q91 425 117 456Q143 487 181 501.5Q219 516 267 516Q366 516 407 462Q448 408 448 308Q448 304 447.5 290.5Q447 277 445 260Z" glyph-name="ecircumflex" horiz-adv-x="508" unicode="ê"/><glyph d="M252 690 170 600H135L240 713H266L371 600H336ZM413 0H92V541H407V514H123V290H372V263H123V27H413Z" glyph-name="ecircumflex.small" horiz-adv-x="450" unicode=""/><glyph d="M349 607H314V671H349ZM214 607H179V671H214ZM267 489Q231 489 202 479.5Q173 470 151 448Q128 425 114 385.5Q100 346 96 287H416Q417 297 417 301.5Q417 306 417 311Q417 359 407.5 394Q398 429 375 452Q338 489 267 489ZM95 260Q95 187 108.5 140Q122 93 151 64Q174 41 208 31Q242 21 283 21Q318 21 352 25.5Q386 30 427 45V16Q396 4 356 -1Q316 -6 281 -6Q171 -6 117 54.5Q63 115 63 255Q63 325 77 375Q91 425 117 456Q143 487 181 501.5Q219 516 267 516Q366 516 407 462Q448 408 448 308Q448 304 447.5 290.5Q447 277 445 260Z" glyph-name="edieresis" horiz-adv-x="508" unicode="ë"/><glyph d="M338 639H303V703H338ZM203 639H168V703H203ZM413 0H92V541H407V514H123V290H372V263H123V27H413Z" glyph-name="edieresis.small" horiz-adv-x="450" unicode=""/><glyph d="M282 604H247V678H282ZM267 489Q231 489 202 479.5Q173 470 151 448Q128 425 114 385.5Q100 346 96 287H416Q417 297 417 301.5Q417 306 417 311Q417 359 407.5 394Q398 429 375 452Q338 489 267 489ZM95 260Q95 187 108.5 140Q122 93 151 64Q174 41 208 31Q242 21 283 21Q318 21 352 25.5Q386 30 427 45V16Q396 4 356 -1Q316 -6 281 -6Q171 -6 117 54.5Q63 115 63 255Q63 325 77 375Q91 425 117 456Q143 487 181 501.5Q219 516 267 516Q366 516 407 462Q448 408 448 308Q448 304 447.5 290.5Q447 277 445 260Z" glyph-name="edotaccent" horiz-adv-x="508" unicode="ė"/><glyph d="M275 608H240V682H275ZM413 0H92V541H407V514H123V290H372V263H123V27H413Z" glyph-name="edotaccent.small" horiz-adv-x="450" unicode=""/><glyph d="M94 678H139L246 569H215ZM180 678H225L332 569H302ZM267 489Q231 489 202 479.5Q173 470 151 448Q128 425 114 385.5Q100 346 96 287H416Q417 297 417 301.5Q417 306 417 311Q417 359 407.5 394Q398 429 375 452Q338 489 267 489ZM95 260Q95 187 108.5 140Q122 93 151 64Q174 41 208 31Q242 21 283 21Q318 21 352 25.5Q386 30 427 45V16Q396 4 356 -1Q316 -6 281 -6Q171 -6 117 54.5Q63 115 63 255Q63 325 77 375Q91 425 117 456Q143 487 181 501.5Q219 516 267 516Q366 516 407 462Q448 408 448 308Q448 304 447.5 290.5Q447 277 445 260Z" glyph-name="edoublegrave" horiz-adv-x="508" unicode="ȁ"/><glyph d="M87 710H132L239 601H208ZM173 710H218L325 601H295ZM413 0H92V541H407V514H123V290H372V263H123V27H413Z" glyph-name="edoublegrave.small" horiz-adv-x="450" unicode=""/><glyph d="M147 678H194L301 569H269ZM267 489Q231 489 202 479.5Q173 470 151 448Q128 425 114 385.5Q100 346 96 287H416Q417 297 417 301.5Q417 306 417 311Q417 359 407.5 394Q398 429 375 452Q338 489 267 489ZM95 260Q95 187 108.5 140Q122 93 151 64Q174 41 208 31Q242 21 283 21Q318 21 352 25.5Q386 30 427 45V16Q396 4 356 -1Q316 -6 281 -6Q171 -6 117 54.5Q63 115 63 255Q63 325 77 375Q91 425 117 456Q143 487 181 501.5Q219 516 267 516Q366 516 407 462Q448 408 448 308Q448 304 447.5 290.5Q447 277 445 260Z" glyph-name="egrave" horiz-adv-x="508" unicode="è"/><glyph d="M137 710H184L291 601H259ZM413 0H92V541H407V514H123V290H372V263H123V27H413Z" glyph-name="egrave.small" horiz-adv-x="450" unicode=""/><glyph d="M286 -167H252V-103H286ZM147 678H194L301 569H269ZM267 489Q231 489 202 479.5Q173 470 151 448Q128 425 114 385.5Q100 346 96 287H416Q417 297 417 301.5Q417 306 417 311Q417 359 407.5 394Q398 429 375 452Q338 489 267 489ZM95 260Q95 187 108.5 140Q122 93 151 64Q174 41 208 31Q242 21 283 21Q318 21 352 25.5Q386 30 427 45V16Q396 4 356 -1Q316 -6 281 -6Q171 -6 117 54.5Q63 115 63 255Q63 325 77 375Q91 425 117 456Q143 487 181 501.5Q219 516 267 516Q366 516 407 462Q448 408 448 308Q448 304 447.5 290.5Q447 277 445 260Z" glyph-name="egravedotbelow" horiz-adv-x="508" unicode=""/><glyph d="M285 -167H251V-103H285ZM137 710H184L291 601H259ZM413 0H92V541H407V514H123V290H372V263H123V27H413Z" glyph-name="egravedotbelow.small" horiz-adv-x="450" unicode=""/><glyph d="M306 360Q348 360 383 370Q418 380 439 401Q459 421 469.5 448Q480 475 480 513Q480 540 472.5 565.5Q465 591 445.5 611Q426 631 392 643.5Q358 656 306 656Q254 656 220 643.5Q186 631 166.5 611Q147 591 139.5 565.5Q132 540 132 513Q132 475 142.5 448Q153 421 173 401Q194 380 229 370Q264 360 306 360ZM306 22Q357 22 393 35.5Q429 49 451.5 70.5Q474 92 484 119Q494 146 494 174Q494 244 457 281Q406 332 306 332Q206 332 155 281Q118 244 118 174Q118 146 128 119Q138 92 160.5 70.5Q183 49 219 35.5Q255 22 306 22ZM306 -7Q245 -7 203 9Q161 25 134.5 50.5Q108 76 96.5 108.5Q85 141 85 174Q85 246 120 288Q155 330 209 346V347Q185 356 165 370Q145 384 130.5 404Q116 424 107.5 451.5Q99 479 99 515Q99 547 109 577.5Q119 608 143 632Q167 656 206.5 670.5Q246 685 306 685Q366 685 405.5 670.5Q445 656 469 632Q493 608 503 577.5Q513 547 513 515Q513 479 504.5 451.5Q496 424 481.5 404Q467 384 447 370Q427 356 403 347V346Q457 330 492 288Q527 246 527 174Q527 141 515 108.5Q503 76 477 50.5Q451 25 409 9Q367 -7 306 -7Z" glyph-name="eight" horiz-adv-x="612" unicode="8"/><glyph d="M287 360Q329 360 364 370Q399 380 420 401Q440 421 450.5 448Q461 475 461 513Q461 540 453.5 565.5Q446 591 426.5 611Q407 631 373 643.5Q339 656 287 656Q235 656 201 643.5Q167 631 147.5 611Q128 591 120.5 565.5Q113 540 113 513Q113 475 123.5 448Q134 421 154 401Q175 380 210 370Q245 360 287 360ZM287 22Q338 22 374 35.5Q410 49 432.5 70.5Q455 92 465 119Q475 146 475 174Q475 244 438 281Q387 332 287 332Q187 332 136 281Q99 244 99 174Q99 146 109 119Q119 92 141.5 70.5Q164 49 200 35.5Q236 22 287 22ZM287 -7Q226 -7 184 9Q142 25 115.5 50.5Q89 76 77.5 108.5Q66 141 66 174Q66 246 101 288Q136 330 190 346V347Q166 356 146 370Q126 384 111.5 404Q97 424 88.5 451.5Q80 479 80 515Q80 547 90 577.5Q100 608 124 632Q148 656 187.5 670.5Q227 685 287 685Q347 685 386.5 670.5Q426 656 450 632Q474 608 484 577.5Q494 547 494 515Q494 479 485.5 451.5Q477 424 462.5 404Q448 384 428 370Q408 356 384 347V346Q438 330 473 288Q508 246 508 174Q508 141 496 108.5Q484 76 458 50.5Q432 25 390 9Q348 -7 287 -7Z" glyph-name="eight.LP" horiz-adv-x="589" unicode=""/><glyph d="M330 360Q372 360 407 370Q442 380 463 401Q483 421 493.5 448Q504 475 504 513Q504 540 496.5 565.5Q489 591 469.5 611Q450 631 416 643.5Q382 656 330 656Q278 656 244 643.5Q210 631 190.5 611Q171 591 163.5 565.5Q156 540 156 513Q156 475 166.5 448Q177 421 197 401Q218 380 253 370Q288 360 330 360ZM330 22Q381 22 417 35.5Q453 49 475.5 70.5Q498 92 508 119Q518 146 518 174Q518 244 481 281Q430 332 330 332Q230 332 179 281Q142 244 142 174Q142 146 152 119Q162 92 184.5 70.5Q207 49 243 35.5Q279 22 330 22ZM330 -7Q269 -7 227 9Q185 25 158.5 50.5Q132 76 120.5 108.5Q109 141 109 174Q109 246 144 288Q179 330 233 346V347Q209 356 189 370Q169 384 154.5 404Q140 424 131.5 451.5Q123 479 123 515Q123 547 133 577.5Q143 608 167 632Q191 656 230.5 670.5Q270 685 330 685Q390 685 429.5 670.5Q469 656 493 632Q517 608 527 577.5Q537 547 537 515Q537 479 528.5 451.5Q520 424 505.5 404Q491 384 471 370Q451 356 427 347V346Q481 330 516 288Q551 246 551 174Q551 141 539 108.5Q527 76 501 50.5Q475 25 433 9Q391 -7 330 -7Z" glyph-name="eight.LT" horiz-adv-x="660" unicode=""/><glyph d="M330 360Q372 360 407 370Q442 380 463 401Q483 421 493.5 448Q504 475 504 513Q504 540 496.5 565.5Q489 591 469.5 611Q450 631 416 643.5Q382 656 330 656Q278 656 244 643.5Q210 631 190.5 611Q171 591 163.5 565.5Q156 540 156 513Q156 475 166.5 448Q177 421 197 401Q218 380 253 370Q288 360 330 360ZM330 22Q381 22 417 35.5Q453 49 475.5 70.5Q498 92 508 119Q518 146 518 174Q518 244 481 281Q430 332 330 332Q230 332 179 281Q142 244 142 174Q142 146 152 119Q162 92 184.5 70.5Q207 49 243 35.5Q279 22 330 22ZM330 -7Q269 -7 227 9Q185 25 158.5 50.5Q132 76 120.5 108.5Q109 141 109 174Q109 246 144 288Q179 330 233 346V347Q209 356 189 370Q169 384 154.5 404Q140 424 131.5 451.5Q123 479 123 515Q123 547 133 577.5Q143 608 167 632Q191 656 230.5 670.5Q270 685 330 685Q390 685 429.5 670.5Q469 656 493 632Q517 608 527 577.5Q537 547 537 515Q537 479 528.5 451.5Q520 424 505.5 404Q491 384 471 370Q451 356 427 347V346Q481 330 516 288Q551 246 551 174Q551 141 539 108.5Q527 76 501 50.5Q475 25 433 9Q391 -7 330 -7Z" glyph-name="eight.OT" horiz-adv-x="660" unicode=""/><glyph d="M153 171Q127 171 111 165Q95 159 85 148.5Q75 138 71.5 125Q68 112 68 99Q68 81 73 69Q78 57 86 49Q97 38 114.5 33Q132 28 153 28Q174 28 191.5 33Q209 38 220 49Q228 57 233 69Q238 81 238 99Q238 112 234.5 125Q231 138 221 148.5Q211 159 194.5 165Q178 171 153 171ZM153 -149Q178 -149 196 -142Q214 -135 225 -124.5Q236 -114 241 -100.5Q246 -87 246 -73Q246 -39 227 -20Q202 5 153 5Q128 5 110.5 -0.5Q93 -6 79 -20Q60 -39 60 -73Q60 -87 65 -100.5Q70 -114 81 -124.5Q92 -135 109.5 -142Q127 -149 153 -149ZM153 193Q185 193 206.5 185Q228 177 240.5 164Q253 151 258.5 134.5Q264 118 264 100Q264 65 248.5 46.5Q233 28 212 17V16Q237 7 254.5 -16Q272 -39 272 -74Q272 -92 265.5 -109Q259 -126 245 -140Q231 -154 208.5 -162.5Q186 -171 153 -171Q120 -171 97.5 -162.5Q75 -154 61 -140Q47 -126 40.5 -109Q34 -92 34 -74Q34 -39 51.5 -16Q69 7 94 16V17Q73 28 57.5 46.5Q42 65 42 100Q42 118 47.5 134.5Q53 151 65.5 164Q78 177 99.5 185Q121 193 153 193Z" glyph-name="eight.inf" horiz-adv-x="306" unicode=""/><glyph d="M256 655Q210 655 177 636.5Q144 618 133 576H100Q111 632 153.5 656.5Q196 681 256 681Q316 681 358.5 656.5Q401 632 412 576H379Q368 618 335 636.5Q302 655 256 655ZM267 489Q231 489 202 479.5Q173 470 151 448Q128 425 114 385.5Q100 346 96 287H416Q417 297 417 301.5Q417 306 417 311Q417 359 407.5 394Q398 429 375 452Q338 489 267 489ZM95 260Q95 187 108.5 140Q122 93 151 64Q174 41 208 31Q242 21 283 21Q318 21 352 25.5Q386 30 427 45V16Q396 4 356 -1Q316 -6 281 -6Q171 -6 117 54.5Q63 115 63 255Q63 325 77 375Q91 425 117 456Q143 487 181 501.5Q219 516 267 516Q366 516 407 462Q448 408 448 308Q448 304 447.5 290.5Q447 277 445 260Z" glyph-name="einvertedbreve" horiz-adv-x="508" unicode="ȇ"/><glyph d="M248 687Q202 687 169 668.5Q136 650 125 608H92Q103 664 145.5 688.5Q188 713 248 713Q308 713 350.5 688.5Q393 664 404 608H371Q360 650 327 668.5Q294 687 248 687ZM413 0H92V541H407V514H123V290H372V263H123V27H413Z" glyph-name="einvertedbreve.small" horiz-adv-x="450" unicode=""/><glyph d="M976 0H939V74H976ZM553 0H515V74H553ZM129 0H91V74H129Z" glyph-name="ellipsis" horiz-adv-x="1067" unicode="…"/><glyph d="M412 619H110V647H412ZM267 489Q231 489 202 479.5Q173 470 151 448Q128 425 114 385.5Q100 346 96 287H416Q417 297 417 301.5Q417 306 417 311Q417 359 407.5 394Q398 429 375 452Q338 489 267 489ZM95 260Q95 187 108.5 140Q122 93 151 64Q174 41 208 31Q242 21 283 21Q318 21 352 25.5Q386 30 427 45V16Q396 4 356 -1Q316 -6 281 -6Q171 -6 117 54.5Q63 115 63 255Q63 325 77 375Q91 425 117 456Q143 487 181 501.5Q219 516 267 516Q366 516 407 462Q448 408 448 308Q448 304 447.5 290.5Q447 277 445 260Z" glyph-name="emacron" horiz-adv-x="508" unicode="ē"/><glyph d="M413 0H92V541H407V514H123V290H372V263H123V27H413ZM400 651H98V679H400Z" glyph-name="emacron.small" horiz-adv-x="450" unicode=""/><glyph d="M1062 258H64V288H1062Z" glyph-name="emdash" horiz-adv-x="1126" unicode="—"/><glyph d="M1062 331H64V361H1062Z" glyph-name="emdash.cap" horiz-adv-x="1126" unicode=""/><glyph glyph-name="emspace" horiz-adv-x="1000" unicode=" "/><glyph d="M525 258H64V288H525Z" glyph-name="endash" horiz-adv-x="589" unicode="–"/><glyph d="M525 331H64V361H525Z" glyph-name="endash.cap" horiz-adv-x="589" unicode=""/><glyph d="M382 -168Q410 -130 424.5 -83Q439 -36 439 18V352Q439 388 433.5 414Q428 440 414 456.5Q400 473 376.5 481Q353 489 317 489Q260 489 210.5 466Q161 443 124 395V0H93V510H119L122 433H123Q165 478 214 497Q263 516 320 516Q366 516 395.5 505.5Q425 495 441.5 474.5Q458 454 464 424.5Q470 395 470 357V30Q470 -27 457.5 -76.5Q445 -126 416 -168Z" glyph-name="eng" horiz-adv-x="554" unicode="ŋ"/><glyph d="M394 -168Q421 -126 436 -86Q451 -46 457 0L124 491H123V0H92V541H125L460 50H461V541H492V73Q492 0 477.5 -56.5Q463 -113 427 -168Z" glyph-name="eng.small" horiz-adv-x="584" unicode=""/><glyph glyph-name="enspace" horiz-adv-x="500" unicode=" "/><glyph d="M267 489Q231 489 202 479.5Q173 470 151 448Q128 425 114 385.5Q100 346 96 287H416Q417 297 417 301.5Q417 306 417 311Q417 359 407.5 394Q398 429 375 452Q338 489 267 489ZM95 260Q95 187 108.5 140Q122 93 151 64Q174 41 208 31Q242 21 283 21Q318 21 352 25.5Q386 30 427 45V16Q397 1 377.5 -13Q358 -27 347 -40.5Q336 -54 332 -65.5Q328 -77 328 -86Q328 -106 342.5 -123Q357 -140 395 -140Q408 -140 421 -138.5Q434 -137 450 -132V-157Q437 -162 420.5 -164Q404 -166 390 -166Q338 -166 318 -143Q298 -120 298 -88Q298 -68 312 -44.5Q326 -21 355 -1Q336 -3 317 -4.5Q298 -6 281 -6Q171 -6 117 54.5Q63 115 63 255Q63 325 77 375Q91 425 117 456Q143 487 181 501.5Q219 516 267 516Q366 516 407 462Q448 408 448 308Q448 304 447.5 290.5Q447 277 445 260Z" glyph-name="eogonek" horiz-adv-x="508" unicode="ę"/><glyph d="M413 0Q378 -20 363.5 -44Q349 -68 349 -87Q349 -97 352 -106.5Q355 -116 362.5 -123.5Q370 -131 383 -135.5Q396 -140 416 -140Q429 -140 442 -138.5Q455 -137 470 -132V-157Q458 -162 441 -164Q424 -166 410 -166Q358 -166 338.5 -143.5Q319 -121 319 -89Q319 -66 333.5 -41.5Q348 -17 372 0H92V541H407V514H123V290H372V263H123V27H413Z" glyph-name="eogonek.small" horiz-adv-x="450" unicode=""/><glyph d="M511 170H64V199H511ZM511 352H64V381H511Z" glyph-name="equal" horiz-adv-x="575" unicode="="/><glyph d="M559 393H64V422H559ZM559 271H64V300H559Z" glyph-name="equal.cap" horiz-adv-x="623" unicode=""/><glyph d="M293 36H29V57H293ZM293 -26H29V-6H293Z" glyph-name="equal.inf" horiz-adv-x="322" unicode=""/><glyph d="M459 632Q396 632 354 611Q312 590 286 553.5Q260 517 248 468.5Q236 420 234 366H680Q678 420 667 468.5Q656 517 630.5 553.5Q605 590 563 611Q521 632 459 632ZM786 229Q776 166 749 120.5Q722 75 679.5 45.5Q637 16 581.5 2Q526 -12 459 -12Q383 -12 319.5 12.5Q256 37 210.5 83Q165 129 140 193.5Q115 258 115 338Q115 418 140 483Q165 548 210.5 594Q256 640 319.5 665Q383 690 459 690Q534 690 596.5 665Q659 640 704 594Q749 548 774 483Q799 418 799 338V309H234Q236 255 248 207Q260 159 286 123Q312 87 354 66Q396 45 459 45Q572 45 637.5 88.5Q703 132 719 229Z" glyph-name="estimated" horiz-adv-x="914" unicode="℮"/><glyph d="M95 255Q95 187 109.5 139Q124 91 146 69Q173 42 205 31.5Q237 21 279 21Q321 21 353 31.5Q385 42 412 69Q434 91 448.5 139Q463 187 463 255Q463 323 448.5 371Q434 419 412 441Q385 468 353 478.5Q321 489 279 489Q237 489 205 478.5Q173 468 146 441Q124 419 109.5 371Q95 323 95 255ZM424 465Q404 512 372.5 550.5Q341 589 301 618L161 556L151 578L277 634Q260 645 241 656Q222 667 202 676L230 692Q270 674 306 648L428 702L438 679L331 630Q493 498 493 253Q493 181 478.5 131.5Q464 82 436 51.5Q408 21 368 7Q328 -7 277 -7Q227 -7 187 7Q147 21 119.5 52Q92 83 77.5 133Q63 183 63 255Q63 327 78 376.5Q93 426 120.5 457Q148 488 187.5 502Q227 516 276 516Q324 516 360.5 505Q397 494 423 465Z" glyph-name="eth" horiz-adv-x="556" unicode="ð"/><glyph d="M457 271Q457 344 442 394Q427 444 400 471Q374 497 345 505.5Q316 514 275 514H126V290H330V263H126V27H275Q316 27 345 35.5Q374 44 400 70Q427 97 442 147.5Q457 198 457 271ZM18 290H95V541H276Q325 541 359.5 530.5Q394 520 423 491Q455 459 471.5 405.5Q488 352 488 271Q488 190 471.5 136.5Q455 83 423 51Q395 23 360 11.5Q325 0 276 0H95V263H18Z" glyph-name="eth.small" horiz-adv-x="548" unicode=""/><glyph d="M123 194H97L92 678H128ZM128 0H91V74H128Z" glyph-name="exclam" horiz-adv-x="219" unicode="!"/><glyph d="M128 -168H92L97 316H123ZM128 436H91V510H128Z" glyph-name="exclamdown" horiz-adv-x="219" unicode="¡"/><glyph d="M128 0H92L97 484H123ZM128 604H91V678H128Z" glyph-name="exclamdown.cap" horiz-adv-x="219" unicode=""/><glyph d="M160 0H129V483H33V503L129 510V535Q129 574 134 602Q139 630 153.5 648.5Q168 667 194.5 675.5Q221 684 265 684Q272 684 283.5 683.5Q295 683 308 682Q321 681 334.5 678.5Q348 676 359 673V645Q336 652 309.5 654.5Q283 657 266 657Q229 657 207.5 649.5Q186 642 175.5 627Q165 612 162.5 589Q160 566 160 535V510H348V483H160Z" glyph-name="f" horiz-adv-x="349" unicode="f"/><glyph d="M123 0H92V541H411V514H123V290H372V263H123Z" glyph-name="f.small" horiz-adv-x="426" unicode=""/><glyph d="M102 279H75V571H15V591L75 595V617Q75 642 78 660Q81 678 90.5 689.5Q100 701 117.5 706.5Q135 712 163 712Q172 712 190 710.5Q208 709 225 704V680Q208 685 191 686.5Q174 688 164 688Q142 688 129.5 684Q117 680 111 671Q105 662 103.5 648.5Q102 635 102 616V595H219V571H102Z" glyph-name="f.superior" horiz-adv-x="199" unicode=""/><glyph d="M845 256Q845 186 830 136.5Q815 87 786.5 55.5Q758 24 717.5 9Q677 -6 625 -6Q580 -6 544.5 3.5Q509 13 480 36H479L476 0H451V678H482V446H483Q518 482 559 499Q600 516 647 516Q747 516 796 454Q845 392 845 256ZM814 255Q814 378 772 433Q730 488 645 488Q597 488 557 468.5Q517 449 482 405V70Q531 21 623 21Q667 21 702.5 34Q738 47 762.5 75Q787 103 800.5 147.5Q814 192 814 255ZM160 0H129V483H33V503L129 510V535Q129 574 133.5 602Q138 630 151.5 648.5Q165 667 189 675.5Q213 684 252 684Q258 684 268.5 683.5Q279 683 291 682Q303 681 315.5 678.5Q328 676 338 673V645Q317 652 292.5 654.5Q268 657 253 657Q222 657 203.5 649.5Q185 642 175.5 627Q166 612 163 589Q160 566 160 535V510H338V483H160Z" glyph-name="f_b" horiz-adv-x="908" unicode=""/><glyph d="M482 0H451V510H482ZM160 0H129V483H33V503L129 510V535Q129 574 133.5 602Q138 630 151.5 648.5Q165 667 189 675.5Q213 684 252 684Q258 684 268.5 683.5Q279 683 291 682Q303 681 315.5 678.5Q328 676 338 673V645Q317 652 292.5 654.5Q268 657 253 657Q222 657 203.5 649.5Q185 642 175.5 627Q166 612 163 589Q160 566 160 535V510H338V483H160Z" glyph-name="f_dotlessi" horiz-adv-x="575" unicode=""/><glyph d="M499 0H468V483H365V503L468 510V535Q468 574 473 602Q478 630 492.5 648.5Q507 667 533.5 675.5Q560 684 604 684Q611 684 622.5 683.5Q634 683 647 682Q660 681 673.5 678.5Q687 676 698 673V645Q675 652 648.5 654.5Q622 657 605 657Q568 657 546.5 649.5Q525 642 514.5 627Q504 612 501.5 589Q499 566 499 535V510H687V483H499ZM160 0H129V483H33V503L129 510V535Q129 574 134.5 602Q140 630 155 648.5Q170 667 197 675.5Q224 684 268 684Q275 684 287 683.5Q299 683 312.5 682Q326 681 340 678.5Q354 676 365 673V645Q342 652 314 654.5Q286 657 269 657Q232 657 210.5 649.5Q189 642 177.5 627Q166 612 163 589Q160 566 160 535V510H315V483H160Z" glyph-name="f_f" horiz-adv-x="688" unicode="ﬀ"/><glyph d="M1184 256Q1184 186 1169 136.5Q1154 87 1125.5 55.5Q1097 24 1056.5 9Q1016 -6 964 -6Q919 -6 883.5 3.5Q848 13 819 36H818L815 0H790V678H821V446H822Q857 482 898 499Q939 516 986 516Q1086 516 1135 454Q1184 392 1184 256ZM1153 255Q1153 378 1111 433Q1069 488 984 488Q936 488 896 468.5Q856 449 821 405V70Q870 21 962 21Q1006 21 1041.5 34Q1077 47 1101.5 75Q1126 103 1139.5 147.5Q1153 192 1153 255ZM160 0H129V483H33V503L129 510V535Q129 574 134.5 602Q140 630 155 648.5Q170 667 197 675.5Q224 684 268 684Q275 684 287 683.5Q299 683 312.5 682Q326 681 340 678.5Q354 676 365 673V645Q342 652 314 654.5Q286 657 269 657Q232 657 210.5 649.5Q189 642 177.5 627Q166 612 163 589Q160 566 160 535V510H315V483H160ZM499 0H468V483H365V503L468 510V535Q468 574 472.5 602Q477 630 490.5 648.5Q504 667 528 675.5Q552 684 591 684Q597 684 607.5 683.5Q618 683 630 682Q642 681 654.5 678.5Q667 676 677 673V645Q656 652 631.5 654.5Q607 657 592 657Q561 657 542.5 649.5Q524 642 514.5 627Q505 612 502 589Q499 566 499 535V510H677V483H499Z" glyph-name="f_f_b" horiz-adv-x="1247" unicode=""/><glyph d="M160 0H129V483H33V503L129 510V535Q129 574 134.5 602Q140 630 155 648.5Q170 667 197 675.5Q224 684 268 684Q275 684 287 683.5Q299 683 312.5 682Q326 681 340 678.5Q354 676 365 673V645Q342 652 314 654.5Q286 657 269 657Q232 657 210.5 649.5Q189 642 177.5 627Q166 612 163 589Q160 566 160 535V510H315V483H160ZM499 0H468V483H365V503L468 510V535Q468 574 472.5 602Q477 630 490.5 648.5Q504 667 528 675.5Q552 684 591 684Q597 684 607.5 683.5Q618 683 630 682Q642 681 654.5 678.5Q667 676 677 673V645Q656 652 631.5 654.5Q607 657 592 657Q561 657 542.5 649.5Q524 642 514.5 627Q505 612 502 589Q499 566 499 535V510H677V483H499ZM821 0H790V510H821Z" glyph-name="f_f_dotlessi" horiz-adv-x="914" unicode=""/><glyph d="M160 0H129V483H33V503L129 510V535Q129 574 134.5 602Q140 630 155 648.5Q170 667 197 675.5Q224 684 268 684Q275 684 287 683.5Q299 683 312.5 682Q326 681 340 678.5Q354 676 365 673V645Q342 652 314 654.5Q286 657 269 657Q232 657 210.5 649.5Q189 642 177.5 627Q166 612 163 589Q160 566 160 535V510H315V483H160ZM499 0H468V483H365V503L468 510V535Q468 574 472.5 602Q477 630 490.5 648.5Q504 667 528 675.5Q552 684 591 684Q597 684 607.5 683.5Q618 683 630 682Q642 681 654.5 678.5Q667 676 677 673V645Q656 652 631.5 654.5Q607 657 592 657Q561 657 542.5 649.5Q524 642 514.5 627Q505 612 502 589Q499 566 499 535V510H677V483H499ZM822 435Q864 479 912 497.5Q960 516 1017 516Q1063 516 1092.5 505.5Q1122 495 1138.5 474.5Q1155 454 1161 424.5Q1167 395 1167 357V0H1136V352Q1136 388 1130.5 414Q1125 440 1111 456.5Q1097 473 1073.5 481Q1050 489 1014 489Q957 489 907.5 466Q858 443 821 395V0H790V678H821V435Z" glyph-name="f_f_h" horiz-adv-x="1251" unicode=""/><glyph d="M160 0H129V483H33V503L129 510V535Q129 574 134.5 602Q140 630 155 648.5Q170 667 197 675.5Q224 684 268 684Q275 684 287 683.5Q299 683 312.5 682Q326 681 340 678.5Q354 676 365 673V645Q342 652 314 654.5Q286 657 269 657Q232 657 210.5 649.5Q189 642 177.5 627Q166 612 163 589Q160 566 160 535V510H315V483H160ZM499 0H468V483H365V503L468 510V535Q468 574 472.5 602Q477 630 490.5 648.5Q504 667 528 675.5Q552 684 591 684Q597 684 607.5 683.5Q618 683 630 682Q642 681 654.5 678.5Q667 676 677 673V645Q656 652 631.5 654.5Q607 657 592 657Q561 657 542.5 649.5Q524 642 514.5 627Q505 612 502 589Q499 566 499 535V510H677V483H499ZM823 604H788V678H823ZM821 0H790V510H821Z" glyph-name="f_f_i" horiz-adv-x="914" unicode="ﬃ"/><glyph d="M823 604H789V678H823ZM733 -168Q761 -130 775.5 -83Q790 -36 790 18V510H821V30Q821 -27 808.5 -76.5Q796 -126 767 -168ZM160 0H129V483H33V503L129 510V535Q129 574 134.5 602Q140 630 155 648.5Q170 667 197 675.5Q224 684 268 684Q275 684 287 683.5Q299 683 312.5 682Q326 681 340 678.5Q354 676 365 673V645Q342 652 314 654.5Q286 657 269 657Q232 657 210.5 649.5Q189 642 177.5 627Q166 612 163 589Q160 566 160 535V510H315V483H160ZM499 0H468V483H365V503L468 510V535Q468 574 472.5 602Q477 630 490.5 648.5Q504 667 528 675.5Q552 684 591 684Q597 684 607.5 683.5Q618 683 630 682Q642 681 654.5 678.5Q667 676 677 673V645Q656 652 631.5 654.5Q607 657 592 657Q561 657 542.5 649.5Q524 642 514.5 627Q505 612 502 589Q499 566 499 535V510H677V483H499Z" glyph-name="f_f_j" horiz-adv-x="914" unicode=""/><glyph d="M1143 0H1104L921 260H821V0H790V678H821V287H923L1081 510H1118L950 273ZM160 0H129V483H33V503L129 510V535Q129 574 134.5 602Q140 630 155 648.5Q170 667 197 675.5Q224 684 268 684Q275 684 287 683.5Q299 683 312.5 682Q326 681 340 678.5Q354 676 365 673V645Q342 652 314 654.5Q286 657 269 657Q232 657 210.5 649.5Q189 642 177.5 627Q166 612 163 589Q160 566 160 535V510H315V483H160ZM499 0H468V483H365V503L468 510V535Q468 574 472.5 602Q477 630 490.5 648.5Q504 667 528 675.5Q552 684 591 684Q597 684 607.5 683.5Q618 683 630 682Q642 681 654.5 678.5Q667 676 677 673V645Q656 652 631.5 654.5Q607 657 592 657Q561 657 542.5 649.5Q524 642 514.5 627Q505 612 502 589Q499 566 499 535V510H677V483H499Z" glyph-name="f_f_k" horiz-adv-x="1155" unicode=""/><glyph d="M160 0H129V483H33V503L129 510V535Q129 574 134.5 602Q140 630 155 648.5Q170 667 197 675.5Q224 684 268 684Q275 684 287 683.5Q299 683 312.5 682Q326 681 340 678.5Q354 676 365 673V645Q342 652 314 654.5Q286 657 269 657Q232 657 210.5 649.5Q189 642 177.5 627Q166 612 163 589Q160 566 160 535V510H315V483H160ZM499 0H468V483H365V503L468 510V535Q468 574 472.5 602Q477 630 490.5 648.5Q504 667 528 675.5Q552 684 591 684Q597 684 607.5 683.5Q618 683 630 682Q642 681 654.5 678.5Q667 676 677 673V645Q656 652 631.5 654.5Q607 657 592 657Q561 657 542.5 649.5Q524 642 514.5 627Q505 612 502 589Q499 566 499 535V510H677V483H499ZM821 0H790V678H821Z" glyph-name="f_f_l" horiz-adv-x="914" unicode="ﬄ"/><glyph d="M807 483H704V503L809 511L817 624H841L839 510H1022V483H838V139Q838 107 841.5 84.5Q845 62 855 48Q865 34 883.5 28Q902 22 932 22Q959 22 987 29.5Q1015 37 1032 45V16Q1015 8 985.5 1Q956 -6 927 -6Q891 -6 867.5 2Q844 10 830.5 27.5Q817 45 812 72.5Q807 100 807 140ZM499 0H468V483H365V503L468 510V535Q468 574 473.5 602Q479 630 494 648.5Q509 667 536 675.5Q563 684 607 684Q614 684 626 683.5Q638 683 652 682Q666 681 680 678.5Q694 676 705 673V645Q682 652 653 654.5Q624 657 608 657Q571 657 549.5 649.5Q528 642 516.5 627Q505 612 502 589Q499 566 499 535V510H654V483H499ZM160 0H129V483H33V503L129 510V535Q129 574 134.5 602Q140 630 155 648.5Q170 667 197 675.5Q224 684 268 684Q275 684 287 683.5Q299 683 312.5 682Q326 681 340 678.5Q354 676 365 673V645Q342 652 314 654.5Q286 657 269 657Q232 657 210.5 649.5Q189 642 177.5 627Q166 612 163 589Q160 566 160 535V510H315V483H160Z" glyph-name="f_f_t" horiz-adv-x="1054" unicode=""/><glyph d="M160 0H129V483H33V503L129 510V535Q129 574 133.5 602Q138 630 151.5 648.5Q165 667 189 675.5Q213 684 252 684Q258 684 268.5 683.5Q279 683 291 682Q303 681 315.5 678.5Q328 676 338 673V645Q317 652 292.5 654.5Q268 657 253 657Q222 657 203.5 649.5Q185 642 175.5 627Q166 612 163 589Q160 566 160 535V510H338V483H160ZM483 435Q525 479 573 497.5Q621 516 678 516Q724 516 753.5 505.5Q783 495 799.5 474.5Q816 454 822 424.5Q828 395 828 357V0H797V352Q797 388 791.5 414Q786 440 772 456.5Q758 473 734.5 481Q711 489 675 489Q618 489 568.5 466Q519 443 482 395V0H451V678H482V435Z" glyph-name="f_h" horiz-adv-x="912" unicode=""/><glyph d="M484 604H450V678H484ZM394 -168Q422 -130 436.5 -83Q451 -36 451 18V510H482V30Q482 -27 469.5 -76.5Q457 -126 428 -168ZM160 0H129V483H33V503L129 510V535Q129 574 133.5 602Q138 630 151.5 648.5Q165 667 189 675.5Q213 684 252 684Q258 684 268.5 683.5Q279 683 291 682Q303 681 315.5 678.5Q328 676 338 673V645Q317 652 292.5 654.5Q268 657 253 657Q222 657 203.5 649.5Q185 642 175.5 627Q166 612 163 589Q160 566 160 535V510H338V483H160Z" glyph-name="f_j" horiz-adv-x="575" unicode=""/><glyph d="M804 0H765L582 260H482V0H451V678H482V287H584L742 510H779L611 273ZM160 0H129V483H33V503L129 510V535Q129 574 133.5 602Q138 630 151.5 648.5Q165 667 189 675.5Q213 684 252 684Q258 684 268.5 683.5Q279 683 291 682Q303 681 315.5 678.5Q328 676 338 673V645Q317 652 292.5 654.5Q268 657 253 657Q222 657 203.5 649.5Q185 642 175.5 627Q166 612 163 589Q160 566 160 535V510H338V483H160Z" glyph-name="f_k" horiz-adv-x="816" unicode=""/><glyph d="M468 483H365V503L470 511L478 624H502L500 510H683V483H499V139Q499 107 502.5 84.5Q506 62 516 48Q526 34 544.5 28Q563 22 593 22Q620 22 648 29.5Q676 37 693 45V16Q676 8 646.5 1Q617 -6 588 -6Q552 -6 528.5 2Q505 10 491.5 27.5Q478 45 473 72.5Q468 100 468 140ZM160 0H129V483H33V503L129 510V535Q129 574 134.5 602Q140 630 155 648.5Q170 667 197 675.5Q224 684 268 684Q275 684 287 683.5Q299 683 313 682Q327 681 341 678.5Q355 676 366 673V645Q343 652 314 654.5Q285 657 269 657Q232 657 210.5 649.5Q189 642 177.5 627Q166 612 163 589Q160 566 160 535V510H315V483H160Z" glyph-name="f_t" horiz-adv-x="715" unicode=""/><glyph d="M711 16Q693 7 662.5 0.5Q632 -6 603 -6Q561 -6 534.5 2Q508 10 493 27.5Q478 45 473 72.5Q468 100 468 140V483H365V503L470 511L478 624H502L500 510H681V483H499V139Q499 107 502 84.5Q505 62 516 48Q527 34 548 28Q569 22 604 22Q631 22 659 28Q687 34 711 45ZM834 483H731V503L836 511L844 624H868L866 510H1049V483H865V139Q865 107 868.5 84.5Q872 62 882 48Q892 34 910.5 28Q929 22 959 22Q986 22 1014 29.5Q1042 37 1059 45V16Q1042 8 1012.5 1Q983 -6 954 -6Q918 -6 894.5 2Q871 10 857.5 27.5Q844 45 839 72.5Q834 100 834 140ZM160 0H129V483H33V503L129 510V535Q129 574 134.5 602Q140 630 155 648.5Q170 667 197 675.5Q224 684 268 684Q275 684 287 683.5Q299 683 313 682Q327 681 341 678.5Q355 676 366 673V645Q343 652 314 654.5Q285 657 269 657Q232 657 210.5 649.5Q189 642 177.5 627Q166 612 163 589Q160 566 160 535V510H315V483H160Z" glyph-name="f_t_t" horiz-adv-x="1081" unicode=""/><glyph d="M499 0H468V483H365V503L468 510V535Q468 574 473 602Q478 630 492.5 648.5Q507 667 533.5 675.5Q560 684 604 684Q611 684 622.5 683.5Q634 683 647 682Q660 681 673.5 678.5Q687 676 698 673V645Q675 652 648.5 654.5Q622 657 605 657Q568 657 546.5 649.5Q525 642 514.5 627Q504 612 501.5 589Q499 566 499 535V510H687V483H499ZM160 0H129V483H33V503L129 510V535Q129 574 134.5 602Q140 630 155 648.5Q170 667 197 675.5Q224 684 268 684Q275 684 287 683.5Q299 683 312.5 682Q326 681 340 678.5Q354 676 365 673V645Q342 652 314 654.5Q286 657 269 657Q232 657 210.5 649.5Q189 642 177.5 627Q166 612 163 589Q160 566 160 535V510H315V483H160Z" glyph-name="ff" horiz-adv-x="688" unicode=""/><glyph d="M160 0H129V483H33V503L129 510V535Q129 574 134.5 602Q140 630 155 648.5Q170 667 197 675.5Q224 684 268 684Q275 684 287 683.5Q299 683 312.5 682Q326 681 340 678.5Q354 676 365 673V645Q342 652 314 654.5Q286 657 269 657Q232 657 210.5 649.5Q189 642 177.5 627Q166 612 163 589Q160 566 160 535V510H315V483H160ZM499 0H468V483H365V503L468 510V535Q468 574 472.5 602Q477 630 490.5 648.5Q504 667 528 675.5Q552 684 591 684Q597 684 607.5 683.5Q618 683 630 682Q642 681 654.5 678.5Q667 676 677 673V645Q656 652 631.5 654.5Q607 657 592 657Q561 657 542.5 649.5Q524 642 514.5 627Q505 612 502 589Q499 566 499 535V510H677V483H499ZM823 604H788V678H823ZM821 0H790V510H821Z" glyph-name="ffi" horiz-adv-x="914" unicode=""/><glyph d="M160 0H129V483H33V503L129 510V535Q129 574 134.5 602Q140 630 155 648.5Q170 667 197 675.5Q224 684 268 684Q275 684 287 683.5Q299 683 312.5 682Q326 681 340 678.5Q354 676 365 673V645Q342 652 314 654.5Q286 657 269 657Q232 657 210.5 649.5Q189 642 177.5 627Q166 612 163 589Q160 566 160 535V510H315V483H160ZM499 0H468V483H365V503L468 510V535Q468 574 472.5 602Q477 630 490.5 648.5Q504 667 528 675.5Q552 684 591 684Q597 684 607.5 683.5Q618 683 630 682Q642 681 654.5 678.5Q667 676 677 673V645Q656 652 631.5 654.5Q607 657 592 657Q561 657 542.5 649.5Q524 642 514.5 627Q505 612 502 589Q499 566 499 535V510H677V483H499ZM821 0H790V678H821Z" glyph-name="ffl" horiz-adv-x="914" unicode=""/><glyph d="M484 604H449V678H484ZM482 0H451V510H482ZM160 0H129V483H33V503L129 510V535Q129 574 133.5 602Q138 630 151.5 648.5Q165 667 189 675.5Q213 684 252 684Q258 684 268.5 683.5Q279 683 291 682Q303 681 315.5 678.5Q328 676 338 673V645Q317 652 292.5 654.5Q268 657 253 657Q222 657 203.5 649.5Q185 642 175.5 627Q166 612 163 589Q160 566 160 535V510H338V483H160Z" glyph-name="fi" horiz-adv-x="575" unicode="ﬁ"/><glyph d="M794 258H64V288H794Z" glyph-name="figuredash" horiz-adv-x="858" unicode="‒"/><glyph d="M794 331H64V361H794Z" glyph-name="figuredash.cap" horiz-adv-x="858" unicode=""/><glyph glyph-name="figurespace" horiz-adv-x="700" unicode=" "/><glyph d="M289 152 476 339 289 527 308 547 496 359 684 547 703 527 515 339 703 152 683 132 496 320 309 132ZM182 651V26H807V651ZM156 678H834V0H156Z" glyph-name="filledbox" horiz-adv-x="990" unicode="■"/><glyph d="M355 133 475 253 355 374 374 394 495 273 616 394 635 374 514 253 635 133 615 113 495 234 375 113ZM265 484V25H724V484ZM240 510H750V0H240Z" glyph-name="filledsmallbox" horiz-adv-x="990" unicode=""/><glyph d="M472 78Q472 21 454.5 -17.5Q437 -56 406.5 -79.5Q376 -103 336 -113.5Q296 -124 251 -124Q238 -124 218.5 -122.5Q199 -121 177 -118Q155 -115 132.5 -109.5Q110 -104 91 -95V-63Q129 -80 171.5 -87.5Q214 -95 251 -95Q289 -95 323.5 -86.5Q358 -78 383.5 -58Q409 -38 424 -5Q439 28 439 77Q439 127 422 158Q405 189 377 206Q349 223 312.5 229Q276 235 237 235Q211 235 176 233.5Q141 232 105 230V560H438V531H138V262Q196 265 237 265Q288 265 331 256Q374 247 405.5 225.5Q437 204 454.5 168Q472 132 472 78Z" glyph-name="five" horiz-adv-x="534" unicode="5"/><glyph d="M471 198Q471 141 453.5 102.5Q436 64 405.5 40.5Q375 17 335 6.5Q295 -4 250 -4Q237 -4 217.5 -2.5Q198 -1 176 2Q154 5 131.5 10.5Q109 16 90 25V57Q128 40 170.5 32.5Q213 25 250 25Q288 25 322.5 33.5Q357 42 382.5 62Q408 82 423 115Q438 148 438 197Q438 247 421 278Q404 309 376 326Q348 343 311.5 349Q275 355 236 355Q210 355 175 353.5Q140 352 104 350V680H437V651H137V382Q195 385 236 385Q287 385 330 376Q373 367 404.5 345.5Q436 324 453.5 288Q471 252 471 198Z" glyph-name="five.LP" horiz-adv-x="530" unicode=""/><glyph d="M536 196Q536 139 518.5 100.5Q501 62 470.5 38.5Q440 15 400 4.5Q360 -6 315 -6Q302 -6 282.5 -4.5Q263 -3 241 0Q219 3 196.5 8.5Q174 14 155 23V55Q193 38 235.5 30.5Q278 23 315 23Q353 23 387.5 31.5Q422 40 447.5 60Q473 80 488 113Q503 146 503 195Q503 245 486 276Q469 307 441 324Q413 341 376.5 347Q340 353 301 353Q275 353 240 351.5Q205 350 169 348V678H502V649H202V380Q260 383 301 383Q352 383 395 374Q438 365 469.5 343.5Q501 322 518.5 286Q536 250 536 196Z" glyph-name="five.LT" horiz-adv-x="660" unicode=""/><glyph d="M524 78Q524 21 506.5 -17.5Q489 -56 458.5 -79.5Q428 -103 388 -113.5Q348 -124 303 -124Q290 -124 270.5 -122.5Q251 -121 229 -118Q207 -115 184.5 -109.5Q162 -104 143 -95V-63Q181 -80 223.5 -87.5Q266 -95 303 -95Q341 -95 375.5 -86.5Q410 -78 435.5 -58Q461 -38 476 -5Q491 28 491 77Q491 127 474 158Q457 189 429 206Q401 223 364.5 229Q328 235 289 235Q263 235 228 233.5Q193 232 157 230V560H490V531H190V262Q248 265 289 265Q340 265 383 256Q426 247 457.5 225.5Q489 204 506.5 168Q524 132 524 78Z" glyph-name="five.OT" horiz-adv-x="660" unicode=""/><glyph d="M253 -64Q253 -94 243.5 -114.5Q234 -135 218 -147.5Q202 -160 180.5 -165.5Q159 -171 135 -171Q121 -171 95 -167.5Q69 -164 48 -154V-131Q70 -141 93.5 -145Q117 -149 134 -149Q153 -149 169.5 -145Q186 -141 199 -131Q212 -121 219.5 -105Q227 -89 227 -65Q227 -40 218.5 -24.5Q210 -9 196.5 -0.5Q183 8 164.5 11Q146 14 127 14Q113 14 94 13.5Q75 13 56 12V190H236V169H81V35Q98 36 109.5 36Q121 36 128 36Q155 36 178 31Q201 26 217.5 14.5Q234 3 243.5 -16Q253 -35 253 -64Z" glyph-name="five.inf" horiz-adv-x="275" unicode=""/><glyph d="M482 0H451V678H482ZM160 0H129V483H33V503L129 510V535Q129 574 133.5 602Q138 630 151.5 648.5Q165 667 189 675.5Q213 684 252 684Q258 684 268.5 683.5Q279 683 291 682Q303 681 315.5 678.5Q328 676 338 673V645Q317 652 292.5 654.5Q268 657 253 657Q222 657 203.5 649.5Q185 642 175.5 627Q166 612 163 589Q160 566 160 535V510H338V483H160Z" glyph-name="fl" horiz-adv-x="575" unicode="ﬂ"/><glyph d="M117 305H191L197 361Q202 411 211.5 449.5Q221 488 238 514Q255 540 280.5 553.5Q306 567 343 567Q378 567 398 561.5Q418 556 439 545V515Q417 526 398 533Q379 540 348 540Q314 540 293 526Q272 512 259.5 487.5Q247 463 241 430.5Q235 398 231 361L225 305H391V276H221L195 37Q191 1 185 -28.5Q179 -58 165 -79Q151 -100 126.5 -112Q102 -124 62 -124Q40 -124 24 -121V-93Q39 -97 60 -97Q90 -97 108.5 -89Q127 -81 137.5 -64.5Q148 -48 153 -23Q158 2 162 37L188 276H117Z" glyph-name="florin" horiz-adv-x="491" unicode="ƒ"/><glyph d="M208 361H282L293 480Q297 517 304 553.5Q311 590 326.5 619Q342 648 369 666.5Q396 685 440 685Q475 685 498 679Q521 673 544 662V631Q521 644 499 650.5Q477 657 442 657Q409 657 388 642Q367 627 354.5 602.5Q342 578 335.5 545.5Q329 513 326 477L316 361H491V331H314L287 40Q284 3 277 -27Q270 -57 254.5 -78.5Q239 -100 212 -112Q185 -124 142 -124Q131 -124 121 -123.5Q111 -123 102 -122V-93Q120 -96 141 -96Q174 -96 194.5 -88Q215 -80 227 -63.5Q239 -47 244.5 -21Q250 5 253 40L280 331H208Z" glyph-name="florin.LP" horiz-adv-x="660" unicode=""/><glyph d="M424 -118H391V63H46L42 93L299 560H334L79 92H391L394 340H424V92H528V63H424Z" glyph-name="four" horiz-adv-x="538" unicode="4"/><glyph d="M404 0H371V181H26L22 211L279 678H314L59 210H371L374 458H404V210H508V181H404Z" glyph-name="four.LP" horiz-adv-x="527" unicode=""/><glyph d="M487 0H454V181H109L105 211L362 678H397L142 210H454L457 458H487V210H591V181H487Z" glyph-name="four.LT" horiz-adv-x="660" unicode=""/><glyph d="M486 -118H453V63H108L104 93L361 560H396L141 92H453L456 340H486V92H590V63H486Z" glyph-name="four.OT" horiz-adv-x="660" unicode=""/><glyph d="M215 -168H190V-73H13L12 -53L147 190H173L43 -51V-52H190L192 78H215V-51H268V-73H215Z" glyph-name="four.inf" horiz-adv-x="269" unicode=""/><glyph glyph-name="fourperemspace" horiz-adv-x="250" unicode=" "/><glyph d="M-147 0H-180L299 678H332Z" glyph-name="fraction" horiz-adv-x="155" unicode="⁄"/><glyph d="M392 227H191V0H159V227H55V254H159V315H55V342H159V558H481V529H191V342H392V315H191V254H392Z" glyph-name="franc" horiz-adv-x="480" unicode="₣"/><glyph d="M416 443Q393 467 359.5 478Q326 489 283 489Q195 489 144.5 439.5Q94 390 94 274Q94 161 135.5 110Q177 59 260 59Q350 59 416 152ZM447 15Q447 -48 427 -85.5Q407 -123 376.5 -143Q346 -163 309.5 -169Q273 -175 240 -175Q200 -175 161.5 -169.5Q123 -164 91 -153V-124Q122 -134 159 -140.5Q196 -147 238 -147Q268 -147 299.5 -141.5Q331 -136 357 -119Q383 -102 399.5 -71Q416 -40 416 11V112H415Q383 72 343 52Q303 32 258 32Q161 32 112 89.5Q63 147 63 274Q63 403 121 459.5Q179 516 281 516Q322 516 356.5 507Q391 498 418 475H419L422 510H447Z" glyph-name="g" horiz-adv-x="540" unicode="g"/><glyph d="M265 290H462V35Q419 12 377 2.5Q335 -7 287 -7Q234 -7 192 6Q150 19 121 50.5Q92 82 76 135.5Q60 189 60 269Q60 353 75.5 407Q91 461 121 492.5Q151 524 194 536Q237 548 292 548Q317 548 355.5 545.5Q394 543 434 531V504Q394 515 358.5 518Q323 521 294 521Q244 521 206 510.5Q168 500 142.5 472Q117 444 104 395Q91 346 91 269Q91 196 105 148Q119 100 145 71.5Q171 43 206.5 31.5Q242 20 286 20Q318 20 355.5 26.5Q393 33 431 50V263H265Z" glyph-name="g.small" horiz-adv-x="537" unicode=""/><glyph d="M264 557Q250 569 228 576.5Q206 584 183 584Q130 584 100 555Q70 526 70 455Q70 386 95 355Q120 324 170 324Q196 324 220 337.5Q244 351 264 380ZM291 293Q291 253 278 229Q265 205 245 192Q225 179 201.5 175Q178 171 157 171Q132 171 107 175.5Q82 180 61 189V214Q105 195 157 195Q175 195 194 198.5Q213 202 228.5 212.5Q244 223 254 241.5Q264 260 264 291V345H263Q225 300 169 300Q106 300 74.5 337Q43 374 43 455Q43 536 79.5 572Q116 608 182 608Q230 608 266 585L267 604H291Z" glyph-name="g.superior" horiz-adv-x="345" unicode=""/><glyph d="M281 569H248L356 678H403ZM416 443Q393 467 359.5 478Q326 489 283 489Q195 489 144.5 439.5Q94 390 94 274Q94 161 135.5 110Q177 59 260 59Q350 59 416 152ZM447 15Q447 -48 427 -85.5Q407 -123 376.5 -143Q346 -163 309.5 -169Q273 -175 240 -175Q200 -175 161.5 -169.5Q123 -164 91 -153V-124Q122 -134 159 -140.5Q196 -147 238 -147Q268 -147 299.5 -141.5Q331 -136 357 -119Q383 -102 399.5 -71Q416 -40 416 11V112H415Q383 72 343 52Q303 32 258 32Q161 32 112 89.5Q63 147 63 274Q63 403 121 459.5Q179 516 281 516Q322 516 356.5 507Q391 498 418 475H419L422 510H447Z" glyph-name="gacute" horiz-adv-x="540" unicode="ǵ"/><glyph d="M265 290H462V35Q419 12 377 2.5Q335 -7 287 -7Q234 -7 192 6Q150 19 121 50.5Q92 82 76 135.5Q60 189 60 269Q60 353 75.5 407Q91 461 121 492.5Q151 524 194 536Q237 548 292 548Q317 548 355.5 545.5Q394 543 434 531V504Q394 515 358.5 518Q323 521 294 521Q244 521 206 510.5Q168 500 142.5 472Q117 444 104 395Q91 346 91 269Q91 196 105 148Q119 100 145 71.5Q171 43 206.5 31.5Q242 20 286 20Q318 20 355.5 26.5Q393 33 431 50V263H265ZM285 601H252L360 710H407Z" glyph-name="gacute.small" horiz-adv-x="537" unicode=""/><glyph d="M268 599Q314 599 347 617.5Q380 636 391 678H424Q413 622 370.5 597.5Q328 573 268 573Q208 573 165.5 597.5Q123 622 112 678H145Q156 636 189 617.5Q222 599 268 599ZM416 443Q393 467 359.5 478Q326 489 283 489Q195 489 144.5 439.5Q94 390 94 274Q94 161 135.5 110Q177 59 260 59Q350 59 416 152ZM447 15Q447 -48 427 -85.5Q407 -123 376.5 -143Q346 -163 309.5 -169Q273 -175 240 -175Q200 -175 161.5 -169.5Q123 -164 91 -153V-124Q122 -134 159 -140.5Q196 -147 238 -147Q268 -147 299.5 -141.5Q331 -136 357 -119Q383 -102 399.5 -71Q416 -40 416 11V112H415Q383 72 343 52Q303 32 258 32Q161 32 112 89.5Q63 147 63 274Q63 403 121 459.5Q179 516 281 516Q322 516 356.5 507Q391 498 418 475H419L422 510H447Z" glyph-name="gbreve" horiz-adv-x="540" unicode="ğ"/><glyph d="M265 290H462V35Q419 12 377 2.5Q335 -7 287 -7Q234 -7 192 6Q150 19 121 50.5Q92 82 76 135.5Q60 189 60 269Q60 353 75.5 407Q91 461 121 492.5Q151 524 194 536Q237 548 292 548Q317 548 355.5 545.5Q394 543 434 531V504Q394 515 358.5 518Q323 521 294 521Q244 521 206 510.5Q168 500 142.5 472Q117 444 104 395Q91 346 91 269Q91 196 105 148Q119 100 145 71.5Q171 43 206.5 31.5Q242 20 286 20Q318 20 355.5 26.5Q393 33 431 50V263H265ZM271 631Q317 631 350 649.5Q383 668 394 710H427Q416 654 373.5 629.5Q331 605 271 605Q211 605 168.5 629.5Q126 654 115 710H148Q159 668 192 649.5Q225 631 271 631Z" glyph-name="gbreve.small" horiz-adv-x="537" unicode=""/><glyph d="M272 588 354 678H389L284 565H258L153 678H188ZM416 443Q393 467 359.5 478Q326 489 283 489Q195 489 144.5 439.5Q94 390 94 274Q94 161 135.5 110Q177 59 260 59Q350 59 416 152ZM447 15Q447 -48 427 -85.5Q407 -123 376.5 -143Q346 -163 309.5 -169Q273 -175 240 -175Q200 -175 161.5 -169.5Q123 -164 91 -153V-124Q122 -134 159 -140.5Q196 -147 238 -147Q268 -147 299.5 -141.5Q331 -136 357 -119Q383 -102 399.5 -71Q416 -40 416 11V112H415Q383 72 343 52Q303 32 258 32Q161 32 112 89.5Q63 147 63 274Q63 403 121 459.5Q179 516 281 516Q322 516 356.5 507Q391 498 418 475H419L422 510H447Z" glyph-name="gcaron" horiz-adv-x="540" unicode="ǧ"/><glyph d="M277 620 359 710H394L289 597H263L158 710H193ZM265 290H462V35Q419 12 377 2.5Q335 -7 287 -7Q234 -7 192 6Q150 19 121 50.5Q92 82 76 135.5Q60 189 60 269Q60 353 75.5 407Q91 461 121 492.5Q151 524 194 536Q237 548 292 548Q317 548 355.5 545.5Q394 543 434 531V504Q394 515 358.5 518Q323 521 294 521Q244 521 206 510.5Q168 500 142.5 472Q117 444 104 395Q91 346 91 269Q91 196 105 148Q119 100 145 71.5Q171 43 206.5 31.5Q242 20 286 20Q318 20 355.5 26.5Q393 33 431 50V263H265Z" glyph-name="gcaron.small" horiz-adv-x="537" unicode=""/><glyph d="M274 659 192 569H157L262 682H288L393 569H358ZM416 443Q393 467 359.5 478Q326 489 283 489Q195 489 144.5 439.5Q94 390 94 274Q94 161 135.5 110Q177 59 260 59Q350 59 416 152ZM447 15Q447 -48 427 -85.5Q407 -123 376.5 -143Q346 -163 309.5 -169Q273 -175 240 -175Q200 -175 161.5 -169.5Q123 -164 91 -153V-124Q122 -134 159 -140.5Q196 -147 238 -147Q268 -147 299.5 -141.5Q331 -136 357 -119Q383 -102 399.5 -71Q416 -40 416 11V112H415Q383 72 343 52Q303 32 258 32Q161 32 112 89.5Q63 147 63 274Q63 403 121 459.5Q179 516 281 516Q322 516 356.5 507Q391 498 418 475H419L422 510H447Z" glyph-name="gcircumflex" horiz-adv-x="540" unicode="ĝ"/><glyph d="M274 690 192 600H157L262 713H288L393 600H358ZM265 290H462V35Q419 12 377 2.5Q335 -7 287 -7Q234 -7 192 6Q150 19 121 50.5Q92 82 76 135.5Q60 189 60 269Q60 353 75.5 407Q91 461 121 492.5Q151 524 194 536Q237 548 292 548Q317 548 355.5 545.5Q394 543 434 531V504Q394 515 358.5 518Q323 521 294 521Q244 521 206 510.5Q168 500 142.5 472Q117 444 104 395Q91 346 91 269Q91 196 105 148Q119 100 145 71.5Q171 43 206.5 31.5Q242 20 286 20Q318 20 355.5 26.5Q393 33 431 50V263H265Z" glyph-name="gcircumflex.small" horiz-adv-x="537" unicode=""/><glyph d="M307 706H346L291 551H268ZM416 443Q393 467 359.5 478Q326 489 283 489Q195 489 144.5 439.5Q94 390 94 274Q94 161 135.5 110Q177 59 260 59Q350 59 416 152ZM447 15Q447 -48 427 -85.5Q407 -123 376.5 -143Q346 -163 309.5 -169Q273 -175 240 -175Q200 -175 161.5 -169.5Q123 -164 91 -153V-124Q122 -134 159 -140.5Q196 -147 238 -147Q268 -147 299.5 -141.5Q331 -136 357 -119Q383 -102 399.5 -71Q416 -40 416 11V112H415Q383 72 343 52Q303 32 258 32Q161 32 112 89.5Q63 147 63 274Q63 403 121 459.5Q179 516 281 516Q322 516 356.5 507Q391 498 418 475H419L422 510H447Z" glyph-name="gcommaaccent" horiz-adv-x="540" unicode="ģ"/><glyph d="M277 -78H315L261 -233H238ZM265 290H462V35Q419 12 377 2.5Q335 -7 287 -7Q234 -7 192 6Q150 19 121 50.5Q92 82 76 135.5Q60 189 60 269Q60 353 75.5 407Q91 461 121 492.5Q151 524 194 536Q237 548 292 548Q317 548 355.5 545.5Q394 543 434 531V504Q394 515 358.5 518Q323 521 294 521Q244 521 206 510.5Q168 500 142.5 472Q117 444 104 395Q91 346 91 269Q91 196 105 148Q119 100 145 71.5Q171 43 206.5 31.5Q242 20 286 20Q318 20 355.5 26.5Q393 33 431 50V263H265Z" glyph-name="gcommaaccent.small" horiz-adv-x="537" unicode=""/><glyph d="M466 567H427L482 722H504ZM416 443Q393 467 359.5 478Q326 489 283 489Q195 489 144.5 439.5Q94 390 94 274Q94 161 135.5 110Q177 59 260 59Q350 59 416 152ZM447 15Q447 -48 427 -85.5Q407 -123 376.5 -143Q346 -163 309.5 -169Q273 -175 240 -175Q200 -175 161.5 -169.5Q123 -164 91 -153V-124Q122 -134 159 -140.5Q196 -147 238 -147Q268 -147 299.5 -141.5Q331 -136 357 -119Q383 -102 399.5 -71Q416 -40 416 11V112H415Q383 72 343 52Q303 32 258 32Q161 32 112 89.5Q63 147 63 274Q63 403 121 459.5Q179 516 281 516Q322 516 356.5 507Q391 498 418 475H419L422 510H447Z" glyph-name="gcommaturnedabove" horiz-adv-x="553" unicode=""/><glyph d="M519 455H480L535 610H557ZM265 290H462V35Q419 12 377 2.5Q335 -7 287 -7Q234 -7 192 6Q150 19 121 50.5Q92 82 76 135.5Q60 189 60 269Q60 353 75.5 407Q91 461 121 492.5Q151 524 194 536Q237 548 292 548Q317 548 355.5 545.5Q394 543 434 531V504Q394 515 358.5 518Q323 521 294 521Q244 521 206 510.5Q168 500 142.5 472Q117 444 104 395Q91 346 91 269Q91 196 105 148Q119 100 145 71.5Q171 43 206.5 31.5Q242 20 286 20Q318 20 355.5 26.5Q393 33 431 50V263H265Z" glyph-name="gcommaturnedabove.small" horiz-adv-x="571" unicode=""/><glyph d="M290 604H255V678H290ZM416 443Q393 467 359.5 478Q326 489 283 489Q195 489 144.5 439.5Q94 390 94 274Q94 161 135.5 110Q177 59 260 59Q350 59 416 152ZM447 15Q447 -48 427 -85.5Q407 -123 376.5 -143Q346 -163 309.5 -169Q273 -175 240 -175Q200 -175 161.5 -169.5Q123 -164 91 -153V-124Q122 -134 159 -140.5Q196 -147 238 -147Q268 -147 299.5 -141.5Q331 -136 357 -119Q383 -102 399.5 -71Q416 -40 416 11V112H415Q383 72 343 52Q303 32 258 32Q161 32 112 89.5Q63 147 63 274Q63 403 121 459.5Q179 516 281 516Q322 516 356.5 507Q391 498 418 475H419L422 510H447Z" glyph-name="gdotaccent" horiz-adv-x="540" unicode="ġ"/><glyph d="M294 608H259V682H294ZM265 290H462V35Q419 12 377 2.5Q335 -7 287 -7Q234 -7 192 6Q150 19 121 50.5Q92 82 76 135.5Q60 189 60 269Q60 353 75.5 407Q91 461 121 492.5Q151 524 194 536Q237 548 292 548Q317 548 355.5 545.5Q394 543 434 531V504Q394 515 358.5 518Q323 521 294 521Q244 521 206 510.5Q168 500 142.5 472Q117 444 104 395Q91 346 91 269Q91 196 105 148Q119 100 145 71.5Q171 43 206.5 31.5Q242 20 286 20Q318 20 355.5 26.5Q393 33 431 50V263H265Z" glyph-name="gdotaccent.small" horiz-adv-x="537" unicode=""/><glyph d="M246 23Q283 23 321 30Q359 37 390.5 55Q422 73 442 103.5Q462 134 462 181Q462 231 445.5 261Q429 291 403 307Q377 323 343.5 328.5Q310 334 276 336Q240 337 203 343Q166 349 136 366.5Q106 384 87 417.5Q68 451 68 509Q68 562 88 596.5Q108 631 140 650.5Q172 670 213 677.5Q254 685 295 685Q328 685 368.5 680.5Q409 676 446 665V635Q408 647 370 651.5Q332 656 295 656Q259 656 224.5 649Q190 642 163 625.5Q136 609 119 580.5Q102 552 102 510Q102 463 117 435.5Q132 408 157.5 394Q183 380 216 375Q249 370 285 369Q324 367 362 359.5Q400 352 429.5 332Q459 312 477.5 276.5Q496 241 496 184Q496 125 472 88Q448 51 411.5 30Q375 9 330.5 1Q286 -7 245 -7Q203 -7 159.5 -1Q116 5 78 18V49Q116 36 159 29.5Q202 23 246 23ZM791 23Q828 23 866 30Q904 37 935.5 55Q967 73 987 103.5Q1007 134 1007 181Q1007 231 990.5 261Q974 291 948 307Q922 323 888.5 328.5Q855 334 821 336Q785 337 748 343Q711 349 681 366.5Q651 384 632 417.5Q613 451 613 509Q613 562 633 596.5Q653 631 685 650.5Q717 670 758 677.5Q799 685 840 685Q873 685 913.5 680.5Q954 676 991 665V635Q953 647 915 651.5Q877 656 840 656Q804 656 769.5 649Q735 642 708 625.5Q681 609 664 580.5Q647 552 647 510Q647 463 662 435.5Q677 408 702.5 394Q728 380 761 375Q794 370 830 369Q869 367 907 359.5Q945 352 974.5 332Q1004 312 1022.5 276.5Q1041 241 1041 184Q1041 125 1017 88Q993 51 956.5 30Q920 9 875.5 1Q831 -7 790 -7Q748 -7 704.5 -1Q661 5 623 18V49Q661 36 704 29.5Q747 23 791 23Z" glyph-name="germandblS" horiz-adv-x="1090" unicode=""/><glyph d="M317 348Q317 322 326 308Q335 294 350 287Q365 280 385 278.5Q405 277 428 276Q461 274 489.5 268.5Q518 263 540 248.5Q562 234 574.5 208.5Q587 183 587 141Q587 98 568.5 69.5Q550 41 521.5 24.5Q493 8 459 1Q425 -6 394 -6Q357 -6 316.5 -0.5Q276 5 245 16V45Q277 34 316.5 28Q356 22 394 22Q421 22 449.5 27.5Q478 33 501.5 46.5Q525 60 540 82.5Q555 105 555 140Q555 173 544.5 192.5Q534 212 517 223.5Q500 235 477 239Q454 243 429 245Q404 246 378.5 249Q353 252 332 261.5Q311 271 298 291.5Q285 312 285 348Q285 369 294 387.5Q303 406 317 420Q341 444 370 458.5Q399 473 421 495Q432 506 438 519.5Q444 533 444 552Q444 596 411.5 626.5Q379 657 305 657Q221 657 172.5 614Q124 571 124 475V0H93V472Q93 529 108 569.5Q123 610 150.5 635.5Q178 661 217 673Q256 685 304 685Q351 685 383.5 674.5Q416 664 436.5 645.5Q457 627 466 602.5Q475 578 475 551Q475 525 466 507Q457 489 443 475Q420 452 391 438Q362 424 339 401Q329 391 323 377.5Q317 364 317 348Z" glyph-name="germandbls" horiz-adv-x="627" unicode="ß"/><glyph d="M215 21Q245 21 276 26.5Q307 32 332.5 46Q358 60 374.5 84Q391 108 391 144Q391 183 377.5 206.5Q364 230 342.5 243Q321 256 294 260Q267 264 239 266Q208 267 177 272Q146 277 121 291.5Q96 306 80 333Q64 360 64 406Q64 449 81 476.5Q98 504 125 520Q152 536 186 542Q220 548 255 548Q284 548 317.5 545Q351 542 382 531V504Q350 515 318 518.5Q286 522 255 522Q225 522 196.5 516.5Q168 511 145.5 498Q123 485 109.5 462.5Q96 440 96 407Q96 371 109 349Q122 327 143 315.5Q164 304 191 300.5Q218 297 247 296Q279 295 310.5 289Q342 283 366.5 266.5Q391 250 406.5 221Q422 192 422 146Q422 99 402 69.5Q382 40 351.5 23Q321 6 284.5 -0.5Q248 -7 215 -7Q179 -7 142 -2Q105 3 73 15V44Q105 31 141.5 26Q178 21 215 21ZM683 21Q713 21 744 26.5Q775 32 800.5 46Q826 60 842.5 84Q859 108 859 144Q859 183 845.5 206.5Q832 230 810.5 243Q789 256 762 260Q735 264 707 266Q676 267 645 272Q614 277 589 291.5Q564 306 548 333Q532 360 532 406Q532 449 549 476.5Q566 504 593 520Q620 536 654 542Q688 548 723 548Q752 548 785.5 545Q819 542 850 531V504Q818 515 786 518.5Q754 522 723 522Q693 522 664.5 516.5Q636 511 613.5 498Q591 485 577.5 462.5Q564 440 564 407Q564 371 577 349Q590 327 611 315.5Q632 304 659 300.5Q686 297 715 296Q747 295 778.5 289Q810 283 834.5 266.5Q859 250 874.5 221Q890 192 890 146Q890 99 870 69.5Q850 40 819.5 23Q789 6 752.5 -0.5Q716 -7 683 -7Q647 -7 610 -2Q573 3 541 15V44Q573 31 609.5 26Q646 21 683 21Z" glyph-name="germandbls.small" horiz-adv-x="936" unicode=""/><glyph d="M197 678H244L351 569H319Z" glyph-name="grave" horiz-adv-x="600" unicode="`"/><glyph d="M209 846H256L363 737H331Z" glyph-name="grave.cap" horiz-adv-x="600" unicode=""/><glyph d="M209 710H256L363 601H331Z" glyph-name="grave.small" horiz-adv-x="600" unicode=""/><glyph d="M560 274Q547 280 529 288.5Q511 297 492 306.5Q473 316 455.5 324.5Q438 333 426 339L69 521V557L595 288V259L69 -10V26L426 208Q438 214 455.5 222.5Q473 231 492 240.5Q511 250 529 258.5Q547 267 560 273Z" glyph-name="greater" horiz-adv-x="646" unicode="&gt;"/><glyph d="M560 346Q547 352 529 360.5Q511 369 492 378.5Q473 388 455.5 396.5Q438 405 426 411L69 593V629L595 360V331L69 62V98L426 280Q438 286 455.5 294.5Q473 303 492 312.5Q511 322 529 330.5Q547 339 560 345Z" glyph-name="greater.cap" horiz-adv-x="646" unicode=""/><glyph d="M69 0V29H495V0ZM455 337Q430 348 397.5 363Q365 378 333 393L69 518V551L495 350V323L69 122V155L333 280Q365 295 397.5 310Q430 325 455 336Z" glyph-name="greaterequal" horiz-adv-x="546" unicode="≥"/><glyph d="M416 443Q393 467 359.5 478Q326 489 283 489Q195 489 144.5 439.5Q94 390 94 274Q94 161 135.5 110Q177 59 260 59Q350 59 416 152ZM447 15Q447 1 445.5 -12.5Q444 -26 442 -38H560V-65H435Q423 -101 401 -122.5Q379 -144 352 -155.5Q325 -167 296 -171Q267 -175 240 -175Q200 -175 161.5 -169.5Q123 -164 91 -153V-124Q122 -134 159 -140.5Q196 -147 238 -147Q261 -147 285.5 -144Q310 -141 332 -132Q354 -123 372.5 -107Q391 -91 402 -65H207V-38H410Q416 -16 416 11V112H415Q383 72 343 52Q303 32 258 32Q161 32 112 89.5Q63 147 63 274Q63 403 121 459.5Q179 516 281 516Q322 516 356.5 507Q391 498 418 475H419L422 510H447Z" glyph-name="gstroke" horiz-adv-x="540" unicode="ǥ"/><glyph d="M265 290H462V175H545V148H462V35Q419 12 377 2.5Q335 -7 287 -7Q234 -7 192 6Q150 19 121 50.5Q92 82 76 135.5Q60 189 60 269Q60 353 75.5 407Q91 461 121 492.5Q151 524 194 536Q237 548 292 548Q317 548 355.5 545.5Q394 543 434 531V504Q394 515 358.5 518Q323 521 294 521Q244 521 206 510.5Q168 500 142.5 472Q117 444 104 395Q91 346 91 269Q91 196 105 148Q119 100 145 71.5Q171 43 206.5 31.5Q242 20 286 20Q318 20 355.5 26.5Q393 33 431 50V148H224V175H431V263H265Z" glyph-name="gstroke.small" horiz-adv-x="542" unicode=""/><glyph d="M341 613Q321 613 303.5 618Q286 623 268.5 629Q251 635 234 640Q217 645 198 645Q178 645 157.5 635.5Q137 626 118 613V643Q133 654 155.5 663.5Q178 673 198 673Q217 673 235 668Q253 663 270 657Q287 651 304.5 646Q322 641 341 641Q361 641 381.5 650.5Q402 660 420 673V643Q406 632 383 622.5Q360 613 341 613ZM416 443Q393 467 359.5 478Q326 489 283 489Q195 489 144.5 439.5Q94 390 94 274Q94 161 135.5 110Q177 59 260 59Q350 59 416 152ZM447 15Q447 -48 427 -85.5Q407 -123 376.5 -143Q346 -163 309.5 -169Q273 -175 240 -175Q200 -175 161.5 -169.5Q123 -164 91 -153V-124Q122 -134 159 -140.5Q196 -147 238 -147Q268 -147 299.5 -141.5Q331 -136 357 -119Q383 -102 399.5 -71Q416 -40 416 11V112H415Q383 72 343 52Q303 32 258 32Q161 32 112 89.5Q63 147 63 274Q63 403 121 459.5Q179 516 281 516Q322 516 356.5 507Q391 498 418 475H419L422 510H447Z" glyph-name="gtilde" horiz-adv-x="540" unicode=""/><glyph d="M265 290H462V35Q419 12 377 2.5Q335 -7 287 -7Q234 -7 192 6Q150 19 121 50.5Q92 82 76 135.5Q60 189 60 269Q60 353 75.5 407Q91 461 121 492.5Q151 524 194 536Q237 548 292 548Q317 548 355.5 545.5Q394 543 434 531V504Q394 515 358.5 518Q323 521 294 521Q244 521 206 510.5Q168 500 142.5 472Q117 444 104 395Q91 346 91 269Q91 196 105 148Q119 100 145 71.5Q171 43 206.5 31.5Q242 20 286 20Q318 20 355.5 26.5Q393 33 431 50V263H265ZM343 645Q323 645 305.5 650Q288 655 270.5 661Q253 667 236 672Q219 677 200 677Q180 677 159.5 667.5Q139 658 120 645V675Q135 686 157.5 695.5Q180 705 200 705Q219 705 237 700Q255 695 272 689Q289 683 306.5 678Q324 673 343 673Q363 673 383.5 682.5Q404 692 422 705V675Q408 664 385 654.5Q362 645 343 645Z" glyph-name="gtilde.small" horiz-adv-x="537" unicode=""/><glyph d="M227 51 70 282 226 510H265L109 282L266 51ZM355 51 198 282 354 510H393L237 282L394 51Z" glyph-name="guillemotleft" horiz-adv-x="464" unicode="«"/><glyph d="M227 115 70 346 226 574H265L109 346L266 115ZM355 115 198 346 354 574H393L237 346L394 115Z" glyph-name="guillemotleft.cap" horiz-adv-x="464" unicode=""/><glyph d="M198 51 354 282 198 510H238L394 282L237 51ZM70 51 226 282 70 510H110L266 282L109 51Z" glyph-name="guillemotright" horiz-adv-x="464" unicode="»"/><glyph d="M198 115 354 346 198 574H238L394 346L237 115ZM70 115 226 346 70 574H110L266 346L109 115Z" glyph-name="guillemotright.cap" horiz-adv-x="464" unicode=""/><glyph d="M227 51 70 282 226 510H265L109 282L266 51Z" glyph-name="guilsinglleft" horiz-adv-x="336" unicode="‹"/><glyph d="M227 115 70 346 226 574H265L109 346L266 115Z" glyph-name="guilsinglleft.cap" horiz-adv-x="336" unicode=""/><glyph d="M70 51 226 282 70 510H110L266 282L109 51Z" glyph-name="guilsinglright" horiz-adv-x="336" unicode="›"/><glyph d="M70 115 226 346 70 574H110L266 346L109 115Z" glyph-name="guilsinglright.cap" horiz-adv-x="336" unicode=""/><glyph d="M125 435Q167 479 215 497.5Q263 516 320 516Q366 516 395.5 505.5Q425 495 441.5 474.5Q458 454 464 424.5Q470 395 470 357V0H439V352Q439 388 433.5 414Q428 440 414 456.5Q400 473 376.5 481Q353 489 317 489Q260 489 210.5 466Q161 443 124 395V0H93V678H124V435Z" glyph-name="h" horiz-adv-x="554" unicode="h"/><glyph d="M479 0H448V263H123V0H92V541H123V290H448V541H479Z" glyph-name="h.small" horiz-adv-x="571" unicode=""/><glyph d="M296 279H269V502Q269 546 254.5 564.5Q240 583 197 583Q163 583 133 569.5Q103 556 81 529V279H54V708H81V563H82Q131 608 199 608Q229 608 248 601Q267 594 277.5 581Q288 568 292 548.5Q296 529 296 505Z" glyph-name="h.superior" horiz-adv-x="346" unicode=""/><glyph glyph-name="hairspace" horiz-adv-x="100" unicode=" "/><glyph d="M-22 604H93V678H124V604H294V577H124V435H125Q167 479 215 497.5Q263 516 320 516Q366 516 395.5 505.5Q425 495 441.5 474.5Q458 454 464 424.5Q470 395 470 357V0H439V352Q439 388 433.5 414Q428 440 414 456.5Q400 473 376.5 481Q353 489 317 489Q260 489 210.5 466Q161 443 124 395V0H93V577H-22Z" glyph-name="hbar" horiz-adv-x="554" unicode="ħ"/><glyph d="M448 290V407H123V290ZM479 0H448V263H123V0H92V541H123V434H448V541H479Z" glyph-name="hbar.small" horiz-adv-x="571" unicode=""/><glyph d="M108 762 190 852H225L120 739H94L-11 852H24ZM125 435Q167 479 215 497.5Q263 516 320 516Q366 516 395.5 505.5Q425 495 441.5 474.5Q458 454 464 424.5Q470 395 470 357V0H439V352Q439 388 433.5 414Q428 440 414 456.5Q400 473 376.5 481Q353 489 317 489Q260 489 210.5 466Q161 443 124 395V0H93V678H124V435Z" glyph-name="hcaron" horiz-adv-x="554" unicode="ȟ"/><glyph d="M285 620 367 710H402L297 597H271L166 710H201ZM479 0H448V263H123V0H92V541H123V290H448V541H479Z" glyph-name="hcaron.small" horiz-adv-x="571" unicode=""/></font>
</defs>
</svg>
